<?xml version="1.0" encoding="UTF-8" standalone="no"?>
<!-- Created with Inkscape (http://www.inkscape.org/) -->

<svg
   xmlns:dc="http://purl.org/dc/elements/1.1/"
   xmlns:cc="http://creativecommons.org/ns#"
   xmlns:rdf="http://www.w3.org/1999/02/22-rdf-syntax-ns#"
   xmlns:svg="http://www.w3.org/2000/svg"
   xmlns="http://www.w3.org/2000/svg"
   xmlns:sodipodi="http://sodipodi.sourceforge.net/DTD/sodipodi-0.dtd"
   xmlns:inkscape="http://www.inkscape.org/namespaces/inkscape"
   width="300"
   height="120"
   viewBox="0 0 79.374998 31.750001"
   version="1.1"
   id="svg8"
   inkscape:version="0.92.5 (2060ec1f9f, 2020-04-08)"
   sodipodi:docname="drawing.svg">
  <defs
     id="defs2" />
  <sodipodi:namedview
     id="base"
     pagecolor="#ffffff"
     bordercolor="#666666"
     borderopacity="1.0"
     inkscape:pageopacity="0.0"
     inkscape:pageshadow="2"
     inkscape:zoom="2.8"
     inkscape:cx="0.31637008"
     inkscape:cy="68.049533"
     inkscape:document-units="mm"
     inkscape:current-layer="flowRoot876"
     showgrid="false"
     units="px"
     inkscape:window-width="1294"
     inkscape:window-height="704"
     inkscape:window-x="72"
     inkscape:window-y="27"
     inkscape:window-maximized="1" />
  <metadata
     id="metadata5">
    <rdf:RDF>
      <cc:Work
         rdf:about="">
        <dc:format>image/svg+xml</dc:format>
        <dc:type
           rdf:resource="http://purl.org/dc/dcmitype/StillImage" />
        <dc:title></dc:title>
      </cc:Work>
    </rdf:RDF>
  </metadata>
  <g
     inkscape:label="Layer 1"
     inkscape:groupmode="layer"
     id="layer1"
     transform="translate(0,-265.24999)">
    <g
       aria-label="int num = 0;"
       transform="scale(0.26458333)"
       inkscape:transform-center-x="14.174107"
       inkscape:transform-center-y="-5.2916667"
       style="font-style:normal;font-variant:normal;font-weight:normal;font-stretch:normal;font-size:40px;line-height:1.25;font-family:'JetBrains Mono';-inkscape-font-specification:'JetBrains Mono';letter-spacing:0px;word-spacing:0px;fill:#000000;fill-opacity:1;stroke:none"
       id="flowRoot10">
      <path
         style="font-style:italic;font-variant:normal;font-weight:normal;font-stretch:normal;font-family:'JetBrains Mono';-inkscape-font-specification:'JetBrains Mono Italic';fill:#1e90ff"
         d="m 20.58231,1046.7807 c -0.77333,0 -1.44,0.2283 -2,0.6816 -0.53333,0.4534 -0.86667,1.0522 -1,1.7989 -0.10667,0.72 0.0414,1.294 0.44141,1.7207 0.42666,0.4 1.02549,0.5996 1.79883,0.5996 h 0.80078 c 0.77333,0 1.42565,-0.214 1.95898,-0.6406 0.56,-0.4267 0.90768,-0.9988 1.04102,-1.7188 0.13333,-0.72 -0.0147,-1.3064 -0.44141,-1.7598 -0.42667,-0.4533 -1.02549,-0.6816 -1.79883,-0.6816 z m 43.91993,1.8008 -1.08008,6.8008 h -6.40039 l -0.51953,3.2793 h 6.40039 l -2.03907,13.039 c -0.26666,1.7067 0.0667,3.0811 1,4.1211 0.96,1.04 2.38597,1.5606 4.2793,1.5606 h 5.59961 l 0.51953,-3.2813 h -5.59961 c -0.8,0 -1.39883,-0.212 -1.79883,-0.6387 -0.4,-0.4266 -0.53372,-1.015 -0.40039,-1.7617 l 2.03907,-13.039 h 8.5996 l 0.52149,-3.2793 h -8.60156 l 1.08007,-6.8008 z m -20.51954,6.4004 c -1.57333,0 -2.9458,0.3725 -4.11914,1.1191 -1.17333,0.72 -2.04156,1.7468 -2.60156,3.0801 h -0.2793 l 0.56055,-3.7988 h -3.40039 l -3.48047,22 H 34.262 l 2.24024,-14.0411 c 0.29333,-1.6533 0.96,-2.9455 2,-3.8789 1.03999,-0.96 2.30744,-1.4414 3.80078,-1.4414 1.54666,0 2.66604,0.4671 3.35937,1.4004 0.72,0.9067 0.93396,2.2133 0.64063,3.9199 l -2.24024,14.0411 h 3.59961 l 2.28125,-14.4414 c 0.18667,-1.2 0.17232,-2.2803 -0.041,-3.2403 -0.18667,-0.9866 -0.54675,-1.8262 -1.08008,-2.5195 -0.50667,-0.6933 -1.17334,-1.2263 -2,-1.5996 -0.82667,-0.4 -1.77318,-0.5996 -2.83985,-0.5996 z m -32.56054,0.4004 -0.51954,3.2793 h 7 l -2.43945,15.4394 h -8 l -0.51953,3.2813 h 18.19922 l 0.51953,-3.2813 h -6.59961 l 2.96094,-18.7187 z"
         id="path40"
         inkscape:connector-curvature="0" />
      <path
         style="fill:#2f4f4f"
         d="m 114.42216,1054.9819 c -1.6,0 -2.91899,0.3601 -3.95899,1.0801 -1.04,0.72 -1.73341,1.7591 -2.08008,3.1191 h -0.32031 v -3.7988 h -3.40039 v 22 h 3.59961 v -13.8008 c 0,-1.7067 0.44031,-3.0524 1.32031,-4.0391 0.90667,-1.0133 2.12063,-1.5215 3.64063,-1.5215 1.52,0 2.70721,0.4671 3.56054,1.4004 0.85334,0.9334 1.2793,2.2399 1.2793,3.9199 v 14.0411 h 3.59961 v -14.6407 c 0,-1.12 -0.16047,-2.1467 -0.48047,-3.08 -0.32,-0.96 -0.79945,-1.7872 -1.43945,-2.4805 -0.61333,-0.6933 -1.37263,-1.2263 -2.2793,-1.5996 -0.88,-0.4 -1.89435,-0.5996 -3.04101,-0.5996 z m 44.12109,0 c -1.06667,0 -1.8938,0.319 -2.48047,0.959 -0.58666,0.6133 -0.93435,1.5083 -1.04101,2.6816 h -0.2793 v -3.2402 h -3.11914 v 22 h 3.39844 v -16.5606 c 0,-0.9866 0.20156,-1.7459 0.60156,-2.2793 0.4,-0.5333 0.98643,-0.8008 1.75976,-0.8008 0.74667,0 1.31875,0.2531 1.71875,0.7598 0.42667,0.48 0.64063,1.1878 0.64063,2.1211 v 16.7598 h 2.80078 v -16.5606 c 0,-0.9866 0.21201,-1.7459 0.63867,-2.2793 0.42667,-0.5333 1.02745,-0.8008 1.80078,-0.8008 0.72,0 1.2673,0.2531 1.64063,0.7598 0.4,0.48 0.59961,1.1878 0.59961,2.1211 v 16.7598 h 3.43945 v -16.7598 c 0,-1.76 -0.39922,-3.1344 -1.19922,-4.1211 -0.77333,-1.0133 -1.84117,-1.5195 -3.20117,-1.5195 -1.06667,0 -1.91859,0.319 -2.55859,0.959 -0.64,0.6133 -1.01443,1.5083 -1.1211,2.6816 h -0.24023 c -0.56,-2.4267 -1.8255,-3.6406 -3.79883,-3.6406 z m -29.80078,0.4004 v 14.2402 c 0,2.5867 0.72016,4.5991 2.16016,6.0391 1.46666,1.4133 3.53255,2.1191 6.19921,2.1191 2.72,0 4.80024,-0.7058 6.24024,-2.1191 1.46667,-1.4134 2.20117,-3.4258 2.20117,-6.0391 v -14.2402 h -3.60156 v 14.2402 c 0,3.3333 -1.61318,5 -4.83985,5 -3.17333,0 -4.75976,-1.6667 -4.75976,-5 v -14.2402 z"
         id="path46"
         inkscape:connector-curvature="0" />
      <path
         d="m 200.34237,1067.3816 h 17.6 v 3.2 h -17.6 z m 17.6,-9.6 v 3.2 h -17.6 v -3.2 z"
         style="fill:#ff005c;fill-opacity:1"
         id="path52"
         inkscape:connector-curvature="0" />
      <path
         d="m 248.34225,1056.7816 q 0,-1.96 0.6,-3.56 0.64,-1.6 1.76,-2.72 1.16,-1.12 2.76,-1.72 1.64,-0.6 3.68,-0.6 2.04,0 3.64,0.6 1.64,0.6 2.76,1.72 1.16,1.12 1.76,2.72 0.64,1.6 0.64,3.56 v 12.4 q 0,1.96 -0.64,3.56 -0.6,1.56 -1.76,2.68 -1.12,1.12 -2.76,1.76 -1.64,0.6 -3.64,0.6 -2.04,0 -3.68,-0.6 -1.6,-0.6 -2.76,-1.72 -1.12,-1.12 -1.76,-2.72 -0.6,-1.6 -0.6,-3.56 z m 3.6,12.4 q 0,2.48 1.4,3.96 1.4,1.44 3.8,1.44 2.4,0 3.8,-1.44 1.4,-1.48 1.4,-3.96 v -12.4 q 0,-2.48 -1.4,-3.92 -1.4,-1.48 -3.8,-1.48 -2.4,0 -3.8,1.48 -1.4,1.44 -1.4,3.92 z m 3.2,-9.2 q 0,-1 0.52,-1.6 0.56,-0.6 1.48,-0.6 0.92,0 1.44,0.6 0.56,0.6 0.56,1.6 v 6.4 q 0,1 -0.56,1.6 -0.52,0.6 -1.44,0.6 -0.92,0 -1.48,-0.6 -0.52,-0.6 -0.52,-1.6 z"
         style="fill:#4b0082"
         id="path54"
         inkscape:connector-curvature="0" />
      <path
         d="m 275.74219,1083.7816 3.2,-12.44 h 5.2 l -5.2,12.44 z m 5.4,-28.8 q 1.48,0 2.36,0.92 0.92,0.92 0.92,2.32 0,1.48 -0.92,2.36 -0.92,0.88 -2.36,0.88 -1.48,0 -2.4,-0.88 -0.88,-0.92 -0.88,-2.36 0,-1.4 0.88,-2.32 0.92,-0.92 2.4,-0.92 z"
         style="fill:#696969"
         id="path56"
         inkscape:connector-curvature="0" />
      <flowRoot
         xml:space="preserve"
         id="flowRoot868"
         style="font-style:normal;font-weight:normal;font-size:40px;line-height:1.25;font-family:sans-serif;letter-spacing:0px;word-spacing:0px;fill:#000000;fill-opacity:1;stroke:none"><flowRegion
           id="flowRegion870"><rect
             id="rect872"
             width="229.28572"
             height="43.57143"
             x="133.57143"
             y="48.948254" /></flowRegion><flowPara
           id="flowPara874">Vvbuf</flowPara></flowRoot>      <g
         aria-label="data type variable name value"
         transform="translate(-172.30458,878.71501)"
         style="font-style:normal;font-weight:normal;font-size:40px;line-height:1.25;font-family:sans-serif;letter-spacing:0px;word-spacing:0px;fill:#000000;fill-opacity:1;stroke:none"
         id="flowRoot876">
        <path
           style="stroke-width:1;fill:#696969"
           d="m 186.42958,130.89409 v 5.01172 c -0.3244,-0.55125 -0.73464,-0.96001 -1.23242,-1.22461 -0.4922,-0.27012 -1.08575,-0.40429 -1.7793,-0.40429 -1.13539,0 -2.06143,0.44681 -2.77734,1.33984 -0.71032,0.89302 -1.06446,2.06618 -1.06446,3.52148 0,1.45531 0.35414,2.63041 1.06446,3.52344 0.71591,0.89302 1.64195,1.33985 2.77734,1.33985 0.69355,0 1.2871,-0.13385 1.7793,-0.39844 0.49778,-0.27012 0.90802,-0.67922 1.23242,-1.23047 v 1.38867 h 1.54492 v -12.86719 z m 15.22852,0.97657 v 2.6289 h -1.13282 v 1.1836 h 1.13282 v 5.02734 c 0,1.15763 0.22664,1.95548 0.67968,2.39648 0.45304,0.43549 1.27352,0.6543 2.46485,0.6543 h 1.58593 v -1.27344 h -1.58593 c -0.64321,0 -1.07067,-0.10728 -1.28321,-0.32226 -0.20694,-0.21499 -0.31054,-0.69986 -0.31054,-1.45508 v -5.02734 h 3.17968 v -1.1836 h -3.17968 v -2.6289 z m 22.72656,0 v 2.6289 h -1.13281 v 1.1836 h 1.13281 v 5.02734 c 0,1.15763 0.22665,1.95548 0.67969,2.39648 0.45304,0.43549 1.27547,0.6543 2.46679,0.6543 h 1.58594 v -1.27344 h -1.58594 c -0.6432,0 -1.07066,-0.10728 -1.2832,-0.32226 -0.20694,-0.21499 -0.31055,-0.69986 -0.31055,-1.45508 v -5.02734 h 3.17969 v -1.1836 h -3.17969 v -2.6289 z m -29.9336,2.40625 c -0.50338,0 -1.02139,0.0558 -1.55273,0.16601 -0.53134,0.10474 -1.07963,0.26353 -1.64453,0.47852 v 1.40625 c 0.46981,-0.25358 0.95978,-0.44353 1.46875,-0.57032 0.50897,-0.12678 1.03142,-0.1914 1.56836,-0.1914 0.84455,0 1.49866,0.1942 1.96289,0.58008 0.46982,0.38036 0.70508,0.91905 0.70508,1.61914 v 0.15039 h -2.16407 c -1.40386,0 -2.46155,0.26376 -3.17187,0.79297 -0.70473,0.52919 -1.05664,1.31555 -1.05664,2.35742 0,0.89302 0.28275,1.6059 0.84766,2.14062 0.57049,0.5292 1.33682,0.79493 2.29882,0.79493 0.76066,0 1.40394,-0.13385 1.92969,-0.39844 0.52575,-0.27012 0.96404,-0.68578 1.31641,-1.24805 v 1.40625 h 1.54492 v -5.2832 c 0,-1.41121 -0.33664,-2.46559 -1.00781,-3.16016 -0.67117,-0.69458 -1.68581,-1.04101 -3.04493,-1.04101 z m 17.26563,0 c -0.50337,0 -1.02139,0.0558 -1.55273,0.16601 -0.53134,0.10474 -1.07964,0.26353 -1.64454,0.47852 v 1.40625 c 0.46982,-0.25358 0.95978,-0.44353 1.46875,-0.57032 0.50898,-0.12678 1.03142,-0.1914 1.56836,-0.1914 0.84456,0 1.49867,0.1942 1.96289,0.58008 0.46982,0.38036 0.70508,0.91905 0.70508,1.61914 v 0.15039 h -2.16406 c -1.40387,0 -2.46156,0.26376 -3.17188,0.79297 -0.70472,0.52919 -1.05664,1.31555 -1.05664,2.35742 0,0.89302 0.28276,1.6059 0.84766,2.14062 0.57049,0.5292 1.33681,0.79493 2.29883,0.79493 0.76066,0 1.40394,-0.13385 1.92969,-0.39844 0.52575,-0.27012 0.96404,-0.68578 1.3164,-1.24805 v 1.40625 h 1.54492 v -5.2832 c 0,-1.41121 -0.33664,-2.46559 -1.00781,-3.16016 -0.67117,-0.69458 -1.6858,-1.04101 -3.04492,-1.04101 z m 34.0957,0 c -0.68795,0 -1.28151,0.13417 -1.77929,0.40429 -0.4922,0.2646 -0.90021,0.67336 -1.22461,1.22461 v -1.40625 h -1.55274 v 12.7832 h 1.55274 v -4.91015 c 0.3244,0.55125 0.73241,0.96035 1.22461,1.23047 0.49778,0.26459 1.09134,0.39844 1.77929,0.39844 1.14099,0 2.06703,-0.44683 2.77735,-1.33985 0.71591,-0.89303 1.07226,-2.06813 1.07226,-3.52344 0,-1.4553 -0.35635,-2.62846 -1.07226,-3.52148 -0.71032,-0.89303 -1.63636,-1.33984 -2.77735,-1.33984 z m 10.34375,0 c -1.40946,0 -2.52991,0.44681 -3.36328,1.33984 -0.82777,0.88751 -1.24219,2.08952 -1.24219,3.60547 0,1.46632 0.43607,2.62833 1.3086,3.48828 0.8781,0.85995 2.06746,1.29102 3.5664,1.29102 0.59846,0 1.18786,-0.0623 1.76953,-0.1836 0.58168,-0.12127 1.14942,-0.29582 1.70313,-0.52734 v -1.43946 c -0.54812,0.28665 -1.1028,0.50121 -1.66211,0.64454 -0.55372,0.14332 -1.12588,0.21484 -1.71875,0.21484 -1.02353,0 -1.8243,-0.27263 -2.40039,-0.81836 -0.57049,-0.55126 -0.88796,-1.35106 -0.95508,-2.39844 h 7.09766 v -0.74414 c 0,-1.37813 -0.36914,-2.46631 -1.10742,-3.26562 -0.7327,-0.80483 -1.73206,-1.20703 -2.9961,-1.20703 z m -26.11718,0.22265 3.80078,9.11328 -0.27735,0.69336 c -0.28525,0.73868 -0.54439,1.20781 -0.77929,1.40625 -0.23491,0.19846 -0.56517,0.29688 -0.99024,0.29688 h -0.90625 v 1.27343 h 1.23438 c 0.69354,1e-5 1.24627,-0.16763 1.66015,-0.5039 0.4139,-0.33626 0.83913,-1.0557 1.27539,-2.1582 l 4.12696,-10.1211 h -1.63477 l -2.9375,7.24414 -2.93555,-7.24414 z m -46.24219,1.05078 c 0.81658,0 1.45987,0.31953 1.92969,0.95899 0.46981,0.63394 0.70312,1.50986 0.70312,2.6289 0,1.11904 -0.23331,1.99922 -0.70312,2.63868 -0.46982,0.63393 -1.11311,0.95117 -1.92969,0.95117 -0.8166,0 -1.45987,-0.31724 -1.92969,-0.95117 -0.46422,-0.63946 -0.69727,-1.51964 -0.69727,-2.63868 0,-1.11904 0.23305,-1.99496 0.69727,-2.6289 0.46982,-0.63946 1.11309,-0.95899 1.92969,-0.95899 z m 61.63867,0 c 0.81659,0 1.45569,0.31953 1.91992,0.95899 0.46982,0.63394 0.70508,1.50986 0.70508,2.6289 0,1.11904 -0.23526,1.99922 -0.70508,2.63868 -0.46423,0.63393 -1.10333,0.95117 -1.91992,0.95117 -0.81659,0 -1.45987,-0.31724 -1.92969,-0.95117 -0.46422,-0.63946 -0.69726,-1.51964 -0.69726,-2.63868 0,-1.11904 0.23304,-1.99496 0.69726,-2.6289 0.46982,-0.63946 1.1131,-0.95899 1.92969,-0.95899 z m 10.73828,0.0156 c 0.76066,0 1.36949,0.24801 1.82813,0.74414 0.46421,0.49613 0.70169,1.16175 0.71289,1.99414 l -5.50391,0.008 c 0.0783,-0.87097 0.37607,-1.5458 0.89063,-2.02539 0.52015,-0.47959 1.21093,-0.7207 2.07226,-0.7207 z m -60.75,3.53906 h 1.53516 v 0.33984 c 0,0.99225 -0.25914,1.78781 -0.7793,2.38868 -0.51456,0.59534 -1.20089,0.89453 -2.05664,0.89453 -0.62083,0 -1.11301,-0.15845 -1.47656,-0.47266 -0.35796,-0.31973 -0.53711,-0.74883 -0.53711,-1.28906 0,-0.67804 0.24165,-1.15831 0.72265,-1.43945 0.48101,-0.28114 1.34455,-0.42188 2.5918,-0.42188 z m 17.26563,0 h 1.53515 v 0.33984 c 0,0.99225 -0.25914,1.78781 -0.7793,2.38868 -0.51455,0.59534 -1.20089,0.89453 -2.05664,0.89453 -0.62082,0 -1.113,-0.15845 -1.47656,-0.47266 -0.35796,-0.31973 -0.53515,-0.74883 -0.53515,-1.28906 0,-0.67804 0.23969,-1.15831 0.7207,-1.43945 0.48101,-0.28114 1.34454,-0.42188 2.5918,-0.42188 z"
           id="path935"
           inkscape:connector-curvature="0" />
        <path
           style="stroke-width:1;fill:#696969"
           d="m 280.01552,224.89409 v 1.92774 h 1.54297 v -1.92774 z m 15.24414,0 v 12.86719 h 1.55273 v -1.38867 c 0.3244,0.55125 0.73243,0.96035 1.22461,1.23047 0.49779,0.26459 1.08939,0.39844 1.77735,0.39844 1.14098,0 2.06702,-0.44683 2.77734,-1.33985 0.71591,-0.89303 1.07422,-2.06813 1.07422,-3.52344 0,-1.4553 -0.35831,-2.62846 -1.07422,-3.52148 -0.71032,-0.89303 -1.63636,-1.33984 -2.77734,-1.33984 -0.68796,0 -1.27956,0.13417 -1.77735,0.40429 -0.49218,0.2646 -0.90021,0.67336 -1.22461,1.22461 v -5.01172 z m 10.96484,0 v 12.86719 h 1.54297 v -12.86719 z m -40.5039,3.38282 c -0.50338,0 -1.0214,0.0558 -1.55274,0.16601 -0.53135,0.10474 -1.07963,0.26353 -1.64453,0.47852 v 1.40625 c 0.46982,-0.25358 0.95978,-0.44353 1.46875,-0.57032 0.50897,-0.12678 1.03143,-0.1914 1.56836,-0.1914 0.84455,0 1.49866,0.1942 1.96289,0.58008 0.46982,0.38036 0.70508,0.91905 0.70508,1.61914 v 0.15039 h -2.16406 c -1.40387,0 -2.46156,0.26376 -3.17188,0.79297 -0.70473,0.52919 -1.05664,1.31555 -1.05664,2.35742 0,0.89302 0.28276,1.6059 0.84766,2.14062 0.57049,0.5292 1.33681,0.79493 2.29882,0.79493 0.76066,0 1.40199,-0.13385 1.92774,-0.39844 0.52575,-0.27012 0.96599,-0.68578 1.31836,-1.24805 v 1.40625 h 1.54297 v -5.2832 c 0,-1.41121 -0.3347,-2.46559 -1.00586,-3.16016 -0.67117,-0.69458 -1.6858,-1.04101 -3.04492,-1.04101 z m 11.88671,0 c -0.74388,0 -1.37633,0.13843 -1.89648,0.41406 -0.52016,0.27011 -0.94123,0.68577 -1.26563,1.24805 v -1.43946 h -1.55273 v 9.26172 h 1.55273 v -4.87891 c 10e-6,-1.04738 0.2311,-1.84949 0.69532,-2.40625 0.46982,-0.56228 1.14115,-0.84375 2.01367,-0.84375 0.24609,0 0.47052,0.0246 0.67187,0.0742 0.20695,0.0441 0.39693,0.11562 0.57032,0.21485 l -0.008,-1.5625 c -0.1566,-0.0275 -0.29909,-0.0456 -0.42773,-0.0566 -0.12865,-0.0165 -0.24725,-0.0254 -0.35352,-0.0254 z m 10.47852,0 c -0.50337,0 -1.01943,0.0558 -1.55078,0.16601 -0.53134,0.10474 -1.07963,0.26353 -1.64453,0.47852 v 1.40625 c 0.46982,-0.25358 0.95782,-0.44353 1.46679,-0.57032 0.50897,-0.12678 1.03338,-0.1914 1.57032,-0.1914 0.84455,0 1.49866,0.1942 1.96289,0.58008 0.46982,0.38036 0.70508,0.91905 0.70508,1.61914 v 0.15039 h -2.16602 c -1.40387,0 -2.4596,0.26376 -3.16992,0.79297 -0.70473,0.52919 -1.0586,1.31555 -1.0586,2.35742 0,0.89302 0.28276,1.6059 0.84766,2.14062 0.57049,0.5292 1.33682,0.79493 2.29883,0.79493 0.76067,0 1.40394,-0.13385 1.92969,-0.39844 0.52574,-0.27012 0.96599,-0.68578 1.31836,-1.24805 v 1.40625 h 1.54296 v -5.2832 c 0,-1.41121 -0.33468,-2.46559 -1.00586,-3.16016 -0.67116,-0.69458 -1.68775,-1.04101 -3.04687,-1.04101 z m 26.84766,0 c -1.40946,0 -2.53187,0.44681 -3.36524,1.33984 -0.82778,0.88751 -1.24023,2.08952 -1.24023,3.60547 0,1.46632 0.43606,2.62833 1.30859,3.48828 0.87811,0.85995 2.0655,1.29102 3.56445,1.29102 0.59846,0 1.1898,-0.0623 1.77149,-0.1836 0.58167,-0.12127 1.1494,-0.29582 1.70312,-0.52734 v -1.43946 c -0.54812,0.28665 -1.1028,0.50121 -1.66211,0.64454 -0.55371,0.14332 -1.12588,0.21484 -1.71875,0.21484 -1.02353,0 -1.8243,-0.27263 -2.40039,-0.81836 -0.57049,-0.55126 -0.88991,-1.35106 -0.95703,-2.39844 h 7.09766 v -0.74414 c 0,-1.37813 -0.36913,-2.46631 -1.10742,-3.26562 -0.7327,-0.80483 -1.73011,-1.20703 -2.99414,-1.20703 z m 16.62695,0 c -0.65439,0 -1.23295,0.13843 -1.73633,0.41406 -0.49778,0.27562 -0.92968,0.69129 -1.29883,1.24805 v -1.43946 h -1.55273 v 9.26172 h 1.55273 v -5.23437 c 0,-0.90406 0.23971,-1.6189 0.72071,-2.14258 0.481,-0.52369 1.13733,-0.78516 1.9707,-0.78516 0.69355,0 1.21377,0.21881 1.56055,0.6543 0.34676,0.43548 0.52148,1.0903 0.52148,1.96679 v 5.54102 h 1.54297 v -5.58984 c 0,-1.27891 -0.27637,-2.24636 -0.83008,-2.90235 -0.55371,-0.6615 -1.3717,-0.99218 -2.45117,-0.99218 z m 9.6582,0 c -0.50338,0 -1.02139,0.0558 -1.55273,0.16601 -0.53135,0.10474 -1.07963,0.26353 -1.64453,0.47852 v 1.40625 c 0.46982,-0.25358 0.95978,-0.44353 1.46875,-0.57032 0.50897,-0.12678 1.03142,-0.1914 1.56836,-0.1914 0.84456,0 1.49866,0.1942 1.96289,0.58008 0.46981,0.38036 0.70508,0.91905 0.70508,1.61914 v 0.15039 h -2.16407 c -1.40386,0 -2.46155,0.26376 -3.17187,0.79297 -0.70474,0.52919 -1.05664,1.31555 -1.05664,2.35742 0,0.89302 0.28275,1.6059 0.84765,2.14062 0.5705,0.5292 1.33682,0.79493 2.29883,0.79493 0.76066,0 1.40394,-0.13385 1.92969,-0.39844 0.52575,-0.27012 0.96405,-0.68578 1.31641,-1.24805 v 1.40625 h 1.54296 v -5.2832 c 0,-1.41121 -0.33468,-2.46559 -1.00586,-3.16016 -0.67116,-0.69458 -1.6858,-1.04101 -3.04492,-1.04101 z m 11.74414,0 c -0.67676,0 -1.25976,0.13417 -1.75195,0.40429 -0.49219,0.27011 -0.91521,0.69003 -1.26758,1.25782 v -1.43946 h -1.55273 v 9.26172 h 1.55273 v -5.23437 c 0,-0.89854 0.23109,-1.60913 0.69531,-2.13282 0.46423,-0.5292 1.09224,-0.79492 1.88086,-0.79492 0.66558,0 1.15776,0.21456 1.47657,0.64453 0.31881,0.42447 0.47656,1.08354 0.47656,1.97656 v 5.54102 h 1.55273 v -5.23437 c 0,-0.90406 0.23304,-1.6189 0.69727,-2.14258 0.46423,-0.52369 1.09472,-0.78516 1.89453,-0.78516 0.65439,0 1.14213,0.21456 1.46094,0.64453 0.3188,0.42998 0.47851,1.08905 0.47851,1.97656 v 5.54102 h 1.55078 v -5.58984 c 0,-1.24584 -0.26553,-2.20443 -0.79687,-2.87696 -0.53135,-0.67804 -1.28489,-1.01757 -2.26367,-1.01757 -0.7271,0 -1.35955,0.16304 -1.89649,0.48828 -0.53694,0.32524 -0.99884,0.82816 -1.38476,1.51172 -0.22932,-0.65048 -0.5854,-1.14651 -1.06641,-1.48829 -0.47541,-0.34178 -1.05397,-0.51171 -1.73633,-0.51171 z m 16.15821,0 c -1.40946,0 -2.52991,0.44681 -3.36329,1.33984 -0.82776,0.88751 -1.24218,2.08952 -1.24218,3.60547 0,1.46632 0.43608,2.62833 1.30859,3.48828 0.87812,0.85995 2.06747,1.29102 3.56641,1.29102 0.59846,0 1.18785,-0.0623 1.76953,-0.1836 0.58169,-0.12127 1.14941,-0.29582 1.70312,-0.52734 v -1.43946 c -0.54812,0.28665 -1.10084,0.50121 -1.66015,0.64454 -0.55372,0.14332 -1.12784,0.21484 -1.72071,0.21484 -1.02353,0 -1.82235,-0.27263 -2.39843,-0.81836 -0.5705,-0.55126 -0.88992,-1.35106 -0.95703,-2.39844 h 7.09765 v -0.74414 c 0,-1.37813 -0.36913,-2.46631 -1.10742,-3.26562 -0.73269,-0.80483 -1.73205,-1.20703 -2.99609,-1.20703 z m -117.97461,0.22265 3.52343,9.26172 h 2.09766 l 3.52344,-9.26172 h -1.63477 l -2.9375,7.77344 -2.93554,-7.77344 z m 28.86914,0 v 9.26172 h 1.54297 v -9.26172 z m 19.42187,1.05078 c 0.81659,0 1.45764,0.31953 1.92188,0.95899 0.46981,0.63394 0.70508,1.50986 0.70508,2.6289 0,1.11904 -0.23527,1.99922 -0.70508,2.63868 -0.46424,0.63393 -1.10529,0.95117 -1.92188,0.95117 -0.81659,0 -1.45987,-0.31724 -1.92969,-0.95117 -0.46422,-0.63946 -0.69531,-1.51964 -0.69531,-2.63868 0,-1.11904 0.23109,-1.99496 0.69531,-2.6289 0.46982,-0.63946 1.1131,-0.95899 1.92969,-0.95899 z m 15.51172,0.0156 c 0.76065,0 1.37145,0.24801 1.83008,0.74414 0.46421,0.49613 0.70169,1.16175 0.71289,1.99414 l -5.50391,0.008 c 0.0783,-0.87097 0.37411,-1.5458 0.88868,-2.02539 0.52016,-0.47959 1.21093,-0.7207 2.07226,-0.7207 z m 54.18945,0 c 0.76066,0 1.36949,0.24801 1.82813,0.74414 0.46421,0.49613 0.70364,1.16175 0.71484,1.99414 l -5.5039,0.008 c 0.0783,-0.87097 0.3741,-1.5458 0.88867,-2.02539 0.52015,-0.47959 1.21092,-0.7207 2.07226,-0.7207 z M 266.69325,233.105 h 1.53516 v 0.33984 c 0,0.99225 -0.2611,1.78781 -0.78125,2.38868 -0.51457,0.59534 -1.19895,0.89453 -2.05469,0.89453 -0.62083,0 -1.11302,-0.15845 -1.47656,-0.47266 -0.35796,-0.31973 -0.53711,-0.74883 -0.53711,-1.28906 0,-0.67804 0.2397,-1.15831 0.7207,-1.43945 0.48101,-0.28114 1.34649,-0.42188 2.59375,-0.42188 z m 22.36719,0 h 1.53516 v 0.33984 c 0,0.99225 -0.2611,1.78781 -0.78125,2.38868 -0.51457,0.59534 -1.19895,0.89453 -2.05469,0.89453 -0.62083,0 -1.11301,-0.15845 -1.47656,-0.47266 -0.35796,-0.31973 -0.53711,-0.74883 -0.53711,-1.28906 0,-0.67804 0.23969,-1.15831 0.7207,-1.43945 0.481,-0.28114 1.3465,-0.42188 2.59375,-0.42188 z m 53.13086,0 h 1.53516 v 0.33984 c -10e-6,0.99225 -0.2611,1.78781 -0.78126,2.38868 -0.51456,0.59534 -1.19894,0.89453 -2.05468,0.89453 -0.62083,0 -1.11301,-0.15845 -1.47656,-0.47266 -0.35796,-0.31973 -0.53711,-0.74883 -0.53711,-1.28906 0,-0.67804 0.24165,-1.15831 0.72265,-1.43945 0.48101,-0.28114 1.34455,-0.42188 2.5918,-0.42188 z"
           id="path951"
           inkscape:connector-curvature="0" />
        <g
           aria-label="data"
           style="font-style:normal;font-weight:normal;font-size:17.48475075px;line-height:1.25;font-family:sans-serif;letter-spacing:0px;word-spacing:0px;fill:#696969;fill-opacity:1;stroke:none;stroke-width:1"
           id="text1019"
           transform="translate(52)">
          <path
             style="stroke-width:1;fill:#696969"
             d="m 192.50781,6.7773438 v 5.1738282 c -0.33011,-0.569167 -0.7493,-0.990472 -1.25586,-1.263672 -0.50086,-0.278893 -1.10478,-0.417969 -1.81054,-0.417969 -1.1554,0 -2.09569,0.460759 -2.82422,1.382813 -0.72284,0.922046 -1.08594,2.134125 -1.08594,3.636718 0,1.502594 0.3631,2.714666 1.08594,3.636719 0.72853,0.922047 1.66882,1.382813 2.82422,1.382813 0.70576,0 1.30968,-0.136957 1.81054,-0.410156 0.50656,-0.278894 0.92575,-0.702318 1.25586,-1.271485 v 1.433594 h 1.57031 V 6.7773438 Z m 15.49414,1.0078124 V 10.5 h -1.15234 v 1.220703 h 1.15234 v 5.189453 c 0,1.195247 0.23039,2.021229 0.69141,2.476563 0.46103,0.44964 1.2994,0.673828 2.51172,0.673828 h 1.61328 v -1.314453 h -1.61328 c -0.65454,0 -1.09036,-0.110058 -1.30664,-0.332032 -0.2106,-0.221973 -0.31641,-0.724146 -0.31641,-1.503906 v -5.189453 h 3.23633 V 10.5 h -3.23633 V 7.7851562 Z m -7.33398,2.4843748 c -0.51225,0 -1.03742,0.05609 -1.57813,0.169922 -0.5407,0.108147 -1.09897,0.274121 -1.67382,0.496094 v 1.451172 c 0.4781,-0.26182 0.9762,-0.458937 1.49414,-0.589844 0.51794,-0.130907 1.04931,-0.197266 1.5957,-0.197266 0.85944,0 1.52564,0.199243 1.99805,0.597657 0.4781,0.392726 0.71679,0.950988 0.71679,1.673828 v 0.154297 h -2.20117 c -1.4286,0 -2.50567,0.273912 -3.22851,0.820312 -0.71716,0.5464 -1.07422,1.355921 -1.07422,2.431641 0,0.922046 0.28647,1.658844 0.86132,2.210937 0.58055,0.5464 1.36088,0.820313 2.33985,0.820313 0.77406,0 1.42787,-0.136957 1.96289,-0.410156 0.53501,-0.278894 0.98127,-0.708516 1.33984,-1.289063 v 1.451172 h 1.57227 v -5.455078 c 0,-1.45706 -0.34239,-2.544572 -1.02539,-3.261719 -0.683,-0.717153 -1.71654,-1.074219 -3.09961,-1.074219 z m 17.57031,0 c -0.51225,0 -1.03742,0.05609 -1.57812,0.169922 -0.54071,0.108147 -1.09897,0.274121 -1.67383,0.496094 v 1.451172 c 0.4781,-0.26182 0.9762,-0.458937 1.49414,-0.589844 0.51794,-0.130907 1.0493,-0.197266 1.5957,-0.197266 0.85944,0 1.52564,0.199243 1.99805,0.597657 0.4781,0.392726 0.7168,0.950988 0.7168,1.673828 v 0.154297 h -2.20118 c -1.4286,0 -2.50567,0.273912 -3.22851,0.820312 -0.71715,0.5464 -1.07422,1.355921 -1.07422,2.431641 0,0.922046 0.28647,1.658844 0.86133,2.210937 0.58054,0.5464 1.36088,0.820313 2.33984,0.820313 0.77407,0 1.42788,-0.136957 1.96289,-0.410156 0.53502,-0.278894 0.98127,-0.708516 1.33985,-1.289063 v 1.451172 h 1.57226 v -5.455078 c 0,-1.45706 -0.3424,-2.544572 -1.02539,-3.261719 -0.683,-0.717153 -1.71654,-1.074219 -3.09961,-1.074219 z m -28.41211,1.314453 c 0.83098,0 1.48479,0.330008 1.96289,0.990235 0.4781,0.65454 0.71875,1.559437 0.71875,2.714843 0,1.155407 -0.24065,2.062423 -0.71875,2.722657 -0.4781,0.654533 -1.13191,0.982422 -1.96289,0.982422 -0.83098,0 -1.48479,-0.327889 -1.96289,-0.982422 -0.47241,-0.660234 -0.70898,-1.56725 -0.70898,-2.722657 0,-1.155406 0.23657,-2.060303 0.70898,-2.714843 0.4781,-0.660227 1.13191,-0.990235 1.96289,-0.990235 z m 11.83399,3.669922 h 1.56054 v 0.351563 c 0,1.024493 -0.26365,1.846403 -0.79297,2.466797 -0.52363,0.614693 -1.22097,0.921875 -2.09179,0.921875 -0.63178,0 -1.132,-0.161909 -1.50196,-0.486329 -0.36426,-0.330113 -0.54687,-0.774244 -0.54687,-1.332031 0,-0.700073 0.24489,-1.196055 0.73437,-1.486328 0.48949,-0.290273 1.36944,-0.435547 2.63868,-0.435547 z m 17.56836,0 h 1.5625 v 0.351563 c 0,1.024493 -0.26365,1.846403 -0.79297,2.466797 -0.52364,0.614693 -1.22098,0.921875 -2.0918,0.921875 -0.63177,0 -1.13199,-0.161909 -1.50195,-0.486329 -0.36426,-0.330113 -0.54688,-0.774244 -0.54688,-1.332031 0,-0.700073 0.2449,-1.196055 0.73438,-1.486328 0.48948,-0.290273 1.36748,-0.435547 2.63672,-0.435547 z"
             transform="translate(172.30458,123.80465)"
             id="path1021"
             inkscape:connector-curvature="0" />
        </g>
      </g>
      <path
         style="opacity:1;fill:#696969;fill-opacity:1;fill-rule:evenodd;stroke:none;stroke-width:7.55905485;stroke-linecap:square;stroke-linejoin:miter;stroke-miterlimit:4;stroke-dasharray:none;stroke-dashoffset:0;stroke-opacity:0;paint-order:normal"
         d="m 42.64307,1029.3064 c -0.45012,0 -0.81248,0.3623 -0.81248,0.8125 v 8.8865 a 2.32138,2.32138 0 0 0 -1.50944,2.1747 2.32138,2.32138 0 0 0 2.32192,2.3206 2.32138,2.32138 0 0 0 2.32066,-2.3206 2.32138,2.32138 0 0 0 -1.50818,-2.1722 v -8.889 c 0,-0.4502 -0.36236,-0.8125 -0.81248,-0.8125 z"
         id="path989"
         inkscape:connector-curvature="0" />
      <path
         inkscape:connector-curvature="0"
         id="path994"
         d="m 256.64307,1029.3064 c -0.45012,0 -0.81248,0.3623 -0.81248,0.8125 v 8.8865 a 2.32138,2.32138 0 0 0 -1.50944,2.1747 2.32138,2.32138 0 0 0 2.32192,2.3206 2.32138,2.32138 0 0 0 2.32066,-2.3206 2.32138,2.32138 0 0 0 -1.50818,-2.1722 v -8.889 c 0,-0.4502 -0.36236,-0.8125 -0.81248,-0.8125 z"
         style="opacity:1;fill:#696969;fill-opacity:1;fill-rule:evenodd;stroke:none;stroke-width:7.55905485;stroke-linecap:square;stroke-linejoin:miter;stroke-miterlimit:4;stroke-dasharray:none;stroke-dashoffset:0;stroke-opacity:0;paint-order:normal" />
      <path
         style="opacity:1;fill:#696969;fill-opacity:1;fill-rule:evenodd;stroke:none;stroke-width:7.55905485;stroke-linecap:square;stroke-linejoin:miter;stroke-miterlimit:4;stroke-dasharray:none;stroke-dashoffset:0;stroke-opacity:0;paint-order:normal"
         d="m 136.64307,1097.5007 c -0.45012,0 -0.81248,-0.3624 -0.81248,-0.8125 v -8.8865 a 2.32138,2.32138 0 0 1 -1.50944,-2.1747 2.32138,2.32138 0 0 1 2.32192,-2.3206 2.32138,2.32138 0 0 1 2.32066,2.3206 2.32138,2.32138 0 0 1 -1.50818,2.1722 v 8.889 c 0,0.4501 -0.36236,0.8125 -0.81248,0.8125 z"
         id="path996"
         inkscape:connector-curvature="0" />
    </g>
  </g>
</svg>
