<?xml version="1.0" encoding="UTF-8" standalone="no"?>
<!-- Created with Inkscape (http://www.inkscape.org/) -->

<svg
   xmlns:dc="http://purl.org/dc/elements/1.1/"
   xmlns:cc="http://creativecommons.org/ns#"
   xmlns:rdf="http://www.w3.org/1999/02/22-rdf-syntax-ns#"
   xmlns:svg="http://www.w3.org/2000/svg"
   xmlns="http://www.w3.org/2000/svg"
   xmlns:sodipodi="http://sodipodi.sourceforge.net/DTD/sodipodi-0.dtd"
   xmlns:inkscape="http://www.inkscape.org/namespaces/inkscape"
   width="320"
   height="200"
   viewBox="0 0 84.666666 52.916668"
   version="1.1"
   id="svg8"
   inkscape:version="0.92.5 (2060ec1f9f, 2020-04-08)"
   sodipodi:docname="drawing-2.svg">
  <defs
     id="defs2" />
  <sodipodi:namedview
     id="base"
     pagecolor="#ffffff"
     bordercolor="#666666"
     borderopacity="1.0"
     inkscape:pageopacity="0.0"
     inkscape:pageshadow="2"
     inkscape:zoom="1.4"
     inkscape:cx="269.00395"
     inkscape:cy="119.13473"
     inkscape:document-units="mm"
     inkscape:current-layer="text914"
     showgrid="false"
     showguides="true"
     inkscape:guide-bbox="true"
     inkscape:window-width="1294"
     inkscape:window-height="704"
     inkscape:window-x="72"
     inkscape:window-y="27"
     inkscape:window-maximized="1"
     units="px" />
  <metadata
     id="metadata5">
    <rdf:RDF>
      <cc:Work
         rdf:about="">
        <dc:format>image/svg+xml</dc:format>
        <dc:type
           rdf:resource="http://purl.org/dc/dcmitype/StillImage" />
        <dc:title></dc:title>
      </cc:Work>
    </rdf:RDF>
  </metadata>
  <g
     inkscape:label="Layer 1"
     inkscape:groupmode="layer"
     id="layer1"
     transform="translate(0,-244.08328)">
    <g
       aria-label="0000 0000"
       style="font-style:normal;font-variant:normal;font-weight:normal;font-stretch:normal;font-size:10.58333302px;line-height:1.25;font-family:'JetBrains Mono';-inkscape-font-specification:'JetBrains Mono';letter-spacing:0px;word-spacing:0px;fill:#a9a9a9;fill-opacity:1;stroke:none;stroke-width:0.26458332"
       id="text12"
       transform="translate(-49.741692,-10.054167)" />
    <rect
       style="opacity:1;fill:none;fill-opacity:1;fill-rule:evenodd;stroke:#f70e57;stroke-width:0.5;stroke-linecap:square;stroke-linejoin:miter;stroke-miterlimit:4;stroke-dasharray:none;stroke-dashoffset:0;stroke-opacity:1;paint-order:normal"
       id="rect31"
       width="5.9467483"
       height="8.9869375"
       x="21.254856"
       y="250.256"
       ry="0.56794846"
       rx="0.63476694" />
    <path
       style="color:#000000;font-style:normal;font-variant:normal;font-weight:normal;font-stretch:normal;font-size:medium;line-height:normal;font-family:sans-serif;font-variant-ligatures:normal;font-variant-position:normal;font-variant-caps:normal;font-variant-numeric:normal;font-variant-alternates:normal;font-feature-settings:normal;text-indent:0;text-align:start;text-decoration:none;text-decoration-line:none;text-decoration-style:solid;text-decoration-color:#000000;letter-spacing:normal;word-spacing:normal;text-transform:none;writing-mode:lr-tb;direction:ltr;text-orientation:mixed;dominant-baseline:auto;baseline-shift:baseline;text-anchor:start;white-space:normal;shape-padding:0;clip-rule:nonzero;display:inline;overflow:visible;visibility:visible;opacity:1;isolation:auto;mix-blend-mode:normal;color-interpolation:sRGB;color-interpolation-filters:linearRGB;solid-color:#000000;solid-opacity:1;vector-effect:none;fill:#0ea9f7;fill-opacity:1;fill-rule:evenodd;stroke:none;stroke-width:0.49999997;stroke-linecap:square;stroke-linejoin:miter;stroke-miterlimit:4;stroke-dasharray:none;stroke-dashoffset:0;stroke-opacity:1;paint-order:normal;color-rendering:auto;image-rendering:auto;shape-rendering:auto;text-rendering:auto;enable-background:accumulate"
       d="m 20.963326,249.08721 c -0.471715,0 -0.8847,0.35395 -0.8847,0.81856 v 1.6862 h 0.500226 v -1.6862 c 0,-0.16468 0.152863,-0.31833 0.384474,-0.31833 h 57.330195 c 0.2316,0 0.38447,0.15365 0.38447,0.31833 v 9.68933 c 0,0.16468 -0.15287,0.31626 -0.38447,0.31626 H 20.963326 c -0.231611,0 -0.384474,-0.15158 -0.384474,-0.31626 v -6.97891 h -0.500226 v 6.97891 c 0,0.4646 0.412985,0.81648 0.8847,0.81648 h 57.330195 c 0.471717,0 0.884697,-0.35188 0.884697,-0.81648 v -9.68933 c 0,-0.46461 -0.41298,-0.81856 -0.884697,-0.81856 z"
       id="rect840"
       inkscape:connector-curvature="0" />
    <path
       style="opacity:1;fill:#f70e57;fill-opacity:1;fill-rule:evenodd;stroke:none;stroke-width:0.5;stroke-linecap:square;stroke-linejoin:miter;stroke-miterlimit:4;stroke-dasharray:none;stroke-dashoffset:0;stroke-opacity:1;paint-order:normal"
       d="m 17.019381,251.62556 a 0.47837611,0.47837611 0 0 0 -0.478007,0.47852 0.47837611,0.47837611 0 0 0 0.478007,0.47852 0.47837611,0.47837611 0 0 0 0.412377,-0.23667 h 3.836458 c 0.128736,0 0.232545,-0.10381 0.232545,-0.23255 v -0.0186 c 0,-0.12873 -0.103809,-0.23254 -0.232545,-0.23254 h -3.836974 a 0.47837611,0.47837611 0 0 0 -0.411861,-0.23668 z"
       id="rect900"
       inkscape:connector-curvature="0" />
    <path
       style="opacity:1;fill:#0ea9f7;fill-opacity:1;fill-rule:evenodd;stroke:none;stroke-width:0.49999997;stroke-linecap:square;stroke-linejoin:miter;stroke-miterlimit:4;stroke-dasharray:none;stroke-dashoffset:0;stroke-opacity:1;paint-order:normal"
       d="m 17.019381,256.91722 a 0.47837611,0.47837611 0 0 0 -0.478007,0.47853 0.47837611,0.47837611 0 0 0 0.478007,0.47852 0.47837611,0.47837611 0 0 0 0.412377,-0.23668 h 2.90835 c 0.128736,0 0.232027,-0.10381 0.232027,-0.23254 v -0.0186 c 0,-0.12874 -0.103291,-0.23254 -0.232027,-0.23254 h -2.908866 a 0.47837611,0.47837611 0 0 0 -0.411861,-0.23668 z"
       id="rect902"
       inkscape:connector-curvature="0" />
    <g
       aria-label="1 bit
1 byte"
       style="font-style:normal;font-weight:normal;font-size:2.87800908px;line-height:1.25;font-family:sans-serif;letter-spacing:0px;word-spacing:0px;fill:#000000;fill-opacity:1;stroke:none;stroke-width:0.26458332"
       id="text914">
      <g
         aria-label="4 bytes"
         transform="matrix(1.0174447,0,0,0.9828544,-47.980502,234.07984)"
         style="font-style:normal;font-weight:normal;font-size:2.91075683px;line-height:1.25;font-family:sans-serif;letter-spacing:0px;word-spacing:0px;fill:#696969;fill-opacity:1;stroke:none;stroke-width:0.07000434"
         id="text1115">
        <path
           id="path1127"
           style="font-style:normal;font-variant:normal;font-weight:normal;font-stretch:normal;font-family:'JetBrains Mono';-inkscape-font-specification:'JetBrains Mono';fill:#696969;stroke-width:0.07000434"
           d="m 60.74337,31.074161 h 0.276522 q 0.01746,0.08441 0.107698,0.136806 0.09023,0.05239 0.221217,0.05239 h 0.0815 q 0.157181,0 0.244504,-0.06404 0.08732,-0.06695 0.08732,-0.177556 0,-0.189199 -0.267789,-0.22995 l -0.241593,-0.03493 q -0.235771,-0.03493 -0.352202,-0.148449 -0.11643,-0.113519 -0.11643,-0.317272 0,-0.215396 0.15136,-0.334737 0.15427,-0.119341 0.427881,-0.119341 h 0.0815 q 0.11643,0 0.215396,0.02911 0.09897,0.02911 0.174645,0.08441 0.07568,0.05239 0.122252,0.128073 0.04948,0.07277 0.06404,0.163003 H 61.74467 q -0.01747,-0.07568 -0.09897,-0.122252 -0.0815,-0.04948 -0.200842,-0.04948 h -0.0815 q -0.148449,0 -0.232861,0.05822 -0.0815,0.05822 -0.0815,0.174646 0,0.09314 0.0553,0.142627 0.05822,0.04657 0.186289,0.06404 l 0.241593,0.03493 q 0.259057,0.03784 0.375487,0.151359 0.119341,0.113519 0.119341,0.323094 0,0.224128 -0.15718,0.352202 -0.154271,0.125162 -0.439525,0.125162 h -0.0815 q -0.253236,0 -0.419149,-0.113519 -0.163002,-0.116431 -0.186288,-0.308541 z m -1.737719,-0.625812 q 0,-0.285255 0.168824,-0.448257 0.171735,-0.163002 0.471543,-0.163002 0.299808,0 0.468632,0.163002 0.171734,0.163002 0.171734,0.448257 v 0.293986 H 59.26762 v 0.128073 q 0,0.183378 0.09896,0.288165 0.101877,0.104788 0.279433,0.104788 0.130984,0 0.227039,-0.04075 0.09605,-0.04075 0.142627,-0.119341 h 0.261968 q -0.04948,0.183378 -0.221217,0.288165 -0.168824,0.104787 -0.410417,0.104787 -0.299808,0 -0.471543,-0.163002 -0.168824,-0.163003 -0.168824,-0.448257 z m 0.261969,0.07568 h 0.756796 v -0.07568 q 0,-0.180467 -0.09896,-0.279433 -0.09897,-0.09897 -0.279433,-0.09897 -0.180467,0 -0.279433,0.09897 -0.09896,0.09897 -0.09896,0.279433 z m -2.066633,-0.657832 h 0.465721 v -0.494828 h 0.261968 v 0.494828 h 0.625813 v 0.238682 h -0.625813 v 0.948907 q 0,0.0815 0.04948,0.128073 0.05239,0.04657 0.139716,0.04657 h 0.407506 v 0.238682 h -0.407506 q -0.206663,0 -0.328915,-0.113519 -0.122252,-0.11352 -0.122252,-0.299808 v -0.948907 h -0.465721 z m -1.775557,0 h 0.291075 l 0.366756,0.919799 q 0.0262,0.06695 0.04075,0.125163 0.01746,0.05821 0.0262,0.101876 0.01164,0.05531 0.01455,0.09897 h 0.02037 q 0.0029,-0.04366 0.01455,-0.09605 0.0087,-0.04657 0.02329,-0.104787 0.01455,-0.05822 0.03784,-0.125163 l 0.337648,-0.919799 h 0.282343 l -0.780083,2.095745 h -0.279432 l 0.224128,-0.611259 z m -1.635841,-0.494828 h 0.261968 v 0.465721 q 0,0.04075 -0.0029,0.09605 0,0.05239 -0.0029,0.09896 -0.0058,0.05531 -0.0087,0.110609 h 0.02329 q 0.03784,-0.145538 0.15427,-0.224128 0.11643,-0.0815 0.293987,-0.0815 0.122251,0 0.221217,0.04366 0.09897,0.04366 0.168824,0.125163 0.06986,0.07859 0.107698,0.19502 0.04075,0.116431 0.04075,0.261968 v 0.407506 q 0,0.145538 -0.04075,0.261968 -0.03784,0.116431 -0.107698,0.197932 -0.06986,0.07859 -0.168824,0.122252 -0.09897,0.04366 -0.221217,0.04366 -0.177557,0 -0.293987,-0.07859 -0.11643,-0.0815 -0.15427,-0.227039 h -0.02329 v 0.276521 h -0.247414 z m 0.261968,1.499039 q 0,0.183378 0.09605,0.291076 0.09896,0.107698 0.261968,0.107698 0.174645,0 0.273611,-0.107698 0.101876,-0.107698 0.101876,-0.291076 v -0.407506 q 0,-0.189199 -0.09896,-0.293986 -0.09897,-0.104787 -0.276522,-0.104787 -0.163003,0 -0.261968,0.107698 -0.09605,0.107698 -0.09605,0.291075 z m -2.936945,-1.499039 h 0.285254 l -0.849941,1.295286 v 0.116431 h 0.684028 v -0.509383 h 0.261968 v 1.19341 h -0.261968 v -0.451167 h -0.945996 v -0.378398 z m 1.685305,-6.951597 -0.438323,0.321777 v 0.26657 l 0.398707,-0.281291 c 0.01131,-0.0078 0.02271,-0.01653 0.03403,-0.02629 0.01319,-0.0098 0.02576,-0.01916 0.03707,-0.02892 0.0132,-0.0098 0.02642,-0.02089 0.03962,-0.0326 h 0.0056 l -0.003,0.0205 v 0.04417 c 0,0.01757 -6.4e-4,0.03688 -0.0026,0.05836 v 0.05258 1.479017 h -0.545997 v 0.233973 H 53.58361 V 24.29365 h -0.45813 v -1.873877 z m 2.913846,0 v 2.10785 h 0.240239 v -0.278138 h 0.02285 c 0.02451,0.09761 0.0744,0.174057 0.149831,0.228714 0.07543,0.05271 0.17041,0.07886 0.285441,0.07886 0.07921,0 0.151238,-0.01436 0.215353,-0.04364 0.06412,-0.02928 0.118794,-0.07033 0.164053,-0.123032 0.04526,-0.05466 0.08011,-0.121185 0.104627,-0.199271 0.0264,-0.07809 0.03962,-0.165808 0.03962,-0.263415 v -0.410108 c 0,-0.0976 -0.01322,-0.18533 -0.03962,-0.263415 -0.02451,-0.07808 -0.05937,-0.143405 -0.104627,-0.196116 -0.04526,-0.05466 -0.09994,-0.0969 -0.164053,-0.126186 -0.06412,-0.02928 -0.136148,-0.04364 -0.215353,-0.04364 -0.115031,0 -0.210009,0.02736 -0.285441,0.08203 -0.07543,0.0527 -0.125319,0.127427 -0.149831,0.225034 h -0.02285 c 0.0019,-0.0371 0.0048,-0.07385 0.0086,-0.11094 0.0019,-0.03124 0.0026,-0.06476 0.0026,-0.09989 0.0019,-0.03709 0.003,-0.06889 0.003,-0.09622 v -0.46847 z m 3.767631,0 v 0.497387 h -0.452543 v 0.240282 h 0.452543 v 0.954815 c 0,0.124937 0.03965,0.225138 0.11885,0.30127 0.0792,0.07614 0.185583,0.114096 0.319473,0.114096 h 0.396163 v -0.239756 h -0.396163 c -0.05657,0 -0.101663,-0.01556 -0.135612,-0.04679 -0.03206,-0.03123 -0.04825,-0.07416 -0.04825,-0.128815 v -0.954815 h 0.608469 v -0.240284 h -0.60847 v -0.497387 z m 1.923433,0.468469 c -0.194235,0 -0.346866,0.05473 -0.45813,0.164044 -0.109373,0.10932 -0.164051,0.259283 -0.164051,0.450593 v 0.439551 c 0,0.19131 0.05468,0.341272 0.164051,0.450593 0.111264,0.10932 0.263895,0.164042 0.45813,0.164042 0.156519,0 0.28933,-0.03488 0.398705,-0.105156 0.11126,-0.07027 0.18329,-0.167244 0.215351,-0.290229 h -0.254968 c -0.03017,0.05271 -0.07592,0.09308 -0.13815,0.120403 -0.06222,0.02733 -0.136078,0.04101 -0.220938,0.04101 -0.115033,0 -0.205726,-0.03541 -0.271729,-0.105681 -0.06411,-0.07028 -0.09599,-0.166721 -0.09599,-0.289705 V 23.79889 h 0.989904 v -0.29601 c 0,-0.19131 -0.05532,-0.341273 -0.166591,-0.450593 -0.109376,-0.10932 -0.261358,-0.164044 -0.455591,-0.164044 z m -4.101325,0.02892 0.602375,1.493739 -0.21789,0.614636 h 0.271728 l 0.757792,-2.108375 h -0.274269 l -0.328107,0.925372 c -0.01509,0.0449 -0.02714,0.08714 -0.03657,0.126187 -0.0094,0.03904 -0.01722,0.07392 -0.02285,0.105156 -0.0076,0.03513 -0.01233,0.06746 -0.01422,0.09674 h -0.0198 c -0.0019,-0.02928 -0.0067,-0.06229 -0.01422,-0.09937 -0.0057,-0.02928 -0.01409,-0.06349 -0.0254,-0.102527 -0.0094,-0.03905 -0.02264,-0.08129 -0.03962,-0.126187 l -0.35604,-0.925372 z m -0.987367,0.199271 c 0.115035,0 0.204569,0.03541 0.268683,0.105682 0.06411,0.07027 0.096,0.168597 0.096,0.295487 v 0.410108 c 0,0.122984 -0.03253,0.220629 -0.09853,0.292859 -0.06411,0.07223 -0.152993,0.10831 -0.266143,0.10831 -0.105604,0 -0.190344,-0.03608 -0.254459,-0.10831 -0.06222,-0.07223 -0.09346,-0.169875 -0.09346,-0.292859 v -0.410108 c 0,-0.122985 0.03122,-0.22063 0.09346,-0.292859 0.06412,-0.07223 0.148857,-0.10831 0.254459,-0.10831 z m 5.088692,0.0058 c 0.116919,-1e-6 0.207613,0.03353 0.27173,0.0999 0.06411,0.06637 0.096,0.159733 0.096,0.280766 v 0.07624 H 61.03711 v -0.07624 c 0,-0.121035 0.03187,-0.214395 0.096,-0.280766 0.06412,-0.06637 0.154811,-0.0999 0.271729,-0.0999 z M 59.73585,17.204039 c -0.05469,0 -0.09913,0.01676 -0.133071,0.04995 -0.03394,0.03318 -0.05079,0.0761 -0.05079,0.128815 0,0.05466 0.01685,0.09758 0.05079,0.128816 0.03395,0.02928 0.07838,0.04364 0.133071,0.04364 h 0.05638 c 0.05469,0 0.09913,-0.01556 0.133072,-0.04679 0.03394,-0.03124 0.05079,-0.07295 0.05079,-0.125662 0,-0.0527 -0.01685,-0.09563 -0.05079,-0.128815 -0.03395,-0.03319 -0.07838,-0.04995 -0.133072,-0.04995 z m -5.253252,0.131971 -0.438322,0.321777 v 0.26657 l 0.398707,-0.281291 c 0.01131,-0.0078 0.02271,-0.01653 0.03403,-0.02629 0.0132,-0.0098 0.02576,-0.01916 0.03707,-0.02892 0.0132,-0.0098 0.02642,-0.02089 0.03962,-0.0326 h 0.0056 l -0.003,0.0205 v 0.04417 c 0,0.01757 -6.39e-4,0.03688 -0.0026,0.05836 v 0.0531 1.47849 h -0.545998 v 0.234497 H 55.26629 V 19.20988 h -0.458129 v -1.873877 z m 2.913847,0 v 2.108374 h 0.240239 v -0.278136 h 0.02285 c 0.02451,0.0976 0.0744,0.173524 0.149831,0.228187 0.07544,0.05271 0.17041,0.07887 0.285441,0.07887 0.07921,0 0.151238,-0.01436 0.215352,-0.04364 0.06412,-0.02928 0.118795,-0.07033 0.164053,-0.123032 0.04526,-0.05466 0.08011,-0.121185 0.104628,-0.199271 0.0264,-0.07809 0.03962,-0.165808 0.03962,-0.263415 v -0.410108 c 0,-0.0976 -0.01322,-0.18533 -0.03962,-0.263415 -0.02451,-0.07809 -0.05937,-0.143405 -0.104628,-0.196116 -0.04526,-0.05466 -0.09994,-0.0969 -0.164053,-0.126187 -0.06412,-0.02928 -0.136147,-0.04364 -0.215352,-0.04364 -0.115031,0 -0.210008,0.02736 -0.285441,0.08202 -0.07543,0.0527 -0.125318,0.127951 -0.149831,0.225559 h -0.02285 c 0.0019,-0.0371 0.0048,-0.07438 0.0086,-0.111465 0.0019,-0.03124 0.0026,-0.06423 0.0026,-0.09937 0.0019,-0.03709 0.003,-0.06941 0.003,-0.09675 v -0.468469 z m 3.767632,0 v 0.497913 h -0.452544 v 0.239755 h 0.452544 v 0.954815 c 0,0.124937 0.03965,0.225138 0.118849,0.301272 0.0792,0.07614 0.185583,0.114619 0.319473,0.114619 h 0.396163 v -0.24028 h -0.396163 c -0.05657,0 -0.101663,-0.01556 -0.135612,-0.04679 -0.03206,-0.03123 -0.04825,-0.07416 -0.04825,-0.128816 V 18.07368 h 0.608468 V 17.833923 H 61.418538 V 17.33601 Z m -1.97981,0.497913 v 0.239755 h 0.494698 v 1.130426 H 59.11316 v 0.24028 h 1.287029 v -0.24028 h -0.466763 v -1.370181 z m -1.185449,0.198745 c 0.115034,0 0.204568,0.03541 0.268682,0.105681 0.06411,0.07027 0.096,0.168598 0.096,0.295488 v 0.410107 c 0,0.122986 -0.03253,0.22063 -0.09853,0.29286 -0.06411,0.07223 -0.152993,0.10831 -0.266143,0.10831 -0.105605,0 -0.190344,-0.03608 -0.254459,-0.10831 -0.06223,-0.07223 -0.09346,-0.169874 -0.09346,-0.29286 v -0.410107 c 0,-0.122986 0.03122,-0.22063 0.09346,-0.292859 0.06412,-0.07223 0.148857,-0.10831 0.254459,-0.10831 z"
           inkscape:connector-curvature="0" />
      </g>
    </g>
    <g
       aria-label="0000 0000"
       style="font-style:normal;font-variant:normal;font-weight:normal;font-stretch:normal;font-size:10.58333302px;line-height:1.25;font-family:'JetBrains Mono';-inkscape-font-specification:'JetBrains Mono';letter-spacing:0px;word-spacing:0px;fill:#a9a9a9;fill-opacity:1;stroke:none;stroke-width:0.26458332"
       id="g1000"
       transform="translate(-49.741692,0.58220743)" />
    <g
       transform="translate(-49.741692,11.165542)"
       id="g1036"
       style="font-style:normal;font-variant:normal;font-weight:normal;font-stretch:normal;font-size:10.58333302px;line-height:1.25;font-family:'JetBrains Mono';-inkscape-font-specification:'JetBrains Mono';letter-spacing:0px;word-spacing:0px;fill:#a9a9a9;fill-opacity:1;stroke:none;stroke-width:0.26458332"
       aria-label="0000 0000" />
    <g
       aria-label="0000 0000"
       style="font-style:normal;font-variant:normal;font-weight:normal;font-stretch:normal;font-size:10.58333302px;line-height:1.25;font-family:'JetBrains Mono';-inkscape-font-specification:'JetBrains Mono';letter-spacing:0px;word-spacing:0px;fill:#a9a9a9;fill-opacity:1;stroke:none;stroke-width:0.5;stroke-miterlimit:4;stroke-dasharray:none"
       id="g1072"
       transform="translate(-50.384251,266.45084)">
      <path
         id="path1070"
         style="font-style:normal;font-variant:normal;font-weight:normal;font-stretch:normal;font-family:'JetBrains Mono';-inkscape-font-specification:'JetBrains Mono';fill:#a9a9a9;stroke-width:0.5;stroke-miterlimit:4;stroke-dasharray:none"
         d="m 123.08404,18.461784 q 0,-0.518583 0.15875,-0.941916 0.16933,-0.423334 0.46566,-0.719667 0.30692,-0.296333 0.73025,-0.455083 0.43392,-0.15875 0.97367,-0.15875 0.53975,0 0.96308,0.15875 0.43392,0.15875 0.73025,0.455083 0.30692,0.296333 0.46567,0.719667 0.16933,0.423333 0.16933,0.941916 v 3.280834 q 0,0.518583 -0.16933,0.941916 -0.15875,0.41275 -0.46567,0.709084 -0.29633,0.296333 -0.73025,0.465666 -0.43391,0.15875 -0.96308,0.15875 -0.53975,0 -0.97367,-0.15875 -0.42333,-0.15875 -0.73025,-0.455083 -0.29633,-0.296333 -0.46566,-0.719667 -0.15875,-0.423333 -0.15875,-0.941916 z m 0.9525,3.280834 q 0,0.656166 0.37041,1.04775 0.37042,0.381 1.00542,0.381 0.635,0 1.00542,-0.381 0.37041,-0.391584 0.37041,-1.04775 v -3.280834 q 0,-0.656166 -0.37041,-1.037166 -0.37042,-0.391584 -1.00542,-0.391584 -0.635,0 -1.00542,0.391584 -0.37041,0.381 -0.37041,1.037166 z m 0.84666,-2.434167 q 0,-0.264583 0.13759,-0.423333 0.14816,-0.15875 0.39158,-0.15875 0.24342,0 0.381,0.15875 0.14817,0.15875 0.14817,0.423333 v 1.693333 q 0,0.264584 -0.14817,0.423334 -0.13758,0.15875 -0.381,0.15875 -0.24342,0 -0.39158,-0.15875 -0.13759,-0.15875 -0.13759,-0.423334 z m -8.14915,-0.846667 q 0,-0.518583 0.15875,-0.941916 0.16934,-0.423334 0.46567,-0.719667 0.30692,-0.296333 0.73025,-0.455083 0.43392,-0.15875 0.97367,-0.15875 0.53975,0 0.96308,0.15875 0.43392,0.15875 0.73025,0.455083 0.30692,0.296333 0.46567,0.719667 0.16933,0.423333 0.16933,0.941916 v 3.280834 q 0,0.518583 -0.16933,0.941916 -0.15875,0.41275 -0.46567,0.709084 -0.29633,0.296333 -0.73025,0.465666 -0.43392,0.15875 -0.96308,0.15875 -0.53975,0 -0.97367,-0.15875 -0.42333,-0.15875 -0.73025,-0.455083 -0.29633,-0.296333 -0.46567,-0.719667 -0.15875,-0.423333 -0.15875,-0.941916 z m 0.9525,3.280834 q 0,0.656166 0.37042,1.04775 0.37042,0.381 1.00542,0.381 0.635,0 1.00541,-0.381 0.37042,-0.391584 0.37042,-1.04775 v -3.280834 q 0,-0.656166 -0.37042,-1.037166 -0.37041,-0.391584 -1.00541,-0.391584 -0.635,0 -1.00542,0.391584 -0.37042,0.381 -0.37042,1.037166 z m 0.84667,-2.434167 q 0,-0.264583 0.13758,-0.423333 0.14817,-0.15875 0.39159,-0.15875 0.24341,0 0.381,0.15875 0.14816,0.15875 0.14816,0.423333 v 1.693333 q 0,0.264584 -0.14816,0.423334 -0.13759,0.15875 -0.381,0.15875 -0.24342,0 -0.39159,-0.15875 -0.13758,-0.15875 -0.13758,-0.423334 z m -8.14915,-0.846667 q 0,-0.518583 0.15875,-0.941916 0.16933,-0.423334 0.46567,-0.719667 0.30691,-0.296333 0.73025,-0.455083 0.43391,-0.15875 0.97366,-0.15875 0.53975,0 0.96309,0.15875 0.43391,0.15875 0.73025,0.455083 0.30691,0.296333 0.46566,0.719667 0.16934,0.423333 0.16934,0.941916 v 3.280834 q 0,0.518583 -0.16934,0.941916 -0.15875,0.41275 -0.46566,0.709084 -0.29634,0.296333 -0.73025,0.465666 -0.43392,0.15875 -0.96309,0.15875 -0.53975,0 -0.97366,-0.15875 -0.42334,-0.15875 -0.73025,-0.455083 -0.29634,-0.296333 -0.46567,-0.719667 -0.15875,-0.423333 -0.15875,-0.941916 z m 0.9525,3.280834 q 0,0.656166 0.37042,1.04775 0.37041,0.381 1.00541,0.381 0.635,0 1.00542,-0.381 0.37042,-0.391584 0.37042,-1.04775 v -3.280834 q 0,-0.656166 -0.37042,-1.037166 -0.37042,-0.391584 -1.00542,-0.391584 -0.635,0 -1.00541,0.391584 -0.37042,0.381 -0.37042,1.037166 z m 0.84667,-2.434167 q 0,-0.264583 0.13758,-0.423333 0.14817,-0.15875 0.39158,-0.15875 0.24342,0 0.381,0.15875 0.14817,0.15875 0.14817,0.423333 v 1.693333 q 0,0.264584 -0.14817,0.423334 -0.13758,0.15875 -0.381,0.15875 -0.24341,0 -0.39158,-0.15875 -0.13758,-0.15875 -0.13758,-0.423334 z m -8.14916,-0.846667 q 0,-0.518583 0.15875,-0.941916 0.16934,-0.423334 0.46567,-0.719667 0.30692,-0.296333 0.73025,-0.455083 0.43392,-0.15875 0.97367,-0.15875 0.53975,0 0.96308,0.15875 0.43392,0.15875 0.73025,0.455083 0.30692,0.296333 0.46567,0.719667 0.16933,0.423333 0.16933,0.941916 v 3.280834 q 0,0.518583 -0.16933,0.941916 -0.15875,0.41275 -0.46567,0.709084 -0.29633,0.296333 -0.73025,0.465666 -0.43392,0.15875 -0.96308,0.15875 -0.53975,0 -0.97367,-0.15875 -0.42333,-0.15875 -0.73025,-0.455083 -0.29633,-0.296333 -0.46567,-0.719667 -0.15875,-0.423333 -0.15875,-0.941916 z m 0.9525,3.280834 q 0,0.656166 0.37042,1.04775 0.37042,0.381 1.00542,0.381 0.635,0 1.00541,-0.381 0.37042,-0.391584 0.37042,-1.04775 v -3.280834 q 0,-0.656166 -0.37042,-1.037166 -0.37041,-0.391584 -1.00541,-0.391584 -0.635,0 -1.00542,0.391584 -0.37042,0.381 -0.37042,1.037166 z m 0.84667,-2.434167 q 0,-0.264583 0.13758,-0.423333 0.14817,-0.15875 0.39159,-0.15875 0.24341,0 0.381,0.15875 0.14816,0.15875 0.14816,0.423333 v 1.693333 q 0,0.264584 -0.14816,0.423334 -0.13759,0.15875 -0.381,0.15875 -0.24342,0 -0.39159,-0.15875 -0.13758,-0.15875 -0.13758,-0.423334 z M 91.334118,18.461784 q 0,-0.518583 0.15875,-0.941916 0.169334,-0.423334 0.465667,-0.719667 0.306916,-0.296333 0.73025,-0.455083 0.433916,-0.15875 0.973666,-0.15875 0.53975,0 0.963084,0.15875 0.433916,0.15875 0.73025,0.455083 0.306916,0.296333 0.465666,0.719667 0.169334,0.423333 0.169334,0.941916 v 3.280834 q 0,0.518583 -0.169334,0.941916 -0.15875,0.41275 -0.465666,0.709084 -0.296334,0.296333 -0.73025,0.465666 -0.433917,0.15875 -0.963084,0.15875 -0.53975,0 -0.973666,-0.15875 -0.423334,-0.15875 -0.73025,-0.455083 -0.296333,-0.296333 -0.465667,-0.719667 -0.15875,-0.423333 -0.15875,-0.941916 z m 0.9525,3.280834 q 0,0.656166 0.370417,1.04775 0.370416,0.381 1.005416,0.381 0.635,0 1.005417,-0.381 0.370417,-0.391584 0.370417,-1.04775 v -3.280834 q 0,-0.656166 -0.370417,-1.037166 -0.370417,-0.391584 -1.005417,-0.391584 -0.635,0 -1.005416,0.391584 -0.370417,0.381 -0.370417,1.037166 z m 0.846667,-2.434167 q 0,-0.264583 0.137583,-0.423333 0.148167,-0.15875 0.391583,-0.15875 0.243417,0 0.381,0.15875 0.148167,0.15875 0.148167,0.423333 v 1.693333 q 0,0.264584 -0.148167,0.423334 -0.137583,0.15875 -0.381,0.15875 -0.243416,0 -0.391583,-0.15875 -0.137583,-0.15875 -0.137583,-0.423334 z m -8.149151,-0.846667 q 0,-0.518583 0.15875,-0.941916 0.169333,-0.423334 0.465667,-0.719667 0.306916,-0.296333 0.73025,-0.455083 0.433916,-0.15875 0.973666,-0.15875 0.53975,0 0.963084,0.15875 0.433916,0.15875 0.73025,0.455083 0.306916,0.296333 0.465666,0.719667 0.169334,0.423333 0.169334,0.941916 v 3.280834 q 0,0.518583 -0.169334,0.941916 -0.15875,0.41275 -0.465666,0.709084 -0.296334,0.296333 -0.73025,0.465666 -0.433917,0.15875 -0.963084,0.15875 -0.53975,0 -0.973666,-0.15875 -0.423334,-0.15875 -0.73025,-0.455083 -0.296334,-0.296333 -0.465667,-0.719667 -0.15875,-0.423333 -0.15875,-0.941916 z m 0.9525,3.280834 q 0,0.656166 0.370417,1.04775 0.370416,0.381 1.005416,0.381 0.635,0 1.005417,-0.381 0.370417,-0.391584 0.370417,-1.04775 v -3.280834 q 0,-0.656166 -0.370417,-1.037166 -0.370417,-0.391584 -1.005417,-0.391584 -0.635,0 -1.005416,0.391584 -0.370417,0.381 -0.370417,1.037166 z m 0.846667,-2.434167 q 0,-0.264583 0.137583,-0.423333 0.148167,-0.15875 0.391583,-0.15875 0.243417,0 0.381,0.15875 0.148167,0.15875 0.148167,0.423333 v 1.693333 q 0,0.264584 -0.148167,0.423334 -0.137583,0.15875 -0.381,0.15875 -0.243416,0 -0.391583,-0.15875 -0.137583,-0.15875 -0.137583,-0.423334 z M 78.63415,18.461784 q 0,-0.518583 0.15875,-0.941916 0.169334,-0.423334 0.465667,-0.719667 0.306917,-0.296333 0.73025,-0.455083 0.433917,-0.15875 0.973667,-0.15875 0.53975,0 0.963083,0.15875 0.433917,0.15875 0.73025,0.455083 0.306917,0.296333 0.465667,0.719667 0.169333,0.423333 0.169333,0.941916 v 3.280834 q 0,0.518583 -0.169333,0.941916 -0.15875,0.41275 -0.465667,0.709084 -0.296333,0.296333 -0.73025,0.465666 -0.433917,0.15875 -0.963083,0.15875 -0.53975,0 -0.973667,-0.15875 -0.423333,-0.15875 -0.73025,-0.455083 -0.296333,-0.296333 -0.465667,-0.719667 -0.15875,-0.423333 -0.15875,-0.941916 z m 0.9525,3.280834 q 0,0.656166 0.370417,1.04775 0.370417,0.381 1.005417,0.381 0.635,0 1.005416,-0.381 0.370417,-0.391584 0.370417,-1.04775 v -3.280834 q 0,-0.656166 -0.370417,-1.037166 -0.370416,-0.391584 -1.005416,-0.391584 -0.635,0 -1.005417,0.391584 -0.370417,0.381 -0.370417,1.037166 z m 0.846667,-2.434167 q 0,-0.264583 0.137583,-0.423333 0.148167,-0.15875 0.391584,-0.15875 0.243416,0 0.381,0.15875 0.148166,0.15875 0.148166,0.423333 v 1.693333 q 0,0.264584 -0.148166,0.423334 -0.137584,0.15875 -0.381,0.15875 -0.243417,0 -0.391584,-0.15875 -0.137583,-0.15875 -0.137583,-0.423334 z m -8.14915,-0.846667 q 0,-0.518583 0.15875,-0.941916 0.169333,-0.423334 0.465666,-0.719667 0.306917,-0.296333 0.73025,-0.455083 0.433917,-0.15875 0.973667,-0.15875 0.53975,0 0.963083,0.15875 0.433917,0.15875 0.73025,0.455083 0.306917,0.296333 0.465667,0.719667 0.169333,0.423333 0.169333,0.941916 v 3.280834 q 0,0.518583 -0.169333,0.941916 -0.15875,0.41275 -0.465667,0.709084 -0.296333,0.296333 -0.73025,0.465666 -0.433916,0.15875 -0.963083,0.15875 -0.53975,0 -0.973667,-0.15875 -0.423333,-0.15875 -0.73025,-0.455083 -0.296333,-0.296333 -0.465666,-0.719667 -0.15875,-0.423333 -0.15875,-0.941916 z m 0.9525,3.280834 q 0,0.656166 0.370416,1.04775 0.370417,0.381 1.005417,0.381 0.635,0 1.005417,-0.381 0.370416,-0.391584 0.370416,-1.04775 v -3.280834 q 0,-0.656166 -0.370416,-1.037166 -0.370417,-0.391584 -1.005417,-0.391584 -0.635,0 -1.005417,0.391584 -0.370416,0.381 -0.370416,1.037166 z m 0.846666,-2.434167 q 0,-0.264583 0.137584,-0.423333 0.148166,-0.15875 0.391583,-0.15875 0.243417,0 0.381,0.15875 0.148167,0.15875 0.148167,0.423333 v 1.693333 q 0,0.264584 -0.148167,0.423334 -0.137583,0.15875 -0.381,0.15875 -0.243417,0 -0.391583,-0.15875 -0.137584,-0.15875 -0.137584,-0.423334 z M 123.08404,7.878444 q 0,-0.518583 0.15875,-0.941916 0.16933,-0.423334 0.46566,-0.719667 0.30692,-0.296333 0.73025,-0.455083 0.43392,-0.15875 0.97367,-0.15875 0.53975,0 0.96308,0.15875 0.43392,0.15875 0.73025,0.455083 0.30692,0.296333 0.46567,0.719667 0.16933,0.423333 0.16933,0.941916 v 3.280834 q 0,0.518583 -0.16933,0.941916 -0.15875,0.41275 -0.46567,0.709084 -0.29633,0.296333 -0.73025,0.465666 -0.43391,0.15875 -0.96308,0.15875 -0.53975,0 -0.97367,-0.15875 -0.42333,-0.15875 -0.73025,-0.455083 -0.29633,-0.296333 -0.46566,-0.719667 -0.15875,-0.423333 -0.15875,-0.941916 z m 0.9525,3.280834 q 0,0.656166 0.37041,1.04775 0.37042,0.381 1.00542,0.381 0.635,0 1.00542,-0.381 0.37041,-0.391584 0.37041,-1.04775 V 7.878444 q 0,-0.656166 -0.37041,-1.037166 -0.37042,-0.391584 -1.00542,-0.391584 -0.635,0 -1.00542,0.391584 -0.37041,0.381 -0.37041,1.037166 z m 0.84666,-2.434167 q 0,-0.264583 0.13759,-0.423333 0.14816,-0.15875 0.39158,-0.15875 0.24342,0 0.381,0.15875 0.14817,0.15875 0.14817,0.423333 v 1.693333 q 0,0.264584 -0.14817,0.423334 -0.13758,0.15875 -0.381,0.15875 -0.24342,0 -0.39158,-0.15875 -0.13759,-0.15875 -0.13759,-0.423334 z m -8.14915,-0.846667 q 0,-0.518583 0.15875,-0.941916 0.16934,-0.423334 0.46567,-0.719667 0.30692,-0.296333 0.73025,-0.455083 0.43392,-0.15875 0.97367,-0.15875 0.53975,0 0.96308,0.15875 0.43392,0.15875 0.73025,0.455083 0.30692,0.296333 0.46567,0.719667 0.16933,0.423333 0.16933,0.941916 v 3.280834 q 0,0.518583 -0.16933,0.941916 -0.15875,0.41275 -0.46567,0.709084 -0.29633,0.296333 -0.73025,0.465666 -0.43392,0.15875 -0.96308,0.15875 -0.53975,0 -0.97367,-0.15875 -0.42333,-0.15875 -0.73025,-0.455083 -0.29633,-0.296333 -0.46567,-0.719667 -0.15875,-0.423333 -0.15875,-0.941916 z m 0.9525,3.280834 q 0,0.656166 0.37042,1.04775 0.37042,0.381 1.00542,0.381 0.635,0 1.00541,-0.381 0.37042,-0.391584 0.37042,-1.04775 V 7.878444 q 0,-0.656166 -0.37042,-1.037166 -0.37041,-0.391584 -1.00541,-0.391584 -0.635,0 -1.00542,0.391584 -0.37042,0.381 -0.37042,1.037166 z m 0.84667,-2.434167 q 0,-0.264583 0.13758,-0.423333 0.14817,-0.15875 0.39159,-0.15875 0.24341,0 0.381,0.15875 0.14816,0.15875 0.14816,0.423333 v 1.693333 q 0,0.264584 -0.14816,0.423334 -0.13759,0.15875 -0.381,0.15875 -0.24342,0 -0.39159,-0.15875 -0.13758,-0.15875 -0.13758,-0.423334 z m -8.14915,-0.846667 q 0,-0.518583 0.15875,-0.941916 0.16933,-0.423334 0.46567,-0.719667 0.30691,-0.296333 0.73025,-0.455083 0.43391,-0.15875 0.97366,-0.15875 0.53975,0 0.96309,0.15875 0.43391,0.15875 0.73025,0.455083 0.30691,0.296333 0.46566,0.719667 0.16934,0.423333 0.16934,0.941916 v 3.280834 q 0,0.518583 -0.16934,0.941916 -0.15875,0.41275 -0.46566,0.709084 -0.29634,0.296333 -0.73025,0.465666 -0.43392,0.15875 -0.96309,0.15875 -0.53975,0 -0.97366,-0.15875 -0.42334,-0.15875 -0.73025,-0.455083 -0.29634,-0.296333 -0.46567,-0.719667 -0.15875,-0.423333 -0.15875,-0.941916 z m 0.9525,3.280834 q 0,0.656166 0.37042,1.04775 0.37041,0.381 1.00541,0.381 0.635,0 1.00542,-0.381 0.37042,-0.391584 0.37042,-1.04775 V 7.878444 q 0,-0.656166 -0.37042,-1.037166 -0.37042,-0.391584 -1.00542,-0.391584 -0.635,0 -1.00541,0.391584 -0.37042,0.381 -0.37042,1.037166 z m 0.84667,-2.434167 q 0,-0.264583 0.13758,-0.423333 0.14817,-0.15875 0.39158,-0.15875 0.24342,0 0.381,0.15875 0.14817,0.15875 0.14817,0.423333 v 1.693333 q 0,0.264584 -0.14817,0.423334 -0.13758,0.15875 -0.381,0.15875 -0.24341,0 -0.39158,-0.15875 -0.13758,-0.15875 -0.13758,-0.423334 z m -8.14916,-0.846667 q 0,-0.518583 0.15875,-0.941916 0.16934,-0.423334 0.46567,-0.719667 0.30692,-0.296333 0.73025,-0.455083 0.43392,-0.15875 0.97367,-0.15875 0.53975,0 0.96308,0.15875 0.43392,0.15875 0.73025,0.455083 0.30692,0.296333 0.46567,0.719667 0.16933,0.423333 0.16933,0.941916 v 3.280834 q 0,0.518583 -0.16933,0.941916 -0.15875,0.41275 -0.46567,0.709084 -0.29633,0.296333 -0.73025,0.465666 -0.43392,0.15875 -0.96308,0.15875 -0.53975,0 -0.97367,-0.15875 -0.42333,-0.15875 -0.73025,-0.455083 -0.29633,-0.296333 -0.46567,-0.719667 -0.15875,-0.423333 -0.15875,-0.941916 z m 0.9525,3.280834 q 0,0.656166 0.37042,1.04775 0.37042,0.381 1.00542,0.381 0.635,0 1.00541,-0.381 0.37042,-0.391584 0.37042,-1.04775 V 7.878444 q 0,-0.656166 -0.37042,-1.037166 -0.37041,-0.391584 -1.00541,-0.391584 -0.635,0 -1.00542,0.391584 -0.37042,0.381 -0.37042,1.037166 z m 0.84667,-2.434167 q 0,-0.264583 0.13758,-0.423333 0.14817,-0.15875 0.39159,-0.15875 0.24341,0 0.381,0.15875 0.14816,0.15875 0.14816,0.423333 v 1.693333 q 0,0.264584 -0.14816,0.423334 -0.13759,0.15875 -0.381,0.15875 -0.24342,0 -0.39159,-0.15875 -0.13758,-0.15875 -0.13758,-0.423334 z M 91.334118,7.878444 q 0,-0.518583 0.15875,-0.941916 0.169334,-0.423334 0.465667,-0.719667 0.306916,-0.296333 0.73025,-0.455083 0.433916,-0.15875 0.973666,-0.15875 0.53975,0 0.963084,0.15875 0.433916,0.15875 0.73025,0.455083 0.306916,0.296333 0.465666,0.719667 0.169334,0.423333 0.169334,0.941916 v 3.280834 q 0,0.518583 -0.169334,0.941916 -0.15875,0.41275 -0.465666,0.709084 -0.296334,0.296333 -0.73025,0.465666 -0.433917,0.15875 -0.963084,0.15875 -0.53975,0 -0.973666,-0.15875 -0.423334,-0.15875 -0.73025,-0.455083 -0.296333,-0.296333 -0.465667,-0.719667 -0.15875,-0.423333 -0.15875,-0.941916 z m 0.9525,3.280834 q 0,0.656166 0.370417,1.04775 0.370416,0.381 1.005416,0.381 0.635,0 1.005417,-0.381 0.370417,-0.391584 0.370417,-1.04775 V 7.878444 q 0,-0.656166 -0.370417,-1.037166 -0.370417,-0.391584 -1.005417,-0.391584 -0.635,0 -1.005416,0.391584 -0.370417,0.381 -0.370417,1.037166 z m 0.846667,-2.434167 q 0,-0.264583 0.137583,-0.423333 0.148167,-0.15875 0.391583,-0.15875 0.243417,0 0.381,0.15875 0.148167,0.15875 0.148167,0.423333 v 1.693333 q 0,0.264584 -0.148167,0.423334 -0.137583,0.15875 -0.381,0.15875 -0.243416,0 -0.391583,-0.15875 -0.137583,-0.15875 -0.137583,-0.423334 z M 84.984134,7.878444 q 0,-0.518583 0.15875,-0.941916 0.169333,-0.423334 0.465667,-0.719667 0.306916,-0.296333 0.73025,-0.455083 0.433916,-0.15875 0.973666,-0.15875 0.53975,0 0.963084,0.15875 0.433916,0.15875 0.73025,0.455083 0.306916,0.296333 0.465666,0.719667 0.169334,0.423333 0.169334,0.941916 v 3.280834 q 0,0.518583 -0.169334,0.941916 -0.15875,0.41275 -0.465666,0.709084 -0.296334,0.296333 -0.73025,0.465666 -0.433917,0.15875 -0.963084,0.15875 -0.53975,0 -0.973666,-0.15875 -0.423334,-0.15875 -0.73025,-0.455083 -0.296334,-0.296333 -0.465667,-0.719667 -0.15875,-0.423333 -0.15875,-0.941916 z m 0.9525,3.280834 q 0,0.656166 0.370417,1.04775 0.370416,0.381 1.005416,0.381 0.635,0 1.005417,-0.381 0.370417,-0.391584 0.370417,-1.04775 V 7.878444 q 0,-0.656166 -0.370417,-1.037166 -0.370417,-0.391584 -1.005417,-0.391584 -0.635,0 -1.005416,0.391584 -0.370417,0.381 -0.370417,1.037166 z m 0.846667,-2.434167 q 0,-0.264583 0.137583,-0.423333 0.148167,-0.15875 0.391583,-0.15875 0.243417,0 0.381,0.15875 0.148167,0.15875 0.148167,0.423333 v 1.693333 q 0,0.264584 -0.148167,0.423334 -0.137583,0.15875 -0.381,0.15875 -0.243416,0 -0.391583,-0.15875 -0.137583,-0.15875 -0.137583,-0.423334 z M 78.63415,7.878444 q 0,-0.518583 0.15875,-0.941916 0.169334,-0.423334 0.465667,-0.719667 0.306917,-0.296333 0.73025,-0.455083 0.433917,-0.15875 0.973667,-0.15875 0.53975,0 0.963083,0.15875 0.433917,0.15875 0.73025,0.455083 0.306917,0.296333 0.465667,0.719667 0.169333,0.423333 0.169333,0.941916 v 3.280834 q 0,0.518583 -0.169333,0.941916 -0.15875,0.41275 -0.465667,0.709084 -0.296333,0.296333 -0.73025,0.465666 -0.433917,0.15875 -0.963083,0.15875 -0.53975,0 -0.973667,-0.15875 -0.423333,-0.15875 -0.73025,-0.455083 -0.296333,-0.296333 -0.465667,-0.719667 -0.15875,-0.423333 -0.15875,-0.941916 z m 0.9525,3.280834 q 0,0.656166 0.370417,1.04775 0.370417,0.381 1.005417,0.381 0.635,0 1.005416,-0.381 0.370417,-0.391584 0.370417,-1.04775 V 7.878444 q 0,-0.656166 -0.370417,-1.037166 -0.370416,-0.391584 -1.005416,-0.391584 -0.635,0 -1.005417,0.391584 -0.370417,0.381 -0.370417,1.037166 z m 0.846667,-2.434167 q 0,-0.264583 0.137583,-0.423333 0.148167,-0.15875 0.391584,-0.15875 0.243416,0 0.381,0.15875 0.148166,0.15875 0.148166,0.423333 v 1.693333 q 0,0.264584 -0.148166,0.423334 -0.137584,0.15875 -0.381,0.15875 -0.243417,0 -0.391584,-0.15875 -0.137583,-0.15875 -0.137583,-0.423334 z m -8.14915,-0.846667 q 0,-0.518583 0.15875,-0.941916 0.169333,-0.423334 0.465666,-0.719667 0.306917,-0.296333 0.73025,-0.455083 0.433917,-0.15875 0.973667,-0.15875 0.53975,0 0.963083,0.15875 0.433917,0.15875 0.73025,0.455083 0.306917,0.296333 0.465667,0.719667 0.169333,0.423333 0.169333,0.941916 v 3.280834 q 0,0.518583 -0.169333,0.941916 -0.15875,0.41275 -0.465667,0.709084 -0.296333,0.296333 -0.73025,0.465666 -0.433916,0.15875 -0.963083,0.15875 -0.53975,0 -0.973667,-0.15875 -0.423333,-0.15875 -0.73025,-0.455083 -0.296333,-0.296333 -0.465666,-0.719667 -0.15875,-0.423333 -0.15875,-0.941916 z m 0.9525,3.280834 q 0,0.656166 0.370416,1.04775 0.370417,0.381 1.005417,0.381 0.635,0 1.005417,-0.381 0.370416,-0.391584 0.370416,-1.04775 V 7.878444 q 0,-0.656166 -0.370416,-1.037166 Q 75.2475,6.449694 74.6125,6.449694 q -0.635,0 -1.005417,0.391584 -0.370416,0.381 -0.370416,1.037166 z m 0.846666,-2.434167 q 0,-0.264583 0.137584,-0.423333 0.148166,-0.15875 0.391583,-0.15875 0.243417,0 0.381,0.15875 0.148167,0.15875 0.148167,0.423333 v 1.693333 q 0,0.264584 -0.148167,0.423334 -0.137583,0.15875 -0.381,0.15875 -0.243417,0 -0.391583,-0.15875 -0.137584,-0.15875 -0.137584,-0.423334 z M 123.08404,-2.704896 q 0,-0.518583 0.15875,-0.941916 0.16933,-0.423334 0.46566,-0.719667 0.30692,-0.296333 0.73025,-0.455083 0.43392,-0.15875 0.97367,-0.15875 0.53975,0 0.96308,0.15875 0.43392,0.15875 0.73025,0.455083 0.30692,0.296333 0.46567,0.719667 0.16933,0.423333 0.16933,0.941916 v 3.280834 q 0,0.518583 -0.16933,0.941916 -0.15875,0.41275 -0.46567,0.709084 -0.29633,0.296333 -0.73025,0.465666 -0.43391,0.15875 -0.96308,0.15875 -0.53975,0 -0.97367,-0.15875 -0.42333,-0.15875 -0.73025,-0.455083 -0.29633,-0.296333 -0.46566,-0.719667 -0.15875,-0.423333 -0.15875,-0.941916 z m 0.9525,3.280834 q 0,0.656166 0.37041,1.04775 0.37042,0.381 1.00542,0.381 0.635,0 1.00542,-0.381 0.37041,-0.391584 0.37041,-1.04775 v -3.280834 q 0,-0.656166 -0.37041,-1.037166 -0.37042,-0.391584 -1.00542,-0.391584 -0.635,0 -1.00542,0.391584 -0.37041,0.381 -0.37041,1.037166 z m 0.84666,-2.434167 q 0,-0.264583 0.13759,-0.423333 0.14816,-0.15875 0.39158,-0.15875 0.24342,0 0.381,0.15875 0.14817,0.15875 0.14817,0.423333 v 1.693333 q 0,0.264584 -0.14817,0.423334 -0.13758,0.15875 -0.381,0.15875 -0.24342,0 -0.39158,-0.15875 -0.13759,-0.15875 -0.13759,-0.423334 z m -8.14915,-0.846667 q 0,-0.518583 0.15875,-0.941916 0.16934,-0.423334 0.46567,-0.719667 0.30692,-0.296333 0.73025,-0.455083 0.43392,-0.15875 0.97367,-0.15875 0.53975,0 0.96308,0.15875 0.43392,0.15875 0.73025,0.455083 0.30692,0.296333 0.46567,0.719667 0.16933,0.423333 0.16933,0.941916 v 3.280834 q 0,0.518583 -0.16933,0.941916 -0.15875,0.41275 -0.46567,0.709084 -0.29633,0.296333 -0.73025,0.465666 -0.43392,0.15875 -0.96308,0.15875 -0.53975,0 -0.97367,-0.15875 -0.42333,-0.15875 -0.73025,-0.455083 -0.29633,-0.296333 -0.46567,-0.719667 -0.15875,-0.423333 -0.15875,-0.941916 z m 0.9525,3.280834 q 0,0.656166 0.37042,1.04775 0.37042,0.381 1.00542,0.381 0.635,0 1.00541,-0.381 0.37042,-0.391584 0.37042,-1.04775 v -3.280834 q 0,-0.656166 -0.37042,-1.037166 -0.37041,-0.391584 -1.00541,-0.391584 -0.635,0 -1.00542,0.391584 -0.37042,0.381 -0.37042,1.037166 z m 0.84667,-2.434167 q 0,-0.264583 0.13758,-0.423333 0.14817,-0.15875 0.39159,-0.15875 0.24341,0 0.381,0.15875 0.14816,0.15875 0.14816,0.423333 v 1.693333 q 0,0.264584 -0.14816,0.423334 -0.13759,0.15875 -0.381,0.15875 -0.24342,0 -0.39159,-0.15875 -0.13758,-0.15875 -0.13758,-0.423334 z m -8.14915,-0.846667 q 0,-0.518583 0.15875,-0.941916 0.16933,-0.423334 0.46567,-0.719667 0.30691,-0.296333 0.73025,-0.455083 0.43391,-0.15875 0.97366,-0.15875 0.53975,0 0.96309,0.15875 0.43391,0.15875 0.73025,0.455083 0.30691,0.296333 0.46566,0.719667 0.16934,0.423333 0.16934,0.941916 v 3.280834 q 0,0.518583 -0.16934,0.941916 -0.15875,0.41275 -0.46566,0.709084 -0.29634,0.296333 -0.73025,0.465666 -0.43392,0.15875 -0.96309,0.15875 -0.53975,0 -0.97366,-0.15875 -0.42334,-0.15875 -0.73025,-0.455083 -0.29634,-0.296333 -0.46567,-0.719667 -0.15875,-0.423333 -0.15875,-0.941916 z m 0.9525,3.280834 q 0,0.656166 0.37042,1.04775 0.37041,0.381 1.00541,0.381 0.635,0 1.00542,-0.381 0.37042,-0.391584 0.37042,-1.04775 v -3.280834 q 0,-0.656166 -0.37042,-1.037166 -0.37042,-0.391584 -1.00542,-0.391584 -0.635,0 -1.00541,0.391584 -0.37042,0.381 -0.37042,1.037166 z m 0.84667,-2.434167 q 0,-0.264583 0.13758,-0.423333 0.14817,-0.15875 0.39158,-0.15875 0.24342,0 0.381,0.15875 0.14817,0.15875 0.14817,0.423333 v 1.693333 q 0,0.264584 -0.14817,0.423334 -0.13758,0.15875 -0.381,0.15875 -0.24341,0 -0.39158,-0.15875 -0.13758,-0.15875 -0.13758,-0.423334 z m -8.14916,-0.846667 q 0,-0.518583 0.15875,-0.941916 0.16934,-0.423334 0.46567,-0.719667 0.30692,-0.296333 0.73025,-0.455083 0.43392,-0.15875 0.97367,-0.15875 0.53975,0 0.96308,0.15875 0.43392,0.15875 0.73025,0.455083 0.30692,0.296333 0.46567,0.719667 0.16933,0.423333 0.16933,0.941916 v 3.280834 q 0,0.518583 -0.16933,0.941916 -0.15875,0.41275 -0.46567,0.709084 -0.29633,0.296333 -0.73025,0.465666 -0.43392,0.15875 -0.96308,0.15875 -0.53975,0 -0.97367,-0.15875 -0.42333,-0.15875 -0.73025,-0.455083 -0.29633,-0.296333 -0.46567,-0.719667 -0.15875,-0.423333 -0.15875,-0.941916 z m 0.9525,3.280834 q 0,0.656166 0.37042,1.04775 0.37042,0.381 1.00542,0.381 0.635,0 1.00541,-0.381 0.37042,-0.391584 0.37042,-1.04775 v -3.280834 q 0,-0.656166 -0.37042,-1.037166 -0.37041,-0.391584 -1.00541,-0.391584 -0.635,0 -1.00542,0.391584 -0.37042,0.381 -0.37042,1.037166 z m 0.84667,-2.434167 q 0,-0.264583 0.13758,-0.423333 0.14817,-0.15875 0.39159,-0.15875 0.24341,0 0.381,0.15875 0.14816,0.15875 0.14816,0.423333 v 1.693333 q 0,0.264584 -0.14816,0.423334 -0.13759,0.15875 -0.381,0.15875 -0.24342,0 -0.39159,-0.15875 -0.13758,-0.15875 -0.13758,-0.423334 z M 91.334118,-2.704896 q 0,-0.518583 0.15875,-0.941916 0.169334,-0.423334 0.465667,-0.719667 0.306916,-0.296333 0.73025,-0.455083 0.433916,-0.15875 0.973666,-0.15875 0.53975,0 0.963084,0.15875 0.433916,0.15875 0.73025,0.455083 0.306916,0.296333 0.465666,0.719667 0.169334,0.423333 0.169334,0.941916 v 3.280834 q 0,0.518583 -0.169334,0.941916 -0.15875,0.41275 -0.465666,0.709084 -0.296334,0.296333 -0.73025,0.465666 -0.433917,0.15875 -0.963084,0.15875 -0.53975,0 -0.973666,-0.15875 -0.423334,-0.15875 -0.73025,-0.455083 -0.296333,-0.296333 -0.465667,-0.719667 -0.15875,-0.423333 -0.15875,-0.941916 z m 0.9525,3.280834 q 0,0.656166 0.370417,1.04775 0.370416,0.381 1.005416,0.381 0.635,0 1.005417,-0.381 0.370417,-0.391584 0.370417,-1.04775 v -3.280834 q 0,-0.656166 -0.370417,-1.037166 -0.370417,-0.391584 -1.005417,-0.391584 -0.635,0 -1.005416,0.391584 -0.370417,0.381 -0.370417,1.037166 z m 0.846667,-2.434167 q 0,-0.264583 0.137583,-0.423333 0.148167,-0.15875 0.391583,-0.15875 0.243417,0 0.381,0.15875 0.148167,0.15875 0.148167,0.423333 v 1.693333 q 0,0.264584 -0.148167,0.423334 -0.137583,0.15875 -0.381,0.15875 -0.243416,0 -0.391583,-0.15875 -0.137583,-0.15875 -0.137583,-0.423334 z m -8.149151,-0.846667 q 0,-0.518583 0.15875,-0.941916 0.169333,-0.423334 0.465667,-0.719667 0.306916,-0.296333 0.73025,-0.455083 0.433916,-0.15875 0.973666,-0.15875 0.53975,0 0.963084,0.15875 0.433916,0.15875 0.73025,0.455083 0.306916,0.296333 0.465666,0.719667 0.169334,0.423333 0.169334,0.941916 v 3.280834 q 0,0.518583 -0.169334,0.941916 -0.15875,0.41275 -0.465666,0.709084 -0.296334,0.296333 -0.73025,0.465666 -0.433917,0.15875 -0.963084,0.15875 -0.53975,0 -0.973666,-0.15875 -0.423334,-0.15875 -0.73025,-0.455083 -0.296334,-0.296333 -0.465667,-0.719667 -0.15875,-0.423333 -0.15875,-0.941916 z m 0.9525,3.280834 q 0,0.656166 0.370417,1.04775 0.370416,0.381 1.005416,0.381 0.635,0 1.005417,-0.381 0.370417,-0.391584 0.370417,-1.04775 v -3.280834 q 0,-0.656166 -0.370417,-1.037166 -0.370417,-0.391584 -1.005417,-0.391584 -0.635,0 -1.005416,0.391584 -0.370417,0.381 -0.370417,1.037166 z m 0.846667,-2.434167 q 0,-0.264583 0.137583,-0.423333 0.148167,-0.15875 0.391583,-0.15875 0.243417,0 0.381,0.15875 0.148167,0.15875 0.148167,0.423333 v 1.693333 q 0,0.264584 -0.148167,0.423334 -0.137583,0.15875 -0.381,0.15875 -0.243416,0 -0.391583,-0.15875 -0.137583,-0.15875 -0.137583,-0.423334 z M 78.63415,-2.704896 q 0,-0.518583 0.15875,-0.941916 0.169334,-0.423334 0.465667,-0.719667 0.306917,-0.296333 0.73025,-0.455083 0.433917,-0.15875 0.973667,-0.15875 0.53975,0 0.963083,0.15875 0.433917,0.15875 0.73025,0.455083 0.306917,0.296333 0.465667,0.719667 0.169333,0.423333 0.169333,0.941916 v 3.280834 q 0,0.518583 -0.169333,0.941916 -0.15875,0.41275 -0.465667,0.709084 -0.296333,0.296333 -0.73025,0.465666 -0.433917,0.15875 -0.963083,0.15875 -0.53975,0 -0.973667,-0.15875 Q 79.565484,2.533854 79.258567,2.237521 78.962234,1.941188 78.7929,1.517854 78.63415,1.094521 78.63415,0.575938 Z m 0.9525,3.280834 q 0,0.656166 0.370417,1.04775 0.370417,0.381 1.005417,0.381 0.635,0 1.005416,-0.381 0.370417,-0.391584 0.370417,-1.04775 v -3.280834 q 0,-0.656166 -0.370417,-1.037166 -0.370416,-0.391584 -1.005416,-0.391584 -0.635,0 -1.005417,0.391584 -0.370417,0.381 -0.370417,1.037166 z m 0.846667,-2.434167 q 0,-0.264583 0.137583,-0.423333 0.148167,-0.15875 0.391584,-0.15875 0.243416,0 0.381,0.15875 0.148166,0.15875 0.148166,0.423333 v 1.693333 q 0,0.264584 -0.148166,0.423334 -0.137584,0.15875 -0.381,0.15875 -0.243417,0 -0.391584,-0.15875 -0.137583,-0.15875 -0.137583,-0.423334 z m -8.14915,-0.846667 q 0,-0.518583 0.15875,-0.941916 0.169333,-0.423334 0.465666,-0.719667 0.306917,-0.296333 0.73025,-0.455083 0.433917,-0.15875 0.973667,-0.15875 0.53975,0 0.963083,0.15875 0.433917,0.15875 0.73025,0.455083 0.306917,0.296333 0.465667,0.719667 0.169333,0.423333 0.169333,0.941916 v 3.280834 q 0,0.518583 -0.169333,0.941916 -0.15875,0.41275 -0.465667,0.709084 -0.296333,0.296333 -0.73025,0.465666 -0.433916,0.15875 -0.963083,0.15875 -0.53975,0 -0.973667,-0.15875 Q 73.2155,2.533854 72.908583,2.237521 72.61225,1.941188 72.442917,1.517854 72.284167,1.094521 72.284167,0.575938 Z m 0.9525,3.280834 q 0,0.656166 0.370416,1.04775 0.370417,0.381 1.005417,0.381 0.635,0 1.005417,-0.381 0.370416,-0.391584 0.370416,-1.04775 v -3.280834 q 0,-0.656166 -0.370416,-1.037166 -0.370417,-0.391584 -1.005417,-0.391584 -0.635,0 -1.005417,0.391584 -0.370416,0.381 -0.370416,1.037166 z m 0.846666,-2.434167 q 0,-0.264583 0.137584,-0.423333 0.148166,-0.15875 0.391583,-0.15875 0.243417,0 0.381,0.15875 0.148167,0.15875 0.148167,0.423333 v 1.693333 q 0,0.264584 -0.148167,0.423334 -0.137583,0.15875 -0.381,0.15875 -0.243417,0 -0.391583,-0.15875 -0.137584,-0.15875 -0.137584,-0.423334 z m 49.000707,-11.483042 q 0,-0.518583 0.15875,-0.941916 0.16933,-0.423334 0.46566,-0.719667 0.30692,-0.296333 0.73025,-0.455083 0.43392,-0.15875 0.97367,-0.15875 0.53975,0 0.96308,0.15875 0.43392,0.15875 0.73025,0.455083 0.30692,0.296333 0.46567,0.719667 0.16933,0.423333 0.16933,0.941916 v 3.280834 q 0,0.518583 -0.16933,0.941916 -0.15875,0.41275 -0.46567,0.709084 -0.29633,0.296333 -0.73025,0.465666 -0.43391,0.15875 -0.96308,0.15875 -0.53975,0 -0.97367,-0.15875 -0.42333,-0.15875 -0.73025,-0.455083 -0.29633,-0.296333 -0.46566,-0.719667 -0.15875,-0.423333 -0.15875,-0.941916 z m 0.9525,3.280834 q 0,0.656166 0.37041,1.04775 0.37042,0.381 1.00542,0.381 0.635,0 1.00542,-0.381 0.37041,-0.391584 0.37041,-1.04775 v -3.280834 q 0,-0.656166 -0.37041,-1.037166 -0.37042,-0.391584 -1.00542,-0.391584 -0.635,0 -1.00542,0.391584 -0.37041,0.381 -0.37041,1.037166 z m 0.84666,-2.434167 q 0,-0.264583 0.13759,-0.423333 0.14816,-0.15875 0.39158,-0.15875 0.24342,0 0.381,0.15875 0.14817,0.15875 0.14817,0.423333 v 1.693333 q 0,0.264584 -0.14817,0.423334 -0.13758,0.15875 -0.381,0.15875 -0.24342,0 -0.39158,-0.15875 -0.13759,-0.15875 -0.13759,-0.423334 z m -8.14915,-0.846667 q 0,-0.518583 0.15875,-0.941916 0.16934,-0.423334 0.46567,-0.719667 0.30692,-0.296333 0.73025,-0.455083 0.43392,-0.15875 0.97367,-0.15875 0.53975,0 0.96308,0.15875 0.43392,0.15875 0.73025,0.455083 0.30692,0.296333 0.46567,0.719667 0.16933,0.423333 0.16933,0.941916 v 3.280834 q 0,0.518583 -0.16933,0.941916 -0.15875,0.41275 -0.46567,0.709084 -0.29633,0.296333 -0.73025,0.465666 -0.43392,0.15875 -0.96308,0.15875 -0.53975,0 -0.97367,-0.15875 -0.42333,-0.15875 -0.73025,-0.455083 -0.29633,-0.296333 -0.46567,-0.719667 -0.15875,-0.423333 -0.15875,-0.941916 z m 0.9525,3.280834 q 0,0.656166 0.37042,1.04775 0.37042,0.381 1.00542,0.381 0.635,0 1.00541,-0.381 0.37042,-0.391584 0.37042,-1.04775 v -3.280834 q 0,-0.656166 -0.37042,-1.037166 -0.37041,-0.391584 -1.00541,-0.391584 -0.635,0 -1.00542,0.391584 -0.37042,0.381 -0.37042,1.037166 z m 0.84667,-2.434167 q 0,-0.264583 0.13758,-0.423333 0.14817,-0.15875 0.39159,-0.15875 0.24341,0 0.381,0.15875 0.14816,0.15875 0.14816,0.423333 v 1.693333 q 0,0.264584 -0.14816,0.423334 -0.13759,0.15875 -0.381,0.15875 -0.24342,0 -0.39159,-0.15875 -0.13758,-0.15875 -0.13758,-0.423334 z m -8.14915,-0.846667 q 0,-0.518583 0.15875,-0.941916 0.16933,-0.423334 0.46567,-0.719667 0.30691,-0.296333 0.73025,-0.455083 0.43391,-0.15875 0.97366,-0.15875 0.53975,0 0.96309,0.15875 0.43391,0.15875 0.73025,0.455083 0.30691,0.296333 0.46566,0.719667 0.16934,0.423333 0.16934,0.941916 v 3.280834 q 0,0.518583 -0.16934,0.941916 -0.15875,0.41275 -0.46566,0.709084 -0.29634,0.296333 -0.73025,0.465666 -0.43392,0.15875 -0.96309,0.15875 -0.53975,0 -0.97366,-0.15875 -0.42334,-0.15875 -0.73025,-0.455083 -0.29634,-0.296333 -0.46567,-0.719667 -0.15875,-0.423333 -0.15875,-0.941916 z m 0.9525,3.280834 q 0,0.656166 0.37042,1.04775 0.37041,0.381 1.00541,0.381 0.635,0 1.00542,-0.381 0.37042,-0.391584 0.37042,-1.04775 v -3.280834 q 0,-0.656166 -0.37042,-1.037166 -0.37042,-0.391584 -1.00542,-0.391584 -0.635,0 -1.00541,0.391584 -0.37042,0.381 -0.37042,1.037166 z m 0.84667,-2.434167 q 0,-0.264583 0.13758,-0.423333 0.14817,-0.15875 0.39158,-0.15875 0.24342,0 0.381,0.15875 0.14817,0.15875 0.14817,0.423333 v 1.693333 q 0,0.264584 -0.14817,0.423334 -0.13758,0.15875 -0.381,0.15875 -0.24341,0 -0.39158,-0.15875 -0.13758,-0.15875 -0.13758,-0.423334 z m -8.14916,-0.846667 q 0,-0.518583 0.15875,-0.941916 0.16934,-0.423334 0.46567,-0.719667 0.30692,-0.296333 0.73025,-0.455083 0.43392,-0.15875 0.97367,-0.15875 0.53975,0 0.96308,0.15875 0.43392,0.15875 0.73025,0.455083 0.30692,0.296333 0.46567,0.719667 0.16933,0.423333 0.16933,0.941916 v 3.280834 q 0,0.518583 -0.16933,0.941916 -0.15875,0.41275 -0.46567,0.709084 -0.29633,0.296333 -0.73025,0.465666 -0.43392,0.15875 -0.96308,0.15875 -0.53975,0 -0.97367,-0.15875 -0.42333,-0.15875 -0.73025,-0.455083 -0.29633,-0.296333 -0.46567,-0.719667 -0.15875,-0.423333 -0.15875,-0.941916 z m 0.9525,3.280834 q 0,0.656166 0.37042,1.04775 0.37042,0.381 1.00542,0.381 0.635,0 1.00541,-0.381 0.37042,-0.391584 0.37042,-1.04775 v -3.280834 q 0,-0.656166 -0.37042,-1.037166 -0.37041,-0.391584 -1.00541,-0.391584 -0.635,0 -1.00542,0.391584 -0.37042,0.381 -0.37042,1.037166 z m 0.84667,-2.434167 q 0,-0.264583 0.13758,-0.423333 0.14817,-0.15875 0.39159,-0.15875 0.24341,0 0.381,0.15875 0.14816,0.15875 0.14816,0.423333 v 1.693333 q 0,0.264584 -0.14816,0.423334 -0.13759,0.15875 -0.381,0.15875 -0.24342,0 -0.39159,-0.15875 -0.13758,-0.15875 -0.13758,-0.423334 z m -14.499132,-0.846667 q 0,-0.518583 0.15875,-0.941916 0.169334,-0.423334 0.465667,-0.719667 0.306916,-0.296333 0.73025,-0.455083 0.433916,-0.15875 0.973666,-0.15875 0.53975,0 0.963084,0.15875 0.433916,0.15875 0.73025,0.455083 0.306916,0.296333 0.465666,0.719667 0.169334,0.423333 0.169334,0.941916 v 3.280834 q 0,0.518583 -0.169334,0.941916 -0.15875,0.41275 -0.465666,0.709084 -0.296334,0.296333 -0.73025,0.465666 -0.433917,0.15875 -0.963084,0.15875 -0.53975,0 -0.973666,-0.15875 -0.423334,-0.15875 -0.73025,-0.455083 -0.296333,-0.296333 -0.465667,-0.719667 -0.15875,-0.423333 -0.15875,-0.941916 z m 0.9525,3.280834 q 0,0.656166 0.370417,1.04775 0.370416,0.381 1.005416,0.381 0.635,0 1.005417,-0.381 0.370417,-0.391584 0.370417,-1.04775 v -3.280834 q 0,-0.656166 -0.370417,-1.037166 -0.370417,-0.391584 -1.005417,-0.391584 -0.635,0 -1.005416,0.391584 -0.370417,0.381 -0.370417,1.037166 z m 0.846667,-2.434167 q 0,-0.264583 0.137583,-0.423333 0.148167,-0.15875 0.391583,-0.15875 0.243417,0 0.381,0.15875 0.148167,0.15875 0.148167,0.423333 v 1.693333 q 0,0.264584 -0.148167,0.423334 -0.137583,0.15875 -0.381,0.15875 -0.243416,0 -0.391583,-0.15875 -0.137583,-0.15875 -0.137583,-0.423334 z m -8.149151,-0.846667 q 0,-0.518583 0.15875,-0.941916 0.169333,-0.423334 0.465667,-0.719667 0.306916,-0.296333 0.73025,-0.455083 0.433916,-0.15875 0.973666,-0.15875 0.53975,0 0.963084,0.15875 0.433916,0.15875 0.73025,0.455083 0.306916,0.296333 0.465666,0.719667 0.169334,0.423333 0.169334,0.941916 v 3.280834 q 0,0.518583 -0.169334,0.941916 -0.15875,0.41275 -0.465666,0.709084 -0.296334,0.296333 -0.73025,0.465666 -0.433917,0.15875 -0.963084,0.15875 -0.53975,0 -0.973666,-0.15875 -0.423334,-0.15875 -0.73025,-0.455083 -0.296334,-0.296333 -0.465667,-0.719667 -0.15875,-0.423333 -0.15875,-0.941916 z m 0.9525,3.280834 q 0,0.656166 0.370417,1.04775 0.370416,0.381 1.005416,0.381 0.635,0 1.005417,-0.381 0.370417,-0.391584 0.370417,-1.04775 v -3.280834 q 0,-0.656166 -0.370417,-1.037166 -0.370417,-0.391584 -1.005417,-0.391584 -0.635,0 -1.005416,0.391584 -0.370417,0.381 -0.370417,1.037166 z m 0.846667,-2.434167 q 0,-0.264583 0.137583,-0.423333 0.148167,-0.15875 0.391583,-0.15875 0.243417,0 0.381,0.15875 0.148167,0.15875 0.148167,0.423333 v 1.693333 q 0,0.264584 -0.148167,0.423334 -0.137583,0.15875 -0.381,0.15875 -0.243416,0 -0.391583,-0.15875 -0.137583,-0.15875 -0.137583,-0.423334 z m -8.149151,-0.846667 q 0,-0.518583 0.15875,-0.941916 0.169334,-0.423334 0.465667,-0.719667 0.306917,-0.296333 0.73025,-0.455083 0.433917,-0.15875 0.973667,-0.15875 0.53975,0 0.963083,0.15875 0.433917,0.15875 0.73025,0.455083 0.306917,0.296333 0.465667,0.719667 0.169333,0.423333 0.169333,0.941916 v 3.280834 q 0,0.518583 -0.169333,0.941916 -0.15875,0.41275 -0.465667,0.709084 -0.296333,0.296333 -0.73025,0.465666 -0.433917,0.15875 -0.963083,0.15875 -0.53975,0 -0.973667,-0.15875 -0.423333,-0.15875 -0.73025,-0.455083 -0.296333,-0.296333 -0.465667,-0.719667 -0.15875,-0.423333 -0.15875,-0.941916 z m 0.9525,3.280834 q 0,0.656166 0.370417,1.04775 0.370417,0.381 1.005417,0.381 0.635,0 1.005416,-0.381 0.370417,-0.391584 0.370417,-1.04775 v -3.280834 q 0,-0.656166 -0.370417,-1.037166 -0.370416,-0.391584 -1.005416,-0.391584 -0.635,0 -1.005417,0.391584 -0.370417,0.381 -0.370417,1.037166 z m 0.846667,-2.434167 q 0,-0.264583 0.137583,-0.423333 0.148167,-0.15875 0.391584,-0.15875 0.243416,0 0.381,0.15875 0.148166,0.15875 0.148166,0.423333 v 1.693333 q 0,0.264584 -0.148166,0.423334 -0.137584,0.15875 -0.381,0.15875 -0.243417,0 -0.391584,-0.15875 -0.137583,-0.15875 -0.137583,-0.423334 z m -8.14915,-0.846667 q 0,-0.518583 0.15875,-0.941916 0.169333,-0.423334 0.465666,-0.719667 0.306917,-0.296333 0.73025,-0.455083 0.433917,-0.15875 0.973667,-0.15875 0.53975,0 0.963083,0.15875 0.433917,0.15875 0.73025,0.455083 0.306917,0.296333 0.465667,0.719667 0.169333,0.423333 0.169333,0.941916 v 3.280834 q 0,0.518583 -0.169333,0.941916 -0.15875,0.41275 -0.465667,0.709084 -0.296333,0.296333 -0.73025,0.465666 -0.433916,0.15875 -0.963083,0.15875 -0.53975,0 -0.973667,-0.15875 -0.423333,-0.15875 -0.73025,-0.455083 -0.296333,-0.296333 -0.465666,-0.719667 -0.15875,-0.423333 -0.15875,-0.941916 z m 0.9525,3.280834 q 0,0.656166 0.370416,1.04775 0.370417,0.381 1.005417,0.381 0.635,0 1.005417,-0.381 0.370416,-0.391584 0.370416,-1.04775 v -3.280834 q 0,-0.656166 -0.370416,-1.037166 -0.370417,-0.391584 -1.005417,-0.391584 -0.635,0 -1.005417,0.391584 -0.370416,0.381 -0.370416,1.037166 z m 0.846666,-2.434167 q 0,-0.264583 0.137584,-0.423333 0.148166,-0.15875 0.391583,-0.15875 0.243417,0 0.381,0.15875 0.148167,0.15875 0.148167,0.423333 v 1.693333 q 0,0.264584 -0.148167,0.423334 -0.137583,0.15875 -0.381,0.15875 -0.243417,0 -0.391583,-0.15875 -0.137584,-0.15875 -0.137584,-0.423334 z"
         inkscape:connector-curvature="0" />
    </g>
    <path
       style="color:#000000;font-style:normal;font-variant:normal;font-weight:normal;font-stretch:normal;font-size:medium;line-height:normal;font-family:sans-serif;font-variant-ligatures:normal;font-variant-position:normal;font-variant-caps:normal;font-variant-numeric:normal;font-variant-alternates:normal;font-feature-settings:normal;text-indent:0;text-align:start;text-decoration:none;text-decoration-line:none;text-decoration-style:solid;text-decoration-color:#000000;letter-spacing:normal;word-spacing:normal;text-transform:none;writing-mode:lr-tb;direction:ltr;text-orientation:mixed;dominant-baseline:auto;baseline-shift:baseline;text-anchor:start;white-space:normal;shape-padding:0;clip-rule:nonzero;display:inline;overflow:visible;visibility:visible;opacity:1;isolation:auto;mix-blend-mode:normal;color-interpolation:sRGB;color-interpolation-filters:linearRGB;solid-color:#000000;solid-opacity:1;vector-effect:none;fill:#8a0ef7;fill-opacity:1;fill-rule:evenodd;stroke:none;stroke-width:0.5;stroke-linecap:square;stroke-linejoin:miter;stroke-miterlimit:4;stroke-dasharray:none;stroke-dashoffset:0;stroke-opacity:1;paint-order:normal;color-rendering:auto;image-rendering:auto;shape-rendering:auto;text-rendering:auto;enable-background:accumulate"
       d="m 20.734917,247.82734 c -1.096616,0 -1.98851,0.88983 -1.98851,1.98644 v 1.76837 h 0.500229 v -1.76837 c 0,-0.82826 0.660019,-1.48621 1.488281,-1.48621 h 57.787014 c 0.828254,0 1.488271,0.65795 1.488271,1.48621 v 41.67601 c 0,0.82826 -0.660017,1.48621 -1.488271,1.48621 H 20.734917 c -0.828262,0 -1.488284,-0.65795 -1.488281,-1.48621 v -33.57211 h -0.500229 v 6.11539 h -1.315165 c -0.08565,-0.1463 -0.242334,-0.23634 -0.411861,-0.23668 -0.264112,2e-4 -0.478007,0.21441 -0.478007,0.47852 0,0.26412 0.213892,0.47832 0.478007,0.47853 0.169712,-1.6e-4 0.326634,-0.0902 0.412377,-0.23668 h 1.314649 v 26.97303 c 0,1.09661 0.891894,1.98593 1.98851,1.98593 h 57.787014 c 1.096604,0 1.987978,-0.88932 1.987978,-1.98593 v -41.67601 c 0,-1.09661 -0.891374,-1.98644 -1.987978,-1.98644 z m -1.98851,4.79867 v 4.2478 h 0.500229 v -4.2478 z"
       id="rect1095"
       inkscape:connector-curvature="0"
       sodipodi:nodetypes="ssccscsssssccccccscccsssssssccccc" />
  </g>
</svg>
