<?xml version="1.0" encoding="UTF-8" standalone="no"?>
<!-- Created with Inkscape (http://www.inkscape.org/) -->

<svg
   xmlns:dc="http://purl.org/dc/elements/1.1/"
   xmlns:cc="http://creativecommons.org/ns#"
   xmlns:rdf="http://www.w3.org/1999/02/22-rdf-syntax-ns#"
   xmlns:svg="http://www.w3.org/2000/svg"
   xmlns="http://www.w3.org/2000/svg"
   xmlns:sodipodi="http://sodipodi.sourceforge.net/DTD/sodipodi-0.dtd"
   xmlns:inkscape="http://www.inkscape.org/namespaces/inkscape"
   width="91mm"
   height="37mm"
   viewBox="0 0 91 37"
   version="1.1"
   id="svg8"
   inkscape:version="0.92.5 (2060ec1f9f, 2020-04-08)"
   sodipodi:docname="drawing-4.svg">
  <defs
     id="defs2" />
  <sodipodi:namedview
     id="base"
     pagecolor="#ffffff"
     bordercolor="#666666"
     borderopacity="1.0"
     inkscape:pageopacity="0.0"
     inkscape:pageshadow="2"
     inkscape:zoom="1.979899"
     inkscape:cx="149.06967"
     inkscape:cy="69.900292"
     inkscape:document-units="mm"
     inkscape:current-layer="text4737"
     showgrid="false"
     inkscape:window-width="1294"
     inkscape:window-height="704"
     inkscape:window-x="72"
     inkscape:window-y="27"
     inkscape:window-maximized="1" />
  <metadata
     id="metadata5">
    <rdf:RDF>
      <cc:Work
         rdf:about="">
        <dc:format>image/svg+xml</dc:format>
        <dc:type
           rdf:resource="http://purl.org/dc/dcmitype/StillImage" />
        <dc:title></dc:title>
      </cc:Work>
    </rdf:RDF>
  </metadata>
  <g
     inkscape:label="Layer 1"
     inkscape:groupmode="layer"
     id="layer1"
     transform="translate(0,-260)">
    <g
       aria-label="314.159e-2"
       style="font-style:normal;font-weight:normal;font-size:10.58333302px;line-height:1.25;font-family:sans-serif;letter-spacing:0px;word-spacing:0px;fill:#000000;fill-opacity:1;stroke:none;stroke-width:0.26458332"
       id="text817"
       transform="translate(0,10.583334)">
      <path
         style="font-style:normal;font-variant:normal;font-weight:normal;font-stretch:normal;font-family:'JetBrains Mono';-inkscape-font-specification:'JetBrains Mono';stroke-width:0.26458332;fill:#696969"
         d="m 9.2401456,261.88451 v 0.84647 h 2.6561674 0.275436 c 0.09172,-0.007 0.17612,-0.0141 0.25373,-0.0212 0.08467,-0.007 0.165786,-0.0141 0.243396,-0.0212 v 0.0212 c -0.08467,0.0564 -0.165785,0.11685 -0.243396,0.18035 -0.07056,0.0494 -0.144597,0.10548 -0.222207,0.16898 -0.07761,0.0635 -0.151654,0.13047 -0.222211,0.20103 l -1.513602,1.5348 v 1.00563 h 0.889352 c 0.458611,0 0.82554,0.13721 1.100707,0.41237 0.275166,0.26812 0.412379,0.6247 0.412379,1.0692 0,0.4445 -0.133932,0.80436 -0.402042,1.07953 -0.268113,0.26811 -0.624171,0.40204 -1.068671,0.40204 -0.381,0 -0.702193,-0.10943 -0.963247,-0.32815 -0.261054,-0.22578 -0.42001,-0.52195 -0.4764557,-0.88884 H 9.0070846 c 0.02822,0.31045 0.106061,0.59247 0.233061,0.84647 0.134056,0.254 0.3033677,0.47284 0.5079787,0.65629 0.211666,0.17639 0.4550187,0.31412 0.7301857,0.4129 0.282223,0.0988 0.589264,0.14779 0.920874,0.14779 0.373947,0 0.708774,-0.0528 1.005107,-0.15864 0.30339,-0.11289 0.560896,-0.26805 0.772563,-0.46561 0.211666,-0.20461 0.373903,-0.44797 0.486793,-0.73019 0.112887,-0.28928 0.169498,-0.61376 0.169498,-0.97359 0,-0.35278 -0.05989,-0.67398 -0.179835,-0.96326 -0.119944,-0.28928 -0.289256,-0.53263 -0.507979,-0.73019 -0.211667,-0.20461 -0.472969,-0.35977 -0.783415,-0.46561 -0.303387,-0.11289 -0.645293,-0.1695 -1.026293,-0.1695 0.03528,-0.0282 0.07014,-0.0598 0.105421,-0.0951 0.03528,-0.0282 0.07445,-0.0603 0.116787,-0.0956 0.04233,-0.0353 0.08479,-0.0739 0.127125,-0.11627 l 1.788522,-1.70378 v -1.05835 z m 8.1276684,0 -1.64021,1.16428 v 0.96274 l 1.491898,-1.01597 c 0.04233,-0.0282 0.08479,-0.0598 0.127124,-0.0951 0.04939,-0.0353 0.09513,-0.0707 0.137459,-0.10593 0.04939,-0.0353 0.09893,-0.0739 0.148312,-0.11627 h 0.02119 l -0.01035,0.0739 v 0.15864 c 0,0.0635 -0.0038,0.13427 -0.01085,0.21188 v 0.19069 5.3444 h -2.042252 v 0.84699 h 4.709271 v -0.84699 h -1.714622 v -6.77327 z m 7.524604,0 -3.005502,4.60389 v 1.37563 h 3.439583 v 1.64074 h 0.952397 v -4.3393 h -0.952397 v 1.8521 h -2.487187 v -0.42324 l 3.09077,-4.70982 z"
         id="path823"
         inkscape:connector-curvature="0" />
      <path
         d="m 29.602235,268.66842 q 0,-0.41275 0.243417,-0.65617 0.254,-0.254 0.66675,-0.254 0.41275,0 0.656167,0.254 0.254,0.24342 0.254,0.65617 0,0.42334 -0.254,0.68792 -0.243417,0.25401 -0.656167,0.25401 -0.41275,0 -0.66675,-0.25401 -0.243417,-0.26458 -0.243417,-0.68792 z"
         style="font-style:normal;font-variant:normal;font-weight:normal;font-stretch:normal;font-family:'JetBrains Mono';-inkscape-font-specification:'JetBrains Mono';stroke-width:0.26458332;fill:#696969"
         id="path829"
         inkscape:connector-curvature="0" />
      <path
         style="font-style:normal;font-variant:normal;font-weight:normal;font-stretch:normal;font-family:'JetBrains Mono';-inkscape-font-specification:'JetBrains Mono';stroke-width:0.26458332;fill:#696969"
         d="m 49.551894,261.77858 c -0.352777,0 -0.677251,0.0599 -0.973584,0.17983 -0.296334,0.11289 -0.55384,0.27513 -0.772563,0.4868 -0.211666,0.20461 -0.3777,0.45504 -0.497644,0.75138 -0.119943,0.28928 -0.179832,0.61047 -0.179832,0.96325 0,0.35278 0.05281,0.67398 0.158644,0.96326 0.105834,0.28222 0.25064,0.52558 0.434084,0.73019 0.1905,0.20461 0.415906,0.36357 0.67696,0.47646 0.261056,0.11289 0.546867,0.16898 0.857313,0.16898 0.246944,0 0.444561,-0.0283 0.592728,-0.0847 0.155223,-0.0635 0.282078,-0.13374 0.380857,-0.21136 0.105831,-0.0847 0.187465,-0.18373 0.243912,-0.29662 h 0.158646 c -0.03528,0.0353 -0.08481,0.0952 -0.148312,0.17983 -0.05644,0.0776 -0.130484,0.18704 -0.222208,0.32815 -0.09172,0.13406 -0.211502,0.31752 -0.359669,0.55036 l -1.608685,2.54043 h 1.153417 l 1.439187,-2.40246 c 0.345724,-0.57855 0.617382,-1.10772 0.814938,-1.5875 0.197557,-0.47979 0.296625,-0.93163 0.296625,-1.35497 0,-0.35983 -0.06041,-0.68431 -0.180351,-0.97359 -0.119946,-0.29634 -0.289258,-0.54677 -0.507981,-0.75138 -0.211667,-0.21167 -0.469173,-0.3739 -0.772563,-0.48679 -0.296333,-0.11289 -0.624086,-0.1695 -0.983919,-0.1695 z m -13.13408,0.10593 -1.640211,1.16428 v 0.96274 l 1.491898,-1.01597 c 0.04233,-0.0282 0.08479,-0.0598 0.127125,-0.0951 0.04939,-0.0353 0.09513,-0.0707 0.137459,-0.10593 0.04939,-0.0353 0.09892,-0.0739 0.148312,-0.11627 h 0.02119 l -0.01035,0.0739 v 0.15864 c 0,0.0635 -0.0038,0.13427 -0.01085,0.21188 v 0.19069 5.3444 h -2.042771 v 0.84699 h 4.709789 v -0.84699 h -1.714621 v -6.77327 z m 4.646226,0 -0.05323,4.18065 h 0.9741 c 0.261057,-0.38805 0.66285,-0.58239 1.20613,-0.58239 0.437443,0 0.783145,0.12357 1.037145,0.37052 0.254,0.24694 0.381371,0.58229 0.381371,1.00563 v 0.52917 c 0,0.42333 -0.127371,0.75816 -0.381371,1.00511 -0.254,0.24695 -0.595905,0.37052 -1.026295,0.37052 -0.366887,0 -0.670131,-0.0778 -0.910021,-0.23306 -0.232833,-0.15522 -0.384715,-0.3594 -0.455268,-0.6134 h -1.005626 c 0.09172,0.51506 0.345951,0.92773 0.762227,1.23817 0.41628,0.30339 0.948725,0.45476 1.597838,0.45476 0.366887,0 0.698436,-0.0528 0.99477,-0.15865 0.296333,-0.10584 0.54728,-0.25392 0.751892,-0.44442 0.211667,-0.1905 0.373904,-0.4235 0.486791,-0.69867 0.11289,-0.27517 0.168982,-0.58169 0.168982,-0.92036 v -0.52917 c 0,-0.6844 -0.183465,-1.22444 -0.550352,-1.61955 -0.359833,-0.40217 -0.860698,-0.60307 -1.502751,-0.60307 -0.3175,0 -0.575006,0.0419 -0.772562,0.12661 -0.1905,0.0847 -0.342382,0.17666 -0.455272,0.27544 -0.134053,0.11994 -0.232605,0.25388 -0.296105,0.40204 h -0.06356 l 0.03204,-2.68822 h 3.270086 v -0.86766 z m 8.487854,0.74105 c 0.4445,0 0.804355,0.14101 1.079521,0.42323 0.275167,0.27517 0.412377,0.64538 0.412377,1.11105 0,0.45861 -0.141007,0.82934 -0.42323,1.11157 -0.275167,0.28222 -0.631222,0.42323 -1.068668,0.42323 -0.211667,0 -0.409284,-0.0354 -0.592727,-0.10594 -0.17639,-0.0776 -0.33155,-0.18323 -0.465606,-0.31729 -0.127,-0.13406 -0.229346,-0.29302 -0.306957,-0.47646 -0.07056,-0.1905 -0.105939,-0.40227 -0.105939,-0.63511 0,-0.23283 0.03538,-0.44081 0.105939,-0.62425 0.07761,-0.1905 0.179957,-0.35274 0.306957,-0.4868 0.134056,-0.13406 0.289216,-0.2364 0.465606,-0.30696 0.183443,-0.0776 0.38106,-0.11627 0.592727,-0.11627 z"
         id="path831"
         inkscape:connector-curvature="0" />
      <path
         d="m 53.584003,265.80033 q 0,-1.03718 0.613834,-1.62985 0.624416,-0.59267 1.7145,-0.59267 1.090083,0 1.703916,0.59267 0.624417,0.59267 0.624417,1.62985 v 1.06892 h -3.704167 v 0.46567 q 0,0.66675 0.359834,1.04775 0.370416,0.381 1.016,0.381 0.47625,0 0.8255,-0.14816 0.34925,-0.14817 0.518583,-0.43392 h 0.9525 q -0.179917,0.66675 -0.804333,1.04775 -0.613834,0.38101 -1.49225,0.38101 -1.090084,0 -1.7145,-0.59267 -0.613834,-0.59267 -0.613834,-1.62985 z m 0.9525,0.27516 h 2.751667 v -0.27516 q 0,-0.65618 -0.359833,-1.01601 -0.359834,-0.35984 -1.016,-0.35984 -0.656167,0 -1.016,0.35984 -0.359834,0.35983 -0.359834,1.01601 z"
         style="font-style:normal;font-variant:normal;font-weight:normal;font-stretch:normal;font-family:'JetBrains Mono';-inkscape-font-specification:'JetBrains Mono';stroke-width:0.26458332;fill:#696969"
         id="path837"
         inkscape:connector-curvature="0" />
      <path
         style="font-style:normal;font-variant:normal;font-weight:normal;font-stretch:normal;font-family:'JetBrains Mono';-inkscape-font-specification:'JetBrains Mono';stroke-width:0.26458332;fill:#696969"
         d="m 68.569853,261.77858 c -0.35983,0 -0.68758,0.0528 -0.98392,0.15864 -0.28928,0.0988 -0.5435,0.24031 -0.76222,0.42375 -0.21167,0.18345 -0.3777,0.40558 -0.49765,0.66663 -0.11992,0.26106 -0.18689,0.55015 -0.20102,0.86766 h 0.98444 c 0,-0.38101 0.13065,-0.68805 0.3917,-0.92088 0.26812,-0.23284 0.62417,-0.34882 1.06867,-0.34882 0.40217,0 0.72008,0.11598 0.95292,0.34882 0.23988,0.22578 0.35966,0.53662 0.35966,0.93173 0,0.24695 -0.0321,0.48322 -0.0956,0.709 -0.0635,0.22578 -0.16205,0.45119 -0.2961,0.67697 -0.13406,0.22578 -0.31045,0.4555 -0.52917,0.68833 -0.21167,0.23284 -0.46918,0.47948 -0.77256,0.74053 l -2.01073,1.72549 v 1.05834 h 4.7625 v -0.86817 h -2.81534 -0.28577 c -0.0988,0 -0.19732,0.004 -0.2961,0.0109 -0.10584,0 -0.21526,0.003 -0.32815,0.0103 v -0.0424 c 0.0494,-0.0282 0.10218,-0.0598 0.15865,-0.0951 0.0423,-0.0282 0.0848,-0.0565 0.12712,-0.0847 0.0423,-0.0282 0.081,-0.0565 0.11628,-0.0847 l 1.28054,-1.11105 c 0.68438,-0.59267 1.18197,-1.15394 1.49241,-1.68311 0.3175,-0.53623 0.47594,-1.08991 0.47594,-1.66141 0,-0.32456 -0.0561,-0.61745 -0.16898,-0.87851 -0.10583,-0.26105 -0.25771,-0.48318 -0.45527,-0.66663 -0.19755,-0.18344 -0.43763,-0.32445 -0.71985,-0.42323 -0.28223,-0.0988 -0.59963,-0.14831 -0.9524,-0.14831 z m -8.424291,3.81012 v 0.84647 h 4.233331 v -0.84647 z"
         id="path839"
         inkscape:connector-curvature="0" />
      <path
         style="opacity:1;fill:#696969;fill-opacity:1;fill-rule:evenodd;stroke:none;stroke-width:0.5;stroke-linecap:square;stroke-linejoin:miter;stroke-miterlimit:4;stroke-dasharray:none;stroke-dashoffset:0;stroke-opacity:1;paint-order:normal"
         d="m 30.134476,256.20727 v 5.00436 h -1.020609 l 1.398362,1.18603 1.398365,-1.18603 h -1.020093 v -5.00436 z"
         id="path4873"
         inkscape:connector-curvature="0" />
      <path
         style="opacity:1;fill:#696969;fill-opacity:1;fill-rule:evenodd;stroke:none;stroke-width:0.5;stroke-linecap:square;stroke-linejoin:miter;stroke-miterlimit:4;stroke-dasharray:none;stroke-dashoffset:0;stroke-opacity:1;paint-order:normal"
         d="m 55.534475,256.20727 v 5.00436 h -1.020609 l 1.398363,1.18603 1.398365,-1.18603 h -1.020093 v -5.00436 z"
         id="path4871"
         inkscape:connector-curvature="0" />
      <path
         style="opacity:1;fill:#696969;fill-opacity:1;fill-rule:evenodd;stroke:none;stroke-width:0.5;stroke-linecap:square;stroke-linejoin:miter;stroke-miterlimit:4;stroke-dasharray:none;stroke-dashoffset:0;stroke-opacity:1;paint-order:normal"
         d="m 8.7130459,272.81207 v 0.75551 h 8.5519321 v 4.07316 h 0.756026 v -4.07316 h 8.551415 v -0.75551 z"
         id="path4869"
         inkscape:connector-curvature="0" />
      <path
         style="opacity:1;fill:#696969;fill-opacity:1;fill-rule:evenodd;stroke:none;stroke-width:0.5;stroke-linecap:square;stroke-linejoin:miter;stroke-miterlimit:4;stroke-dasharray:none;stroke-dashoffset:0;stroke-opacity:1;paint-order:normal"
         d="m 34.388478,272.81207 v 0.75551 h 8.551934 v 4.07316 h 0.756026 v -4.07316 h 8.551415 v -0.75551 z"
         id="path4867"
         inkscape:connector-curvature="0" />
      <path
         style="opacity:1;fill:#696969;fill-opacity:1;fill-rule:evenodd;stroke:none;stroke-width:0.5;stroke-linecap:square;stroke-linejoin:miter;stroke-miterlimit:4;stroke-dasharray:none;stroke-dashoffset:0;stroke-opacity:1;paint-order:normal"
         d="m 59.779178,272.81207 v 0.75551 h 5.386234 v 4.07316 h 0.755509 v -4.07316 h 5.386234 v -0.75551 z"
         id="path853"
         inkscape:connector-curvature="0" />
      <g
         aria-label="decimal point exponent iteger part fractional part exponent part"
         style="font-style:normal;font-weight:normal;font-size:3.84056592px;line-height:1.25;font-family:sans-serif;letter-spacing:0px;word-spacing:0px;fill:#000000;fill-opacity:1;stroke:none;stroke-width:0.08602881"
         id="text4737"
         transform="matrix(0.81373131,0,0,0.81373131,9.7043711,47.198268)">
        <path
           style="font-style:normal;font-variant:normal;font-weight:normal;font-stretch:normal;font-family:'JetBrains Mono';-inkscape-font-specification:'JetBrains Mono';stroke-width:0.08602881;fill:#696969"
           d="m 18.705944,250.81355 c -0.07425,0 -0.134264,0.0221 -0.180351,0.0656 -0.04609,0.0435 -0.06925,0.0998 -0.06925,0.16898 0,0.0717 0.02316,0.12798 0.06925,0.16898 0.04609,0.0384 0.1061,0.0574 0.180351,0.0574 h 0.077 c 0.07425,0 0.134264,-0.0206 0.180351,-0.0615 0.04609,-0.041 0.06925,-0.0957 0.06925,-0.16485 0,-0.0691 -0.02316,-0.12545 -0.06925,-0.16898 -0.04609,-0.0435 -0.1061,-0.0656 -0.180351,-0.0656 z m 16.130281,0 c -0.07425,0 -0.134263,0.0221 -0.180351,0.0656 -0.04608,0.0435 -0.06925,0.0998 -0.06925,0.16898 0,0.0717 0.02315,0.12798 0.06925,0.16898 0.04609,0.0384 0.106101,0.0574 0.180351,0.0574 h 0.077 c 0.07425,0 0.134263,-0.0206 0.18035,-0.0615 0.04609,-0.041 0.06925,-0.0957 0.06925,-0.16485 0,-0.0691 -0.02315,-0.12545 -0.06925,-0.16898 -0.04609,-0.0435 -0.1061,-0.0656 -0.18035,-0.0656 z m -10.273274,0.13436 v 0.31522 h 0.698666 v 1.87431 c 0,0.19202 0.05632,0.34311 0.168981,0.4532 0.112657,0.10754 0.26794,0.16123 0.465088,0.16123 h 0.625801 v -0.31523 h -0.625801 c -0.08961,0 -0.16015,-0.0253 -0.211356,-0.0765 -0.05121,-0.0538 -0.077,-0.12799 -0.077,-0.22272 v -2.18953 z m -12.358935,0.0388 v 0.65267 0.11524 c 0.0025,0.041 0.0062,0.0805 0.01137,0.11885 0.0026,0.0435 0.0052,0.0872 0.0078,0.13074 h -0.03049 c -0.03329,-0.12802 -0.10119,-0.22645 -0.203605,-0.29559 -0.102415,-0.0717 -0.231907,-0.10748 -0.38809,-0.10748 -0.107536,0 -0.204919,0.019 -0.291972,0.0574 -0.08705,0.0384 -0.161279,0.0937 -0.222725,0.16536 -0.06145,0.0691 -0.109881,0.15494 -0.145728,0.25735 -0.03329,0.10241 -0.05013,0.2177 -0.05013,0.34572 v 0.53743 c 0,0.12802 0.01684,0.2433 0.05013,0.34572 0.03585,0.10241 0.08428,0.18927 0.145728,0.26096 0.06145,0.0691 0.135672,0.12335 0.222725,0.16175 0.08705,0.0384 0.184436,0.0574 0.291972,0.0574 0.156183,0 0.285675,-0.0347 0.38809,-0.10387 0.102413,-0.0717 0.170318,-0.17118 0.203605,-0.29921 h 0.03049 v 0.36484 h 0.326595 v -2.7652 z m 26.876395,0 v 0.65267 h -0.61495 v 0.31471 h 0.61495 v 1.25212 c 0,0.16386 0.0537,0.29599 0.161229,0.39584 0.107538,0.0999 0.25178,0.14986 0.433568,0.14986 h 0.537951 v -0.31523 h -0.537951 c -0.07681,0 -0.137883,-0.0206 -0.18397,-0.0615 -0.04353,-0.041 -0.06563,-0.0973 -0.06563,-0.16898 v -1.25161 h 0.825789 v -0.31522 H 39.42561 v -0.65267 z m -25.040849,0.61443 c -0.263719,0 -0.471122,0.0716 -0.622184,0.21497 -0.148502,0.14338 -0.222725,0.34078 -0.222725,0.5917 v 0.57567 c 0,0.25092 0.07422,0.44832 0.222725,0.5917 0.151062,0.14338 0.358465,0.21497 0.622184,0.21497 0.212512,0 0.393068,-0.0463 0.541569,-0.13849 0.151062,-0.0922 0.248446,-0.21852 0.291972,-0.37982 h -0.345715 c -0.04097,0.0691 -0.10361,0.12123 -0.188102,0.15709 -0.08449,0.0359 -0.184507,0.0538 -0.299724,0.0538 -0.156183,0 -0.278839,-0.0458 -0.368452,-0.13798 -0.08705,-0.0922 -0.130742,-0.21903 -0.130742,-0.38034 v -0.16898 h 1.344104 v -0.38757 c 0,-0.25092 -0.07528,-0.44832 -0.226343,-0.5917 -0.148502,-0.14338 -0.354848,-0.21497 -0.618567,-0.21497 z m 2.335258,0 c -0.130579,0 -0.248491,0.019 -0.353466,0.0574 -0.102416,0.0384 -0.19085,0.0937 -0.265101,0.16536 -0.07169,0.0717 -0.128015,0.15855 -0.168981,0.26097 -0.03841,0.10241 -0.05736,0.21664 -0.05736,0.3421 v 0.53743 c 0,0.12546 0.01896,0.23969 0.05736,0.3421 0.04097,0.10241 0.09729,0.18927 0.168981,0.26096 0.07425,0.0717 0.162685,0.12697 0.265101,0.16537 0.104975,0.0384 0.222887,0.0574 0.353466,0.0574 0.230435,0 0.419939,-0.0626 0.568441,-0.1881 0.15106,-0.12545 0.243183,-0.2997 0.276469,-0.52245 h -0.345715 c -0.01792,0.12289 -0.07267,0.22134 -0.164848,0.29559 -0.08961,0.0717 -0.201207,0.10749 -0.334347,0.10749 -0.156183,0 -0.279357,-0.0458 -0.368969,-0.13798 -0.08705,-0.0922 -0.130225,-0.21903 -0.130225,-0.38034 v -0.53743 c 0,-0.16131 0.04475,-0.28817 0.134359,-0.38034 0.08961,-0.0922 0.211213,-0.13849 0.364835,-0.13849 0.13314,0 0.244734,0.0374 0.334347,0.11162 0.09218,0.0717 0.146928,0.16907 0.164848,0.29197 h 0.345715 c -0.03072,-0.2202 -0.121789,-0.39338 -0.272852,-0.51883 -0.148501,-0.12802 -0.339064,-0.19172 -0.572058,-0.19172 z m 4.328418,0 c -0.102416,0 -0.181901,0.0305 -0.238228,0.092 -0.05633,0.0589 -0.08949,0.1447 -0.09974,0.25735 H 20.3384 v -0.31109 h -0.299724 v 2.11253 l 0.326595,-5.3e-4 v -1.58957 c 0,-0.0947 0.01895,-0.1679 0.05736,-0.2191 0.03841,-0.0512 0.09473,-0.077 0.168982,-0.077 0.07169,0 0.126958,0.0247 0.165365,0.0734 0.04097,0.0461 0.06149,0.11399 0.06149,0.2036 v 1.60869 h 0.268717 v -1.58957 c 0,-0.0947 0.02053,-0.1679 0.0615,-0.2191 0.04097,-0.0512 0.09835,-0.077 0.1726,-0.077 0.06913,0 0.121766,0.0247 0.157613,0.0734 0.03841,0.0461 0.05736,0.11399 0.05736,0.2036 v 1.60921 h 0.330729 v -1.60921 c 0,-0.16898 -0.03843,-0.30111 -0.115239,-0.39584 -0.07425,-0.0973 -0.176895,-0.14573 -0.307475,-0.14573 -0.102417,0 -0.184533,0.0305 -0.245979,0.092 -0.06145,0.0589 -0.09725,0.14469 -0.107487,0.25735 h -0.02274 c -0.05377,-0.233 -0.175367,-0.34934 -0.364835,-0.34934 z m 2.530595,0 c -0.217632,0 -0.400301,0.0484 -0.548804,0.14573 -0.14594,0.0973 -0.237004,0.22941 -0.272851,0.39584 h 0.345715 c 0.02816,-0.0768 0.08292,-0.13734 0.164848,-0.18087 0.08449,-0.0435 0.18608,-0.0651 0.303858,-0.0651 0.161303,0 0.283961,0.0374 0.368453,0.11162 0.08705,0.0717 0.130741,0.17276 0.130741,0.30334 v 0.1726 h -0.629936 c -0.115217,0 -0.218919,0.0153 -0.311092,0.046 -0.09218,0.0307 -0.171661,0.0744 -0.238228,0.13074 -0.06401,0.0563 -0.114015,0.12529 -0.149862,0.20722 -0.03329,0.0794 -0.04961,0.16938 -0.04961,0.26924 0,0.1997 0.06264,0.35816 0.188102,0.47594 0.125459,0.11777 0.294434,0.17673 0.506946,0.17673 0.176666,0 0.32617,-0.0395 0.449068,-0.11886 0.122897,-0.0794 0.201324,-0.18727 0.234611,-0.32297 h 0.03049 v 0.40359 h 0.315226 v -1.45934 c 0,-0.21764 -0.07422,-0.38661 -0.222725,-0.50695 -0.148502,-0.1229 -0.353791,-0.18448 -0.61495,-0.18448 z m 7.070886,0 c -0.156183,0 -0.285673,0.0358 -0.388091,0.10748 -0.102412,0.0691 -0.170317,0.16757 -0.203604,0.29559 h -0.03049 v -0.36483 h -0.326597 v 2.7652 h 0.345715 v -0.65267 c 0,-0.0358 -0.0016,-0.0742 -0.0041,-0.11524 0,-0.041 -0.0011,-0.081 -0.0036,-0.11937 -0.0052,-0.0435 -0.0088,-0.0867 -0.01138,-0.13023 h 0.03049 c 0.03329,0.12803 0.10119,0.22752 0.203605,0.29921 0.102417,0.0691 0.231907,0.10387 0.388091,0.10387 0.107537,0 0.204404,-0.0195 0.291454,-0.0579 0.08706,-0.0384 0.161279,-0.0921 0.222726,-0.16123 0.06145,-0.0717 0.108823,-0.15855 0.142111,-0.26096 0.03585,-0.10242 0.05374,-0.2177 0.05374,-0.34572 v -0.53743 c 0,-0.12802 -0.01789,-0.24331 -0.05374,-0.34572 -0.03329,-0.10241 -0.08066,-0.18821 -0.142111,-0.25735 -0.06145,-0.0717 -0.135673,-0.12696 -0.222726,-0.16536 -0.08705,-0.0384 -0.183917,-0.0574 -0.291454,-0.0574 z m 2.169893,0 c -0.13058,0 -0.248491,0.019 -0.353467,0.0574 -0.102413,0.0384 -0.190847,0.0937 -0.2651,0.16536 -0.07169,0.0717 -0.128016,0.15855 -0.168981,0.26097 -0.03841,0.0999 -0.05736,0.21408 -0.05736,0.3421 v 0.53743 c 0,0.12546 0.01894,0.23969 0.05736,0.3421 0.04096,0.10241 0.09729,0.18927 0.168981,0.26096 0.07425,0.0717 0.162687,0.12697 0.2651,0.16537 0.104976,0.0384 0.222887,0.0574 0.353467,0.0574 0.263721,0 0.469551,-0.0732 0.618051,-0.21911 0.151064,-0.1485 0.226859,-0.35064 0.226859,-0.60668 v -0.54157 c 0,-0.25604 -0.07579,-0.45712 -0.226859,-0.60306 -0.151061,-0.14594 -0.356891,-0.21859 -0.618051,-0.21859 z m 4.731496,0 c -0.153625,0 -0.280485,0.0342 -0.380338,0.10335 -0.09985,0.0691 -0.166185,0.16914 -0.199472,0.29972 h -0.03101 v -0.36483 h -0.326594 v 2.11253 h 0.345716 v -1.32498 c 0,-0.16387 0.04211,-0.29336 0.126605,-0.38809 0.08705,-0.0973 0.203909,-0.14573 0.349851,-0.14573 0.145941,0 0.259649,0.0448 0.34158,0.13436 0.08193,0.0896 0.122991,0.21489 0.122991,0.3762 v 1.34824 h 0.345715 v -1.4056 c 0,-0.10754 -0.01527,-0.2065 -0.04599,-0.2961 -0.03073,-0.0922 -0.07705,-0.17118 -0.138494,-0.23772 -0.05889,-0.0665 -0.131537,-0.11812 -0.21859,-0.15399 -0.08449,-0.0384 -0.181875,-0.0574 -0.291971,-0.0574 z m -19.248955,0.0382 v 0.31522 h 0.67231 v 1.48208 h -0.768428 v 0.31523 h 1.747696 v -0.31523 h -0.634069 v -1.7973 z m 16.130282,0 v 0.31522 h 0.672309 v 1.48208 h -0.768429 v 0.31523 h 1.747697 v -0.31523 h -0.634069 v -1.7973 z m -22.355742,0.26096 c 0.143382,0 0.257089,0.0474 0.341581,0.14211 0.08705,0.0947 0.130742,0.22317 0.130742,0.38448 v 0.53743 c 0,0.16131 -0.04369,0.28922 -0.130742,0.38396 -0.08449,0.0947 -0.198199,0.14211 -0.341581,0.14211 -0.153622,0 -0.275222,-0.0474 -0.364835,-0.14211 -0.08705,-0.0947 -0.130742,-0.22265 -0.130742,-0.38396 v -0.53743 c 0,-0.16643 0.04369,-0.29592 0.130742,-0.38809 0.08705,-0.0922 0.208652,-0.1385 0.364835,-0.1385 z m 18.442285,0 c 0.156184,0 0.277783,0.0463 0.364837,0.1385 0.08705,0.0922 0.130741,0.22166 0.130741,0.38809 v 0.53743 c 0,0.16131 -0.04526,0.28922 -0.134877,0.38396 -0.08705,0.0947 -0.207079,0.14211 -0.360701,0.14211 -0.14338,0 -0.258662,-0.0474 -0.345715,-0.14211 -0.08449,-0.0947 -0.126609,-0.22265 -0.126609,-0.38396 v -0.53743 c 0,-0.16131 0.04212,-0.28974 0.126609,-0.38448 0.08705,-0.0947 0.202335,-0.14211 0.345715,-0.14211 z m -16.134416,0.008 c 0.158744,0 0.281918,0.0437 0.36897,0.13074 0.08705,0.0871 0.130742,0.21022 0.130742,0.36897 v 0.0997 h -0.998906 v -0.0997 c 0,-0.15875 0.04369,-0.28192 0.130742,-0.36897 0.08705,-0.0871 0.209709,-0.13074 0.368452,-0.13074 z m 18.43505,0 c 0.153622,0 0.275222,0.0463 0.364837,0.13849 0.08961,0.0922 0.134358,0.21903 0.134358,0.38034 v 0.53743 c 0,0.16131 -0.04475,0.28817 -0.134358,0.38034 -0.08961,0.0922 -0.211215,0.13798 -0.364837,0.13798 -0.156181,0 -0.279355,-0.0458 -0.368969,-0.13798 -0.08705,-0.0922 -0.130741,-0.21903 -0.130741,-0.38034 v -0.53743 c 0,-0.16131 0.04526,-0.28817 0.134876,-0.38034 0.08961,-0.0922 0.211212,-0.13849 0.364834,-0.13849 z m -9.371003,0.84491 h 0.622184 v 0.28783 c 0,0.0666 -0.01578,0.12815 -0.04651,0.18449 -0.03073,0.0563 -0.07284,0.10633 -0.126607,0.14986 -0.05377,0.0409 -0.117469,0.073 -0.19172,0.0961 -0.07425,0.0231 -0.15531,0.0346 -0.242362,0.0346 -0.1357,0 -0.240459,-0.0336 -0.31471,-0.10025 -0.07425,-0.0666 -0.111621,-0.15869 -0.111621,-0.27647 0,-0.11775 0.03631,-0.20987 0.108004,-0.27647 0.07425,-0.0666 0.175322,-0.0997 0.303341,-0.0997 z"
           id="path4747"
           inkscape:connector-curvature="0" />
        <path
           style="font-style:normal;font-variant:normal;font-weight:normal;font-stretch:normal;font-family:'JetBrains Mono';-inkscape-font-specification:'JetBrains Mono';stroke-width:0.08602881;fill:#696969"
           d="m 64.533261,250.9867 v 0.65268 h -0.614434 v 0.31522 h 0.614434 v 1.25161 c 0,0.16386 0.0537,0.29598 0.161232,0.39584 0.107534,0.0999 0.252293,0.14986 0.434081,0.14986 h 0.53795 v -0.31523 h -0.53795 c -0.07681,0 -0.137883,-0.0205 -0.183968,-0.0615 -0.04353,-0.041 -0.06563,-0.0973 -0.06563,-0.16898 v -1.25161 h 0.825789 v -0.31522 h -0.825789 v -0.65268 z m -15.822806,0.61444 c -0.263719,0 -0.471122,0.0716 -0.622185,0.21497 -0.148501,0.14338 -0.222725,0.34078 -0.222725,0.5917 v 0.57567 c 0,0.25092 0.07422,0.44832 0.222725,0.5917 0.151063,0.14337 0.358466,0.21497 0.622185,0.21497 0.212511,0 0.393067,-0.0463 0.541569,-0.13849 0.151062,-0.0922 0.248445,-0.21852 0.291972,-0.37982 H 49.19828 c -0.04097,0.0691 -0.104126,0.12122 -0.188619,0.15709 -0.08449,0.0359 -0.183989,0.0543 -0.299206,0.0543 -0.156183,0 -0.279357,-0.0463 -0.36897,-0.13849 -0.08705,-0.0922 -0.130225,-0.21903 -0.130225,-0.38034 v -0.16898 h 1.344104 v -0.38757 c 0,-0.25092 -0.0758,-0.44832 -0.226859,-0.5917 -0.148502,-0.14338 -0.354332,-0.21497 -0.61805,-0.21497 z m 4.742863,0 c -0.156183,0 -0.285158,0.0358 -0.387574,0.10748 -0.102413,0.0691 -0.170318,0.16757 -0.203605,0.29559 h -0.03101 v -0.36483 h -0.326078 l -5.29e-4,2.7652 h 0.345715 v -0.65267 c 0,-0.0359 -0.0011,-0.0743 -0.0036,-0.11524 0,-0.041 -0.0011,-0.081 -0.0036,-0.11937 -0.0051,-0.0435 -0.0094,-0.0867 -0.01189,-0.13023 h 0.03101 c 0.03328,0.12802 0.10119,0.22752 0.203606,0.29921 0.102415,0.0691 0.23139,0.10387 0.387573,0.10387 0.107536,0 0.204919,-0.019 0.291971,-0.0574 0.08706,-0.0384 0.161279,-0.0926 0.222726,-0.16175 0.06145,-0.0717 0.108824,-0.15855 0.14211,-0.26096 0.03585,-0.10242 0.05374,-0.2177 0.05374,-0.34572 v -0.53743 c 0,-0.12802 -0.0179,-0.24331 -0.05374,-0.34572 -0.03329,-0.10241 -0.08066,-0.18821 -0.14211,-0.25735 -0.06145,-0.0717 -0.135673,-0.12696 -0.222726,-0.16536 -0.08705,-0.0384 -0.184435,-0.0574 -0.291971,-0.0574 z m 2.169893,0 c -0.130579,0 -0.247975,0.019 -0.35295,0.0574 -0.102416,0.0384 -0.19085,0.0937 -0.2651,0.16536 -0.07169,0.0717 -0.128015,0.15855 -0.168982,0.26097 -0.03841,0.0999 -0.05788,0.21408 -0.05788,0.3421 v 0.53743 c 0,0.12546 0.01947,0.23969 0.05788,0.3421 0.04097,0.10241 0.09729,0.18927 0.168982,0.26096 0.07425,0.0717 0.162684,0.12697 0.2651,0.16537 0.104975,0.0384 0.222371,0.0574 0.35295,0.0574 0.263718,0 0.470065,-0.0727 0.618567,-0.21859 0.151063,-0.1485 0.226343,-0.35116 0.226343,-0.6072 v -0.54157 c 0,-0.25604 -0.07528,-0.4566 -0.226343,-0.60255 -0.151062,-0.14594 -0.357408,-0.2191 -0.618567,-0.2191 z m 2.427242,0 c -0.153623,0 -0.280484,0.0347 -0.380339,0.10387 -0.09985,0.0691 -0.166184,0.16862 -0.199471,0.2992 h -0.03049 v -0.36483 h -0.326595 v 2.11253 h 0.345715 v -1.32498 c 0,-0.16386 0.04212,-0.29335 0.126608,-0.38809 0.08705,-0.0973 0.203391,-0.14573 0.349333,-0.14573 0.145941,0 0.260165,0.0447 0.342097,0.13436 0.08193,0.0896 0.12299,0.2149 0.12299,0.3762 v 1.34824 H 58.7455 v -1.4056 c 0,-0.10753 -0.01527,-0.20649 -0.04599,-0.29611 -0.03073,-0.0921 -0.07653,-0.17111 -0.137976,-0.23771 -0.05889,-0.0665 -0.132056,-0.11813 -0.219108,-0.15399 -0.08449,-0.0384 -0.181876,-0.0574 -0.291972,-0.0574 z m 2.181779,0 c -0.263719,0 -0.471122,0.0716 -0.622184,0.21497 -0.148502,0.14338 -0.222726,0.34078 -0.222726,0.5917 v 0.57567 c 0,0.25092 0.07422,0.44832 0.222726,0.5917 0.151062,0.14337 0.358465,0.21497 0.622184,0.21497 0.212511,0 0.39255,-0.0463 0.541052,-0.13849 0.151062,-0.0922 0.248445,-0.21852 0.291972,-0.37982 h -0.345715 c -0.04097,0.0691 -0.103611,0.12122 -0.188103,0.15709 -0.08449,0.0359 -0.183989,0.0543 -0.299206,0.0543 -0.156183,0 -0.279357,-0.0463 -0.36897,-0.13849 -0.08705,-0.0922 -0.130741,-0.21903 -0.130741,-0.38034 v -0.16898 h 1.344621 v -0.38757 c 0,-0.25092 -0.0758,-0.44832 -0.22686,-0.5917 -0.148502,-0.14338 -0.354331,-0.21497 -0.61805,-0.21497 z m 2.427242,0 c -0.153623,0 -0.280484,0.0347 -0.380339,0.10387 -0.09985,0.0691 -0.166701,0.16862 -0.199987,0.2992 h -0.03049 v -0.36483 h -0.326596 v 2.11253 h 0.345716 v -1.32498 c 0,-0.16386 0.04211,-0.29335 0.126607,-0.38809 0.08705,-0.0973 0.203908,-0.14573 0.349849,-0.14573 0.145942,0 0.25965,0.0447 0.341582,0.13436 0.08193,0.0896 0.12299,0.2149 0.12299,0.3762 v 1.34824 h 0.345714 v -1.4056 c 0,-0.10753 -0.01527,-0.20649 -0.04599,-0.29611 -0.03073,-0.0921 -0.07704,-0.17111 -0.138491,-0.23771 -0.05889,-0.0665 -0.132056,-0.11813 -0.219109,-0.15399 -0.08449,-0.0384 -0.181358,-0.0574 -0.291455,-0.0574 z m -12.566675,0.0382 0.718302,1.02939 -0.764294,1.08314 h 0.410828 l 0.476456,-0.71469 c 0.0128,-0.0153 0.02281,-0.0317 0.03049,-0.0496 0.0077,-0.0179 0.01557,-0.0348 0.02325,-0.0501 0.0077,-0.0153 0.01399,-0.0317 0.01912,-0.0496 h 0.0155 c 0.0051,0.0153 0.01144,0.0317 0.01912,0.0496 0.0077,0.0153 0.01557,0.0322 0.02325,0.0501 0.01024,0.0153 0.02025,0.0317 0.03049,0.0496 l 0.472323,0.71469 h 0.414961 l -0.760677,-1.08676 0.718303,-1.02577 h -0.410828 l -0.441834,0.67231 c -0.0128,0.0179 -0.02281,0.0358 -0.03049,0.0537 -0.0077,0.0154 -0.01399,0.0296 -0.01912,0.0424 -0.0051,0.0128 -0.0094,0.0255 -0.01189,0.0382 h -0.01499 c -0.0025,-0.0128 -0.0068,-0.0255 -0.01188,-0.0382 -0.0051,-0.0127 -0.01144,-0.027 -0.01912,-0.0424 -0.0077,-0.0179 -0.01769,-0.0358 -0.03049,-0.0537 l -0.441833,-0.67231 z m 3.230294,0.26148 c 0.156183,0 0.277783,0.0458 0.364835,0.13798 0.08705,0.0922 0.130225,0.22166 0.130225,0.38809 v 0.53743 c 0,0.16131 -0.04475,0.28922 -0.134359,0.38396 -0.08705,0.0947 -0.207078,0.14211 -0.360701,0.14211 -0.143381,0 -0.258663,-0.0474 -0.345716,-0.14211 -0.08449,-0.0947 -0.127123,-0.22265 -0.127123,-0.38396 v -0.53743 c 0,-0.16131 0.04263,-0.28923 0.127123,-0.38396 0.08705,-0.0947 0.202335,-0.14211 0.345716,-0.14211 z m -4.612638,0.007 c 0.158743,0 0.2814,0.0437 0.368452,0.13075 0.08705,0.087 0.130742,0.21022 0.130742,0.36897 v 0.0997 H 48.21126 v -0.0997 c 0,-0.15875 0.04317,-0.28192 0.130225,-0.36897 0.08705,-0.0871 0.210226,-0.13075 0.36897,-0.13075 z m 6.912756,0 c 0.153622,0 0.275222,0.0463 0.364836,0.1385 0.08961,0.0922 0.134358,0.21903 0.134358,0.38033 v 0.53744 c 0,0.16131 -0.04474,0.28817 -0.134358,0.38034 -0.08961,0.0922 -0.211214,0.13849 -0.364836,0.13849 -0.156183,0 -0.27884,-0.0463 -0.368453,-0.13849 -0.08705,-0.0922 -0.130741,-0.21903 -0.130741,-0.38034 v -0.53744 c 0,-0.1613 0.04475,-0.28816 0.134358,-0.38033 0.08961,-0.0922 0.211213,-0.1385 0.364836,-0.1385 z m 4.609021,0 c 0.158744,0 0.2814,0.0437 0.368453,0.13075 0.08705,0.087 0.130741,0.21022 0.130741,0.36897 v 0.0997 h -0.998905 v -0.0997 c 0,-0.15875 0.04369,-0.28192 0.130741,-0.36897 0.08705,-0.0871 0.210226,-0.13075 0.36897,-0.13075 z"
           id="path4771"
           inkscape:connector-curvature="0" />
        <path
           style="font-style:normal;font-variant:normal;font-weight:normal;font-stretch:normal;font-family:'JetBrains Mono';-inkscape-font-specification:'JetBrains Mono';stroke-width:0.08602881;fill:#696969"
           d="m -6.7585192,285.26134 c -0.07425,0 -0.1342641,0.0221 -0.1803511,0.0656 -0.04609,0.0435 -0.06925,0.0999 -0.06925,0.16898 0,0.0717 0.02316,0.12805 0.06925,0.16899 0.04609,0.0384 0.1061001,0.0574 0.1803511,0.0574 h 0.077 c 0.07425,0 0.1342639,-0.0206 0.1803509,-0.0615 0.04609,-0.041 0.06925,-0.0957 0.06925,-0.16485 0,-0.0691 -0.02316,-0.12544 -0.06925,-0.16898 -0.04609,-0.0435 -0.1061,-0.0656 -0.1803509,-0.0656 z m 1.9394169,0.17312 v 0.65267 h -0.614433 v 0.31523 h 0.614433 v 1.2516 c 0,0.16386 0.05421,0.29598 0.161747,0.39584 0.107536,0.0999 0.251779,0.14987 0.433565,0.14987 h 0.5379521 v -0.31523 h -0.5379521 c -0.07681,0 -0.137881,-0.0201 -0.183968,-0.061 -0.04353,-0.041 -0.06563,-0.0973 -0.06563,-0.16898 v -1.25212 h 0.8257901 v -0.31523 h -0.8257901 v -0.65267 z m 20.7392983,0 v 0.65267 h -0.614434 v 0.31523 h 0.614434 v 1.2516 c 0,0.16386 0.05369,0.29598 0.161229,0.39584 0.107537,0.0999 0.252296,0.14987 0.434083,0.14987 h 0.537435 v -0.31523 h -0.537435 c -0.07681,0 -0.138398,-0.0201 -0.184486,-0.061 -0.04353,-0.041 -0.06511,-0.0973 -0.06511,-0.16898 v -1.25212 H 17.0917 v -0.31523 h -0.825788 v -0.65267 z m -18.1275713,0.61443 c -0.2637189,0 -0.4711229,0.0716 -0.6221849,0.21498 -0.148502,0.14338 -0.222725,0.34077 -0.222725,0.59169 v 0.57568 c 0,0.25092 0.07422,0.44831 0.222725,0.59169 0.151062,0.14338 0.358466,0.21498 0.6221849,0.21498 0.212511,0 0.393067,-0.0458 0.541569,-0.13798 0.151062,-0.0922 0.248445,-0.21904 0.291972,-0.38034 h -0.345716 c -0.04097,0.0691 -0.10361,0.12175 -0.188102,0.15761 -0.08449,0.0359 -0.184506,0.0538 -0.299723,0.0538 -0.1561829,0 -0.2788399,-0.0463 -0.3684529,-0.1385 -0.08705,-0.0922 -0.130742,-0.21903 -0.130742,-0.38034 v -0.16898 h 1.3441039 v -0.38757 c 0,-0.25092 -0.07528,-0.44831 -0.226342,-0.59169 -0.148503,-0.14338 -0.354848,-0.21498 -0.618567,-0.21498 z m 2.1543899,0 c -0.110096,0 -0.209593,0.019 -0.29920595,0.0574 -0.08962,0.0384 -0.166471,0.0926 -0.230477,0.16175 -0.06145,0.0691 -0.108824,0.15336 -0.14211,0.25322 -0.03329,0.0999 -0.05013,0.21144 -0.05013,0.33434 v 0.36484 c 0,0.1229 0.01684,0.23397 0.05013,0.33383 0.03585,0.0999 0.08428,0.18459 0.145727,0.25373 0.06401,0.0691 0.139807,0.12283 0.22686,0.16123 0.0896099,0.0384 0.18910995,0.0574 0.29920595,0.0574 0.153623,0 0.284172,-0.0358 0.391707,-0.10749 0.10753495,-0.0742 0.18070195,-0.17901 0.21910895,-0.31471 h 0.02325 l -0.0155,0.36484 v 0.0961 c 0,0.15106 -0.04369,0.2674 -0.130742,0.34933 -0.08449,0.0819 -0.20346095,0.12299 -0.35708395,0.12299 h -0.51831395 v 0.31471 H 0.0777546 c 0.26372,0 0.46849195,-0.069 0.61443295,-0.20722 0.145941,-0.13827 0.219108,-0.33146 0.219108,-0.57981 v -1.97818 h -0.326595 v 0.38448 h -0.02687 c -0.03841,-0.1357 -0.111572,-0.23941 -0.21910795,-0.3111 -0.107536,-0.0743 -0.238085,-0.11162 -0.391707,-0.11162 z m 2.4541137,0 c -0.2637188,0 -0.4711218,0.0716 -0.6221838,0.21498 -0.148502,0.14338 -0.222726,0.34077 -0.222726,0.59169 v 0.57568 c 0,0.25092 0.07422,0.44831 0.222726,0.59169 0.151062,0.14338 0.358465,0.21498 0.6221838,0.21498 0.212511,0 0.393067,-0.0458 0.5415691,-0.13798 0.151062,-0.0922 0.248445,-0.21904 0.291972,-0.38034 h -0.345716 c -0.04097,0.0691 -0.1036091,0.12175 -0.1881021,0.15761 -0.08449,0.0359 -0.184507,0.0538 -0.299723,0.0538 -0.1561828,0 -0.2788398,-0.0463 -0.3684528,-0.1385 -0.08705,-0.0922 -0.130741,-0.21903 -0.130741,-0.38034 v -0.16898 h 1.3441029 v -0.38757 c 0,-0.25092 -0.07528,-0.44831 -0.226342,-0.59169 -0.148502,-0.14338 -0.3548481,-0.21498 -0.6185671,-0.21498 z m 2.5352449,0 c -0.1536226,0 -0.2831146,0.0358 -0.3880896,0.10749 -0.104974,0.0717 -0.173936,0.17013 -0.207223,0.29559 h -0.03101 v -0.36484 H 3.983456 v 2.11254 h 0.3457146 v -1.32499 c 0,-0.1613 0.04475,-0.28816 0.134359,-0.38034 0.08961,-0.0947 0.210156,-0.14211 0.3612176,-0.14211 0.153623,0 0.271535,0.0463 0.353467,0.13849 0.08449,0.0896 0.126607,0.21754 0.126607,0.38396 v 0.0765 h 0.3457156 v -0.11885 c 0,-0.24324 -0.06422,-0.4338 -0.192237,-0.57206 -0.1254576,-0.14082 -0.2991776,-0.21136 -0.5219306,-0.21136 z m 4.5123822,0 c -0.1561836,0 -0.2856726,0.0358 -0.3880876,0.10749 -0.102415,0.0691 -0.17032,0.16757 -0.203608,0.29559 h -0.03049 v -0.36484 H 8.4999772 v 2.76521 h 0.3457146 v -0.65267 c 0,-0.0359 -0.0011,-0.0743 -0.0036,-0.11524 0,-0.041 -0.0016,-0.081 -0.0041,-0.11938 -0.0051,-0.0435 -0.0088,-0.0867 -0.01138,-0.13022 h 0.03049 c 0.03329,0.12802 0.101193,0.22803 0.203608,0.29972 0.102415,0.0691 0.231904,0.10336 0.3880876,0.10336 0.107537,0 0.20492,-0.019 0.291973,-0.0574 0.08705,-0.0384 0.161279,-0.0921 0.222724,-0.16122 0.06145,-0.0717 0.1088246,-0.15907 0.1421096,-0.26149 0.03585,-0.10241 0.05374,-0.21769 0.05374,-0.34572 v -0.53743 c 0,-0.12802 -0.01789,-0.2433 -0.05374,-0.34572 -0.03329,-0.10241 -0.08066,-0.18821 -0.1421096,-0.25734 -0.06145,-0.0717 -0.135671,-0.12697 -0.222724,-0.16537 -0.08705,-0.0384 -0.184436,-0.0574 -0.291973,-0.0574 z m 2.1466386,0 c -0.217631,0 -0.400302,0.0484 -0.548802,0.14573 -0.145941,0.0973 -0.237006,0.22941 -0.272854,0.39584 h 0.345718 c 0.02816,-0.0768 0.08291,-0.13682 0.164846,-0.18035 0.08449,-0.0435 0.186081,-0.0656 0.303858,-0.0656 0.161303,0 0.283961,0.0374 0.368453,0.11162 0.08705,0.0717 0.130742,0.17276 0.130742,0.30334 v 0.1726 h -0.629936 c -0.115218,0 -0.218919,0.0158 -0.311092,0.0465 -0.09217,0.0307 -0.171657,0.0739 -0.238228,0.13023 -0.06401,0.0563 -0.114017,0.1258 -0.149863,0.20774 -0.03329,0.0794 -0.04961,0.16886 -0.04961,0.26871 0,0.19971 0.06264,0.35816 0.188103,0.47594 0.125457,0.11778 0.294433,0.17674 0.506944,0.17674 0.176667,0 0.32617,-0.0395 0.449069,-0.11886 0.122896,-0.0794 0.201324,-0.18676 0.234612,-0.32246 h 0.03049 v 0.40308 h 0.315228 v -1.45935 c 0,-0.21763 -0.07422,-0.38661 -0.222727,-0.50694 -0.1485,-0.1229 -0.35379,-0.18449 -0.614949,-0.18449 z m 2.557983,0 c -0.153622,0 -0.283114,0.0358 -0.388088,0.10749 -0.104973,0.0717 -0.173937,0.17013 -0.207224,0.29559 h -0.03049 v -0.36484 h -0.326597 v 2.11254 h 0.345716 v -1.32499 c 0,-0.1613 0.04475,-0.28816 0.13436,-0.38034 0.08961,-0.0947 0.210156,-0.14211 0.361217,-0.14211 0.153623,0 0.271018,0.0463 0.352949,0.13849 0.0845,0.0896 0.127125,0.21754 0.127125,0.38396 v 0.0765 h 0.345199 v -0.11885 c 0,-0.24324 -0.0637,-0.4338 -0.19172,-0.57206 -0.125457,-0.14082 -0.299696,-0.21136 -0.522449,-0.21136 z m -21.6606875,0.0382 v 0.31523 h 0.6723103 v 1.48208 h -0.7684284 v 0.31523 h 1.7476963 v -0.31523 h -0.633553 v -1.79731 z m 7.5814491,0.26148 c 0.153623,0 0.273649,0.0447 0.36070195,0.13436 0.08705,0.0896 0.130741,0.21384 0.130741,0.37259 v 0.36484 c 0,0.15874 -0.04369,0.28297 -0.130741,0.37258 -0.08705,0.0896 -0.20707895,0.13436 -0.36070195,0.13436 -0.153622,0 -0.275222,-0.0447 -0.364835,-0.13436 -0.08705,-0.0896 -0.13074195,-0.21384 -0.13074195,-0.37258 v -0.36484 c 0,-0.15875 0.04369,-0.28298 0.13074195,-0.37259 0.08961,-0.0896 0.211213,-0.13436 0.364835,-0.13436 z m 9.2438762,0 c 0.1561826,0 0.2777826,0.0458 0.3648356,0.13798 0.08705,0.0922 0.130742,0.22167 0.130742,0.38809 v 0.53743 c 0,0.16131 -0.04475,0.28974 -0.134359,0.38448 -0.08705,0.0947 -0.207597,0.14211 -0.3612186,0.14211 -0.143381,0 -0.258662,-0.0474 -0.345715,-0.14211 -0.08449,-0.0947 -0.126606,-0.22317 -0.126606,-0.38448 v -0.53743 c 0,-0.1613 0.04211,-0.28922 0.126606,-0.38396 0.08705,-0.0947 0.202334,-0.14211 0.345715,-0.14211 z m -11.5253901,0.008 c 0.158744,0 0.281917,0.0432 0.368969,0.13022 0.08705,0.0871 0.130225,0.21022 0.130225,0.36897 v 0.0997 h -0.9983889 v -0.0997 c 0,-0.15875 0.04369,-0.28192 0.130742,-0.36897 0.08705,-0.0871 0.209709,-0.13022 0.3684529,-0.13022 z m 4.6085036,0 c 0.158743,0 0.281917,0.0432 0.36897,0.13022 0.08705,0.0871 0.1307411,0.21022 0.1307411,0.36897 v 0.0997 H 1.9019345 v -0.0997 c 0,-0.15875 0.04369,-0.28192 0.130741,-0.36897 0.08705,-0.0871 0.20971,-0.13022 0.3684528,-0.13022 z m 9.0640427,0.84439 h 0.622184 v 0.28784 c 0,0.0666 -0.01527,0.12815 -0.04599,0.18448 -0.03073,0.0563 -0.07336,0.10633 -0.127124,0.14986 -0.05377,0.0409 -0.11747,0.0731 -0.19172,0.0961 -0.07425,0.0231 -0.154792,0.0346 -0.241845,0.0346 -0.1357,0 -0.240975,-0.0337 -0.315227,-0.10026 -0.07425,-0.0666 -0.111104,-0.15869 -0.111104,-0.27647 0,-0.11774 0.0358,-0.20986 0.107487,-0.27646 0.07425,-0.0666 0.175323,-0.0997 0.303342,-0.0997 z"
           id="path4787"
           inkscape:connector-curvature="0" />
        <path
           style="font-style:normal;font-variant:normal;font-weight:normal;font-stretch:normal;font-family:'JetBrains Mono';-inkscape-font-specification:'JetBrains Mono';stroke-width:0.08602881;fill:#696969"
           d="m 36.78602,285.26134 c -0.07425,0 -0.134265,0.0221 -0.180351,0.0656 -0.04609,0.0435 -0.06925,0.0999 -0.06925,0.16899 0,0.0717 0.02316,0.12798 0.06925,0.16898 0.04609,0.0384 0.1061,0.0574 0.180351,0.0574 h 0.077 c 0.07425,0 0.134264,-0.0206 0.18035,-0.0615 0.04609,-0.041 0.06925,-0.0957 0.06925,-0.16484 0,-0.0691 -0.02316,-0.12545 -0.06925,-0.16899 -0.04609,-0.0435 -0.106099,-0.0651 -0.18035,-0.0651 h -0.077 z m 8.161258,0.13488 v 0.31471 h 0.699183 v 1.8743 c 0,0.19203 0.05632,0.34311 0.168981,0.45321 0.112657,0.10753 0.267423,0.16123 0.464571,0.16123 h 0.625804 v -0.31471 h -0.625804 c -0.08961,0 -0.160149,-0.0258 -0.211357,-0.077 -0.0512,-0.0538 -0.077,-0.12799 -0.077,-0.22273 v -2.18901 z m -19.456176,0.0382 c -0.184347,0 -0.329107,0.0474 -0.434082,0.14211 -0.104975,0.0947 -0.157613,0.22634 -0.157613,0.39533 v 0.32659 h -0.614433 v 0.31523 h 0.614433 v 1.58595 h 0.345715 v -1.58595 h 0.86403 v -0.31523 h -0.86403 v -0.32659 c 0,-0.1485 0.08212,-0.22273 0.24598,-0.22273 h 0.61805 v -0.31471 z m 8.62583,0 v 0.65268 h -0.614433 v 0.31522 h 0.614433 v 1.25212 c 0,0.16386 0.05369,0.29547 0.16123,0.39532 0.107536,0.0999 0.252296,0.14987 0.434083,0.14987 h 0.537434 v -0.31523 h -0.537434 c -0.07681,0 -0.138399,-0.0201 -0.184485,-0.061 -0.04353,-0.041 -0.06511,-0.0973 -0.06511,-0.16898 v -1.25212 h 0.82579 v -0.31522 h -0.82579 v -0.65268 z m 23.043036,0 v 0.65268 h -0.614431 v 0.31522 h 0.614431 v 1.25212 c 0,0.16386 0.05421,0.29547 0.161748,0.39532 0.107537,0.0999 0.25178,0.14987 0.433565,0.14987 h 0.537953 v -0.31523 h -0.537953 c -0.07681,0 -0.13788,-0.0201 -0.183968,-0.061 -0.04353,-0.041 -0.06563,-0.0973 -0.06563,-0.16898 v -1.25212 h 0.825789 v -0.31522 h -0.825789 v -0.65268 z m -29.418358,0.61443 c -0.153622,0 -0.283114,0.0358 -0.388089,0.10749 -0.104975,0.0717 -0.173936,0.17013 -0.207223,0.29559 h -0.03101 V 286.0871 H 26.78921 v 2.11253 h 0.345715 v -1.32499 c 0,-0.1613 0.04475,-0.28816 0.134359,-0.38033 0.08961,-0.0947 0.209639,-0.14212 0.360701,-0.14212 0.153623,0 0.271535,0.0463 0.353467,0.1385 0.08449,0.0896 0.126607,0.21753 0.126607,0.38395 v 0.077 h 0.345716 v -0.11937 c 0,-0.24324 -0.0637,-0.4338 -0.19172,-0.57206 -0.125458,-0.14082 -0.299696,-0.21136 -0.522449,-0.21136 z m 2.051038,0 c -0.217632,0 -0.400818,0.0484 -0.54932,0.14573 -0.14594,0.0973 -0.237005,0.22942 -0.272852,0.39584 h 0.345715 c 0.02816,-0.0768 0.08343,-0.13682 0.165365,-0.18035 0.08449,-0.0435 0.185563,-0.0656 0.303341,-0.0656 0.161304,0 0.283961,0.0374 0.368453,0.11162 0.08705,0.0717 0.130741,0.17276 0.130741,0.30334 v 0.17261 h -0.629936 c -0.115217,0 -0.218919,0.0158 -0.311092,0.0465 -0.09218,0.0307 -0.171661,0.0739 -0.238228,0.13023 -0.06401,0.0563 -0.114015,0.1258 -0.149862,0.20774 -0.03329,0.0794 -0.04961,0.16886 -0.04961,0.26871 0,0.19971 0.06264,0.35816 0.188102,0.47594 0.125459,0.11778 0.294435,0.17674 0.506946,0.17674 0.176666,0 0.32617,-0.0395 0.449068,-0.11886 0.122896,-0.0794 0.201324,-0.18676 0.234611,-0.32246 h 0.03049 v 0.40308 h 0.315226 v -1.45934 c 0,-0.21763 -0.07422,-0.38661 -0.222725,-0.50695 -0.148502,-0.1229 -0.353274,-0.18449 -0.614433,-0.18449 z m 2.357996,0 c -0.13058,0 -0.248492,0.0195 -0.353467,0.0579 -0.102415,0.0384 -0.190849,0.0932 -0.2651,0.16485 -0.07169,0.0717 -0.128015,0.15855 -0.168982,0.26097 -0.03841,0.10242 -0.05736,0.21664 -0.05736,0.34209 v 0.53744 c 0,0.12546 0.01896,0.23968 0.05736,0.3421 0.04097,0.10242 0.09729,0.18927 0.168982,0.26096 0.07425,0.0717 0.162685,0.12697 0.2651,0.16537 0.104975,0.0384 0.222887,0.0574 0.353467,0.0574 0.230434,0 0.419939,-0.0627 0.56844,-0.18811 0.151061,-0.12546 0.243183,-0.29969 0.276469,-0.52244 h -0.345715 c -0.01792,0.1229 -0.07319,0.22186 -0.165364,0.2961 -0.08961,0.0717 -0.200691,0.10749 -0.33383,0.10749 -0.156184,0 -0.279357,-0.0463 -0.36897,-0.13849 -0.08705,-0.0922 -0.130225,-0.21904 -0.130225,-0.38034 v -0.53744 c 0,-0.1613 0.04475,-0.28816 0.134359,-0.38033 0.08961,-0.0922 0.211213,-0.13798 0.364836,-0.13798 0.133139,0 0.244216,0.0369 0.33383,0.1111 0.09217,0.0717 0.147444,0.16908 0.165364,0.29197 h 0.345715 c -0.03072,-0.22019 -0.121789,-0.39285 -0.272851,-0.51831 -0.148502,-0.12802 -0.339064,-0.19224 -0.572058,-0.19224 z m 6.882267,0 c -0.13058,0 -0.248492,0.0195 -0.353467,0.0579 -0.102415,0.0384 -0.190849,0.0932 -0.2651,0.16485 -0.07169,0.0717 -0.128015,0.15855 -0.168982,0.26097 -0.03841,0.0998 -0.05736,0.21408 -0.05736,0.34209 v 0.53744 c 0,0.12546 0.01896,0.23968 0.05736,0.3421 0.04097,0.10242 0.09729,0.18927 0.168982,0.26096 0.07425,0.0717 0.162685,0.12697 0.2651,0.16537 0.104975,0.0384 0.222887,0.0574 0.353467,0.0574 0.263719,0 0.469548,-0.0727 0.618049,-0.21859 0.151064,-0.1485 0.226862,-0.35116 0.226862,-0.6072 v -0.54105 c 0,-0.25604 -0.0758,-0.45712 -0.226862,-0.60307 -0.151061,-0.14594 -0.35689,-0.21911 -0.618049,-0.21911 z m 2.427241,0 c -0.153622,0 -0.280482,0.0347 -0.380339,0.10387 -0.09985,0.0691 -0.1667,0.16863 -0.199988,0.29921 h -0.03049 v -0.36483 h -0.326593 v 2.11253 h 0.345715 v -1.32499 c 0,-0.16386 0.04211,-0.29335 0.126606,-0.38809 0.08705,-0.0973 0.203909,-0.14572 0.34985,-0.14572 0.145942,0 0.259649,0.0447 0.34158,0.13435 0.08193,0.0896 0.122992,0.2149 0.122992,0.37621 v 1.34824 H 42.1552 v -1.4056 c 0,-0.10753 -0.01527,-0.20598 -0.04599,-0.29559 -0.03073,-0.0922 -0.07705,-0.17163 -0.138493,-0.23823 -0.05889,-0.0666 -0.131538,-0.11761 -0.218591,-0.15348 -0.08449,-0.0384 -0.181877,-0.0579 -0.291973,-0.0579 z m 2.158008,0 c -0.217631,0 -0.400302,0.0484 -0.548802,0.14573 -0.145941,0.0973 -0.237006,0.22942 -0.272854,0.39584 h 0.345718 c 0.02816,-0.0768 0.08291,-0.13682 0.164846,-0.18035 0.08449,-0.0435 0.186081,-0.0656 0.303858,-0.0656 0.161303,0 0.283961,0.0374 0.368453,0.11162 0.08705,0.0717 0.130742,0.17276 0.130742,0.30334 v 0.17261 h -0.629936 c -0.115218,0 -0.218919,0.0158 -0.311092,0.0465 -0.09217,0.0307 -0.171656,0.0739 -0.238228,0.13023 -0.06401,0.0563 -0.114017,0.1258 -0.149863,0.20774 -0.03329,0.0794 -0.04961,0.16886 -0.04961,0.26871 0,0.19971 0.06264,0.35816 0.188103,0.47594 0.125457,0.11778 0.294433,0.17674 0.506944,0.17674 0.176668,0 0.32617,-0.0395 0.449069,-0.11886 0.122897,-0.0794 0.201324,-0.18676 0.234612,-0.32246 h 0.03049 v 0.40308 h 0.315227 v -1.45934 c 0,-0.21763 -0.07422,-0.38661 -0.222726,-0.50695 -0.1485,-0.1229 -0.353791,-0.18449 -0.61495,-0.18449 z m 7.070886,0 c -0.156181,0 -0.285673,0.0358 -0.388088,0.10749 -0.102415,0.0691 -0.17032,0.16757 -0.203605,0.29559 h -0.03049 V 286.0871 H 49.74027 v 2.7652 h 0.345715 v -0.65267 c 0,-0.0359 -0.0016,-0.0743 -0.0041,-0.11524 0,-0.041 -0.0011,-0.0805 -0.0036,-0.11886 -0.0052,-0.0435 -0.0088,-0.0872 -0.01138,-0.13074 h 0.03049 c 0.03328,0.12801 0.10119,0.22803 0.203605,0.29973 0.102415,0.0691 0.231907,0.10335 0.388088,0.10335 0.107537,0 0.204404,-0.019 0.291457,-0.0574 0.08705,-0.0384 0.161795,-0.0921 0.223242,-0.16123 0.06145,-0.0717 0.108823,-0.15907 0.142108,-0.26149 0.03585,-0.10241 0.05374,-0.21769 0.05374,-0.34571 v -0.53744 c 0,-0.12801 -0.01789,-0.24329 -0.05374,-0.34571 -0.03329,-0.10242 -0.08066,-0.18822 -0.142108,-0.25735 -0.06145,-0.0717 -0.136189,-0.12645 -0.223242,-0.16485 -0.08705,-0.0384 -0.18392,-0.0579 -0.291457,-0.0579 z m 2.146639,0 c -0.217631,0 -0.400818,0.0484 -0.54932,0.14573 -0.145939,0.0973 -0.236488,0.22942 -0.272333,0.39584 h 0.345715 c 0.02816,-0.0768 0.08291,-0.13682 0.164846,-0.18035 0.08449,-0.0435 0.185563,-0.0656 0.303342,-0.0656 0.161303,0 0.284477,0.0374 0.368969,0.11162 0.08705,0.0717 0.130226,0.17276 0.130226,0.30334 v 0.17261 h -0.62942 c -0.115218,0 -0.218919,0.0158 -0.311092,0.0465 -0.09218,0.0307 -0.171662,0.0739 -0.238228,0.13023 -0.06401,0.0563 -0.114015,0.1258 -0.149863,0.20774 -0.03329,0.0794 -0.05013,0.16886 -0.05013,0.26871 0,0.19971 0.06264,0.35816 0.188103,0.47594 0.125457,0.11778 0.294433,0.17674 0.506944,0.17674 0.176668,0 0.326686,-0.0395 0.449585,-0.11886 0.122897,-0.0794 0.200808,-0.18676 0.234096,-0.32246 h 0.031 v 0.40308 h 0.314711 v -1.45934 c 0,-0.21763 -0.07422,-0.38661 -0.222726,-0.50695 -0.1485,-0.1229 -0.353275,-0.18449 -0.614434,-0.18449 z m 2.557983,0 c -0.153622,0 -0.283114,0.0358 -0.388088,0.10749 -0.104976,0.0717 -0.173937,0.17013 -0.207224,0.29559 h -0.031 v -0.36483 h -0.32608 v 2.11253 h 0.345715 v -1.32499 c 0,-0.1613 0.04475,-0.28816 0.13436,-0.38033 0.08961,-0.0947 0.209638,-0.14212 0.360702,-0.14212 0.153622,0 0.271533,0.0463 0.353467,0.1385 0.08449,0.0896 0.126606,0.21753 0.126606,0.38395 v 0.077 h 0.345715 v -0.11937 c 0,-0.24324 -0.06422,-0.4338 -0.192236,-0.57206 -0.12546,-0.14082 -0.29918,-0.21136 -0.521933,-0.21136 z m -19.35644,0.0382 v 0.31522 h 0.671794 v 1.4826 H 35.94111 v 0.31471 h 1.747697 v -0.31471 h -0.63407 v -1.79782 z m 14.521077,0.26148 c 0.156183,0 0.277783,0.0458 0.364836,0.13797 0.08705,0.0922 0.130742,0.22167 0.130742,0.38809 v 0.53744 c 0,0.1613 -0.04475,0.28974 -0.134358,0.38447 -0.08705,0.0947 -0.207598,0.14211 -0.36122,0.14211 -0.143381,0 -0.258662,-0.0474 -0.345715,-0.14211 -0.08449,-0.0947 -0.126606,-0.22317 -0.126606,-0.38447 v -0.53744 c 0,-0.1613 0.04211,-0.28922 0.126606,-0.38395 0.08705,-0.0947 0.202334,-0.14211 0.345715,-0.14211 z m -11.525394,0.008 c 0.153623,0 0.275222,0.0458 0.364836,0.13798 0.08961,0.0922 0.134358,0.21904 0.134358,0.38034 v 0.53743 c 0,0.16131 -0.04474,0.28817 -0.134358,0.38034 -0.08961,0.0922 -0.211213,0.13849 -0.364836,0.13849 -0.156183,0 -0.279357,-0.0463 -0.36897,-0.13849 -0.08705,-0.0922 -0.130224,-0.21903 -0.130224,-0.38034 v -0.53743 c 0,-0.1613 0.04475,-0.28817 0.134358,-0.38034 0.08961,-0.0922 0.211213,-0.13798 0.364836,-0.13798 z m -9.371004,0.84439 h 0.622184 v 0.28784 c 0,0.0666 -0.01526,0.12815 -0.04599,0.18449 -0.03073,0.0563 -0.07336,0.10633 -0.127124,0.14986 -0.05377,0.0409 -0.117469,0.073 -0.19172,0.0961 -0.07425,0.0231 -0.154793,0.0346 -0.241845,0.0346 -0.1357,0 -0.240976,-0.0336 -0.315227,-0.10025 -0.07414,-0.0665 -0.11099,-0.15844 -0.111104,-0.27595 0,0 0,-5.3e-4 0,-5.3e-4 1.1e-4,-0.11749 0.03591,-0.20998 0.107487,-0.27647 0.07425,-0.0666 0.175321,-0.0997 0.303341,-0.0997 z m 13.82603,0 h 0.622184 v 0.28784 c 0,0.0666 -0.01527,0.12815 -0.04599,0.18449 -0.03073,0.0563 -0.07336,0.10633 -0.127124,0.14986 -0.05377,0.0409 -0.11747,0.073 -0.19172,0.0961 -0.07425,0.0231 -0.154792,0.0346 -0.241845,0.0346 -0.1357,0 -0.240975,-0.0336 -0.315227,-0.10025 -0.07414,-0.0665 -0.11099,-0.15844 -0.111104,-0.27595 0,0 0,-5.3e-4 0,-5.3e-4 1.11e-4,-0.11749 0.03591,-0.20998 0.107487,-0.27647 0.07425,-0.0666 0.175323,-0.0997 0.303342,-0.0997 z m 9.217006,0 h 0.622187 v 0.28784 c 0,0.0666 -0.01527,0.12815 -0.04599,0.18449 -0.03073,0.0563 -0.07284,0.10633 -0.126608,0.14986 -0.05377,0.0409 -0.117986,0.073 -0.192236,0.0961 -0.07425,0.0231 -0.154792,0.0346 -0.241845,0.0346 -0.135699,0 -0.240459,-0.0336 -0.314711,-0.10025 -0.07414,-0.0665 -0.111506,-0.15844 -0.11162,-0.27595 0,0 0,-5.3e-4 0,-5.3e-4 1.08e-4,-0.11749 0.03591,-0.20998 0.107487,-0.27647 0.07425,-0.0666 0.175321,-0.0997 0.303339,-0.0997 z"
           id="path4807"
           inkscape:connector-curvature="0" />
        <path
           style="font-style:normal;font-variant:normal;font-weight:normal;font-stretch:normal;font-family:'JetBrains Mono';-inkscape-font-specification:'JetBrains Mono';stroke-width:0.08602881;fill:#696969"
           d="m 82.057821,285.26135 v 0.65267 h -0.614434 v 0.31522 h 0.614434 v 1.25213 c 0,0.16386 0.05369,0.29547 0.161232,0.39532 0.107534,0.0999 0.252293,0.14986 0.43408,0.14986 h 0.537951 v -0.31471 h -0.537951 c -0.07681,0 -0.137882,-0.0206 -0.183967,-0.0615 -0.04353,-0.041 -0.06563,-0.0973 -0.06563,-0.16898 v -1.25213 h 0.825788 v -0.31522 h -0.825788 v -0.65267 z m 11.521777,0 v 0.65267 h -0.61443 v 0.31522 h 0.61443 v 1.25213 c 0,0.16386 0.0537,0.29547 0.16123,0.39532 0.10754,0.0999 0.2523,0.14986 0.434079,0.14986 h 0.53795 v -0.31471 h -0.53795 c -0.0768,0 -0.138399,-0.0206 -0.184479,-0.0615 -0.0435,-0.041 -0.0651,-0.0973 -0.0651,-0.16898 v -1.25213 h 0.825779 v -0.31522 h -0.825779 v -0.65267 z m -27.344584,0.61443 c -0.263718,0 -0.471121,0.0716 -0.622184,0.21497 -0.148501,0.14339 -0.222725,0.34078 -0.222725,0.5917 v 0.57619 c 0,0.25091 0.07422,0.4478 0.222725,0.59118 0.151063,0.14339 0.358466,0.21497 0.622184,0.21497 0.212512,0 0.393067,-0.0458 0.541569,-0.13797 0.151062,-0.0922 0.248446,-0.21904 0.291972,-0.38034 H 66.72284 c -0.04097,0.0691 -0.104126,0.12174 -0.188619,0.15761 -0.08449,0.0359 -0.183989,0.0537 -0.299207,0.0537 -0.156182,0 -0.279356,-0.0463 -0.368969,-0.13849 -0.08705,-0.0922 -0.130225,-0.21851 -0.130225,-0.37982 v -0.16898 h 1.344104 v -0.38809 c 0,-0.25092 -0.0758,-0.44831 -0.226859,-0.5917 -0.148503,-0.14338 -0.354332,-0.21497 -0.618051,-0.21497 z m 4.742863,0 c -0.156182,0 -0.285158,0.0358 -0.387573,0.10749 -0.102413,0.0691 -0.170319,0.16808 -0.203605,0.2961 h -0.03101 v -0.36535 h -0.326078 l -5.29e-4,2.76521 h 0.345715 v -0.65268 c 0,-0.0358 -0.0011,-0.0742 -0.0036,-0.11524 0,-0.041 -0.0011,-0.0804 -0.0036,-0.11885 -0.0051,-0.0435 -0.0094,-0.0872 -0.01188,-0.13074 h 0.03101 c 0.03329,0.12801 0.10119,0.22803 0.203605,0.29972 0.102415,0.0691 0.231391,0.10335 0.387574,0.10335 0.107535,0 0.204919,-0.019 0.291971,-0.0574 0.08706,-0.0384 0.161279,-0.0921 0.222726,-0.16123 0.06145,-0.0717 0.108823,-0.15907 0.14211,-0.26148 0.03585,-0.10242 0.05374,-0.2177 0.05374,-0.34572 v -0.53743 c 0,-0.12802 -0.0179,-0.2433 -0.05374,-0.34572 -0.03329,-0.10241 -0.08066,-0.18822 -0.14211,-0.25735 -0.06145,-0.0717 -0.135673,-0.12644 -0.222726,-0.16484 -0.08705,-0.0384 -0.184436,-0.0579 -0.291971,-0.0579 z m 2.169894,0 c -0.13058,0 -0.247975,0.0195 -0.35295,0.0579 -0.102416,0.0384 -0.19085,0.0931 -0.2651,0.16484 -0.07169,0.0717 -0.128016,0.15907 -0.168982,0.26149 -0.03841,0.0999 -0.05788,0.21356 -0.05788,0.34158 v 0.53795 c 0,0.12546 0.01947,0.23917 0.05788,0.34158 0.04097,0.10242 0.09729,0.18928 0.168982,0.26097 0.07425,0.0717 0.162684,0.12696 0.2651,0.16536 0.104975,0.0384 0.22237,0.0574 0.35295,0.0574 0.263718,0 0.470065,-0.0726 0.618567,-0.21859 0.151062,-0.1485 0.226342,-0.35064 0.226342,-0.60668 v -0.54157 c 0,-0.25603 -0.07528,-0.45712 -0.226342,-0.60306 -0.151062,-0.14595 -0.357409,-0.21911 -0.618567,-0.21911 z m 2.427242,0 c -0.153623,0 -0.280484,0.0347 -0.380339,0.10387 -0.09985,0.0691 -0.166184,0.16914 -0.199471,0.29972 h -0.03049 v -0.36535 h -0.326594 v 2.11253 h 0.345715 v -1.32498 c 0,-0.16386 0.04211,-0.29336 0.126607,-0.38809 0.08705,-0.0973 0.203392,-0.14573 0.349333,-0.14573 0.145942,0 0.260166,0.0448 0.342098,0.13436 0.08193,0.0896 0.12299,0.2149 0.12299,0.3762 v 1.34824 h 0.345199 v -1.4056 c 0,-0.10753 -0.01527,-0.20597 -0.04599,-0.29559 -0.03073,-0.0921 -0.07653,-0.17163 -0.137976,-0.23822 -0.05889,-0.0666 -0.132055,-0.11762 -0.219108,-0.15348 -0.08449,-0.0384 -0.181875,-0.0579 -0.291971,-0.0579 z m 2.181778,0 c -0.263718,0 -0.471122,0.0716 -0.622184,0.21497 -0.148502,0.14339 -0.222725,0.34078 -0.222725,0.5917 v 0.57619 c 0,0.25091 0.07422,0.4478 0.222725,0.59118 0.151062,0.14339 0.358466,0.21497 0.622184,0.21497 0.212512,0 0.392551,-0.0458 0.541053,-0.13797 0.151062,-0.0922 0.248445,-0.21904 0.291972,-0.38034 H 78.2441 c -0.04097,0.0691 -0.10361,0.12174 -0.188102,0.15761 -0.08449,0.0359 -0.183989,0.0537 -0.299207,0.0537 -0.156182,0 -0.279356,-0.0463 -0.368969,-0.13849 -0.08705,-0.0922 -0.130742,-0.21851 -0.130742,-0.37982 v -0.16898 h 1.344621 v -0.38809 c 0,-0.25092 -0.0758,-0.44831 -0.226859,-0.5917 -0.148502,-0.14338 -0.354331,-0.21497 -0.618051,-0.21497 z m 2.427242,0 c -0.153622,0 -0.280483,0.0347 -0.380338,0.10387 -0.09985,0.0691 -0.166701,0.16914 -0.199988,0.29972 h -0.03049 v -0.36535 h -0.326595 v 2.11253 h 0.345715 v -1.32498 c 0,-0.16386 0.04211,-0.29336 0.126608,-0.38809 0.08705,-0.0973 0.203908,-0.14573 0.349849,-0.14573 0.145942,0 0.259649,0.0448 0.341581,0.13436 0.08193,0.0896 0.12299,0.2149 0.12299,0.3762 v 1.34824 h 0.345715 v -1.4056 c 0,-0.10753 -0.01527,-0.20597 -0.04599,-0.29559 -0.03073,-0.0921 -0.07704,-0.17163 -0.13849,-0.23822 -0.05889,-0.0666 -0.132056,-0.11762 -0.219109,-0.15348 -0.08449,-0.0384 -0.181359,-0.0579 -0.291456,-0.0579 z m 6.924125,0 c -0.15618,0 -0.28516,0.0358 -0.38757,0.10749 -0.10242,0.0691 -0.17032,0.16808 -0.20361,0.2961 h -0.031 v -0.36535 h -0.32607 v 2.76521 h 0.34519 v -0.65268 c 0,-0.0358 -0.001,-0.0742 -0.004,-0.11524 0,-0.041 -0.001,-0.0804 -0.004,-0.11885 -0.005,-0.0435 -0.009,-0.0872 -0.0119,-0.13074 h 0.031 c 0.0333,0.12801 0.10119,0.22803 0.20361,0.29972 0.10241,0.0691 0.23139,0.10335 0.38757,0.10335 0.10754,0 0.20492,-0.019 0.29197,-0.0574 0.0871,-0.0384 0.16128,-0.0921 0.22273,-0.16123 0.0615,-0.0717 0.10882,-0.15907 0.14211,-0.26148 0.0358,-0.10242 0.0537,-0.2177 0.0537,-0.34572 v -0.53743 c 0,-0.12802 -0.0179,-0.2433 -0.0537,-0.34572 -0.0333,-0.10241 -0.0807,-0.18822 -0.14211,-0.25735 -0.0614,-0.0717 -0.13568,-0.12644 -0.22273,-0.16484 -0.087,-0.0384 -0.18443,-0.0579 -0.29197,-0.0579 z m 2.14716,0 c -0.21763,0 -0.40082,0.0489 -0.54932,0.14624 -0.14594,0.0973 -0.23701,0.22891 -0.27286,0.39533 h 0.34572 c 0.0282,-0.0768 0.0834,-0.13682 0.16536,-0.18035 0.0845,-0.0435 0.18557,-0.0656 0.30335,-0.0656 0.1613,0 0.28395,0.0374 0.36845,0.11162 0.0871,0.0717 0.13074,0.17276 0.13074,0.30334 v 0.1726 h -0.62994 c -0.11521,0 -0.21891,0.0158 -0.31109,0.0465 -0.0922,0.0307 -0.17166,0.0739 -0.23823,0.13022 -0.064,0.0563 -0.11349,0.12581 -0.14934,0.20774 -0.0333,0.0794 -0.0501,0.16887 -0.0501,0.26872 0,0.1997 0.0626,0.35868 0.1881,0.47646 0.12546,0.11778 0.29443,0.17621 0.50694,0.17621 0.17667,0 0.32669,-0.0395 0.44959,-0.11885 0.1229,-0.0794 0.20081,-0.18676 0.2341,-0.32246 h 0.031 v 0.40307 h 0.31471 v -1.45934 c 0,-0.21763 -0.0742,-0.38661 -0.22273,-0.50695 -0.1485,-0.1229 -0.35327,-0.18448 -0.61443,-0.18448 z m 2.55746,0 c -0.15362,0 -0.28259,0.0358 -0.38757,0.10749 -0.10497,0.0717 -0.17445,0.17064 -0.20774,0.2961 h -0.0305 v -0.36535 l -0.3266,5.3e-4 v 2.11201 h 0.34572 v -1.32498 c 0,-0.1613 0.0448,-0.28816 0.13436,-0.38034 0.0896,-0.0947 0.21016,-0.14211 0.36122,-0.14211 0.15362,0 0.27153,0.0463 0.35346,0.1385 0.0845,0.0896 0.12661,0.21753 0.12661,0.38395 v 0.077 h 0.34572 v -0.11937 c 0,-0.24324 -0.0642,-0.4338 -0.19224,-0.57206 -0.12546,-0.14082 -0.2997,-0.21136 -0.52245,-0.21136 z m -24.195419,0.0382 0.718302,1.02939 -0.764294,1.08314 h 0.410828 l 0.476456,-0.71417 c 0.0128,-0.0153 0.02281,-0.0322 0.03049,-0.0501 0.0077,-0.0179 0.01557,-0.0343 0.02326,-0.0496 0.0077,-0.0154 0.01399,-0.0322 0.01912,-0.0501 h 0.0155 c 0.0051,0.0153 0.01144,0.0322 0.01912,0.0501 0.0077,0.0153 0.01557,0.0317 0.02326,0.0496 0.01024,0.0153 0.02025,0.0322 0.03049,0.0501 l 0.472322,0.71417 h 0.414962 l -0.760677,-1.08675 0.718303,-1.02578 h -0.410828 l -0.441834,0.67231 c -0.0128,0.0179 -0.02281,0.0358 -0.03049,0.0537 -0.0077,0.0154 -0.01399,0.0296 -0.01912,0.0424 -0.0051,0.0128 -0.0094,0.0255 -0.01189,0.0382 h -0.01499 c -0.0025,-0.0128 -0.0068,-0.0255 -0.01189,-0.0382 -0.0051,-0.0128 -0.01144,-0.027 -0.01912,-0.0424 -0.0077,-0.0179 -0.01769,-0.0358 -0.03049,-0.0537 l -0.441833,-0.67231 z m 3.230294,0.26148 c 0.156183,0 0.277783,0.0458 0.364835,0.13798 0.08705,0.0922 0.130225,0.22167 0.130225,0.38809 v 0.53795 c 0,0.16131 -0.04475,0.28922 -0.134359,0.38396 -0.08705,0.0947 -0.207079,0.14211 -0.360701,0.14211 -0.143382,0 -0.258663,-0.0474 -0.345716,-0.14211 -0.08449,-0.0947 -0.127124,-0.22265 -0.127124,-0.38396 v -0.53795 c 0,-0.1613 0.04263,-0.28922 0.127124,-0.38396 0.08705,-0.0947 0.202334,-0.14211 0.345716,-0.14211 z m 16.130285,0 c 0.15618,0 0.27778,0.0458 0.36483,0.13798 0.0871,0.0922 0.13023,0.22167 0.13023,0.38809 v 0.53795 c 0,0.16131 -0.0448,0.28922 -0.13436,0.38396 -0.0871,0.0947 -0.20708,0.14211 -0.3607,0.14211 -0.14338,0 -0.25867,-0.0474 -0.34572,-0.14211 -0.0845,-0.0947 -0.12661,-0.22265 -0.12661,-0.38396 v -0.53795 c 0,-0.1613 0.0421,-0.28922 0.12661,-0.38396 0.0871,-0.0947 0.20234,-0.14211 0.34572,-0.14211 z m -20.742924,0.008 c 0.158744,0 0.281401,0.0432 0.368453,0.13023 0.08705,0.0871 0.130742,0.21023 0.130742,0.36897 v 0.0997 H 65.73582 v -0.0997 c 0,-0.15874 0.04317,-0.28192 0.130225,-0.36897 0.08705,-0.0871 0.210226,-0.13023 0.368969,-0.13023 z m 6.912757,0 c 0.153622,0 0.275222,0.0458 0.364835,0.13798 0.08961,0.0922 0.134359,0.21904 0.134359,0.38034 v 0.53795 c 0,0.16131 -0.04474,0.28765 -0.134359,0.37982 -0.08961,0.0922 -0.211213,0.13849 -0.364835,0.13849 -0.156183,0 -0.27884,-0.0463 -0.368453,-0.13849 -0.08705,-0.0922 -0.130742,-0.21851 -0.130742,-0.37982 v -0.53795 c 0,-0.1613 0.04475,-0.28817 0.134359,-0.38034 0.08961,-0.0922 0.211213,-0.13798 0.364836,-0.13798 z m 4.60902,0 c 0.158745,0 0.281401,0.0432 0.368453,0.13023 0.08705,0.0871 0.130742,0.21023 0.130742,0.36897 v 0.0997 H 77.25708 v -0.0997 c 0,-0.15874 0.04369,-0.28192 0.130742,-0.36897 0.08705,-0.0871 0.210226,-0.13023 0.368969,-0.13023 z m 11.367787,0.8444 h 0.62218 v 0.28835 c 0,0.0666 -0.0153,0.12764 -0.046,0.18397 -0.0307,0.0563 -0.0728,0.10633 -0.12661,0.14986 -0.0538,0.0409 -0.11798,0.0731 -0.19223,0.0961 -0.0743,0.0231 -0.1548,0.0346 -0.24185,0.0346 -0.1357,0 -0.24097,-0.0331 -0.31523,-0.0997 -0.0741,-0.0665 -0.11099,-0.15947 -0.1111,-0.27699 1.1e-4,-0.11749 0.0359,-0.20945 0.10749,-0.27595 0.0743,-0.0666 0.17532,-0.10025 0.30334,-0.10025 z"
           id="path4835"
           inkscape:connector-curvature="0" />
      </g>
    </g>
  </g>
</svg>
